<svg width="231" height="231" viewBox="0 0 231 231" fill="none" xmlns="http://www.w3.org/2000/svg">
<circle cx="115.5" cy="115.5" r="115.5" fill="#F4F4F4"/>
<path d="M79.2664 186.238L45.0441 144.959L174.404 66.2071L195.762 115.575L79.2664 186.238Z" fill="#A64648" stroke="#F46A5D" stroke-width="4"/>
<path d="M36.9943 92.1967L45.9739 137.985L168.357 64.5346L132.145 34.4684L36.9943 92.1967Z" fill="#D96C6E"/>
<path d="M172.908 59.1141L175.327 63.3036L42.0275 144.454L40.1035 141.121L172.908 59.1141Z" fill="#C44F44"/>
<rect x="143.112" y="69.0977" width="8.46597" height="29.0262" rx="1" transform="rotate(147.421 143.112 69.0977)" fill="#AA4A4C"/>
<rect x="127.886" y="77.8882" width="8.46597" height="29.0262" rx="1" transform="rotate(147.421 127.886 77.8882)" fill="#AA4A4C"/>
<rect x="112.661" y="86.6787" width="8.46597" height="29.0262" rx="1" transform="rotate(147.421 112.661 86.6787)" fill="#AA4A4C"/>
<rect x="97.4352" y="95.4692" width="8.46597" height="29.0262" rx="1" transform="rotate(147.421 97.4352 95.4692)" fill="#AA4A4C"/>
<rect x="82.2097" y="104.259" width="8.46597" height="29.0262" rx="1" transform="rotate(147.421 82.2097 104.259)" fill="#AA4A4C"/>
<rect x="66.9841" y="113.05" width="8.46597" height="29.0262" rx="1" transform="rotate(147.421 66.9841 113.05)" fill="#AA4A4C"/>
<path d="M121.69 162.7L137.731 177.18L127.451 159.374L121.69 162.7Z" fill="#4F4F4F"/>
<path d="M98.7269 109.623L91.3952 113.856L114.752 137.379L122.084 133.146L98.7269 109.623Z" fill="#4F4F4F"/>
<path d="M137.731 177.18L114.752 137.379L122.084 133.146L144.015 173.552L137.731 177.18Z" fill="#676767"/>
<path d="M154.078 142.604L158.598 163.736L148.318 145.93L154.078 142.604Z" fill="#4F4F4F"/>
<path d="M119.896 96.7024L127.228 92.4695L135.619 123.935L128.287 128.168L119.896 96.7024Z" fill="#4F4F4F"/>
<path d="M158.598 163.736L135.619 123.935L128.287 128.168L152.313 167.364L158.598 163.736Z" fill="#676767"/>
<path d="M143 102.487C159.545 109.708 202.489 148.387 180.591 176.862" stroke="white" stroke-width="5" stroke-miterlimit="16" stroke-linecap="round" stroke-dasharray="10 15 30 25 35 15"/>
</svg>
