<svg width="24" height="22" viewBox="0 0 24 22" fill="none" xmlns="http://www.w3.org/2000/svg">
<g clip-path="url(#clip0_2638_29301)">
<path d="M1.01562 2.038C1.18752 1.66503 1.48589 1.55151 1.88806 1.55475C3.06211 1.57097 4.23617 1.56124 5.41022 1.56124C5.89346 1.56124 6.10752 1.72989 6.21454 2.19692C6.36049 2.84232 6.50319 3.48773 6.65238 4.15584H6.9313C12.0751 4.15584 17.2189 4.15584 22.3659 4.15584C22.6675 4.15584 22.9497 4.21746 23.0632 4.51584C23.1313 4.68773 23.1378 4.91476 23.0859 5.09638C22.6189 6.77313 22.1356 8.44665 21.6556 10.1169C21.2924 11.3883 20.9291 12.6629 20.5627 13.9342C20.4329 14.3818 20.2318 14.5342 19.7681 14.5342C15.9345 14.5342 12.101 14.5342 8.26752 14.5342C7.96265 14.5342 7.70968 14.6121 7.56698 14.9007C7.36265 15.3061 7.63184 15.7796 8.0859 15.8283C8.17022 15.838 8.25779 15.8348 8.34536 15.8348C12.1562 15.8348 15.967 15.8348 19.781 15.8348C20.0859 15.8348 20.3389 15.9158 20.4816 16.2012C20.6956 16.6229 20.4005 17.1093 19.9172 17.1288C19.5864 17.1418 19.2556 17.1288 18.9313 17.1288C19.1648 17.2293 19.4178 17.3007 19.6254 17.4369C19.8362 17.5764 20.0405 17.758 20.1832 17.9656C20.3324 18.1796 20.4427 18.4358 20.4978 18.6888C20.5497 18.9353 20.5432 19.2077 20.5043 19.4575C20.3648 20.3461 19.4794 21.0499 18.5713 21.0175C17.5562 20.9818 16.7745 20.2553 16.6772 19.2142C16.6027 18.4196 17.0599 17.4272 18.3281 17.1385H9.714C10.9951 17.4207 11.4718 18.4585 11.3681 19.2823C11.2383 20.2975 10.421 21.0272 9.43508 21.0207C8.42319 21.011 7.61562 20.2683 7.51508 19.2207C7.43076 18.3645 7.96265 17.398 9.13671 17.0996C8.71508 17.0996 8.29022 17.1321 7.87508 17.0931C7.074 17.0153 6.39292 16.3602 6.24698 15.5818C6.08806 14.7385 6.46103 13.905 7.18752 13.4996C7.24265 13.4672 7.30103 13.438 7.37562 13.3958C6.59725 9.88989 5.81562 6.3807 5.034 2.86178H3.01022C2.634 2.86178 2.26103 2.84557 1.88806 2.86503C1.48589 2.88773 1.18752 2.758 1.01562 2.38503V2.038ZM21.6394 5.46935H6.94427L8.66968 13.2239H19.4243C20.1637 10.6358 20.9 8.0607 21.6394 5.46935ZM10.0935 19.0715C10.0935 18.718 9.79833 18.4261 9.44481 18.4261C9.0913 18.4261 8.79941 18.7212 8.79941 19.0748C8.79941 19.4283 9.09454 19.7202 9.44806 19.7202C9.80157 19.7202 10.0935 19.425 10.0935 19.0715ZM19.2589 19.0715C19.2589 18.718 18.9605 18.4261 18.607 18.4293C18.2535 18.4293 17.9616 18.7277 17.9648 19.0812C17.9648 19.4348 18.2632 19.7266 18.6167 19.7234C18.9702 19.7234 19.2621 19.425 19.2589 19.0715Z" fill="#696969"/>
</g>
<defs>
<clipPath id="clip0_2638_29301">
<rect width="24" height="21.0811" fill="white" transform="translate(0 0.458984)"/>
</clipPath>
</defs>
</svg>
