<svg width="24" height="24" viewBox="0 0 24 24" fill="none" xmlns="http://www.w3.org/2000/svg">
<g clip-path="url(#clip0_4233_720)">
<path d="M3.01172 3.97353V3.09566H8.10765C8.10765 2.66238 8.10269 2.25601 8.10906 1.84964C8.11827 1.20469 8.38163 0.687873 8.91189 0.31336C9.24818 0.0761915 9.6326 0.0011473 10.0319 -0.000268625C11.4769 -0.00522437 12.9218 -0.01018 14.3661 0.00043949C15.4811 0.00893506 16.2443 0.796192 16.2492 1.91548C16.2507 2.29354 16.2492 2.67159 16.2492 3.07584H21.3855V3.97495C21.033 3.97495 20.6797 3.98486 20.3285 3.9707C20.1367 3.96292 20.068 4.00752 20.0517 4.21849C19.9122 6.04929 19.7551 7.87937 19.6078 9.70946C19.5066 10.9633 19.4153 12.2171 19.3147 13.4709C19.1993 14.9017 19.0747 16.3311 18.9607 17.7618C18.8432 19.2309 18.7569 20.7034 18.6124 22.1696C18.5225 23.0864 18.0022 24.0082 16.7101 24.0167C13.7282 24.0365 10.7455 24.028 7.76287 24.0188C6.79083 24.016 6.07154 23.4588 5.89455 22.5767C5.81738 22.193 5.81243 21.7944 5.78057 21.4022C5.64181 19.7102 5.50446 18.0188 5.36853 16.3268C5.27013 15.0964 5.18163 13.8645 5.07614 12.6348C5.00676 11.8242 4.90906 11.0157 4.83473 10.205C4.75756 9.36752 4.69101 8.52929 4.62305 7.69106C4.52676 6.50663 4.43119 5.32221 4.34128 4.13778C4.33136 4.00327 4.27402 3.96999 4.15154 3.97141C3.77561 3.97637 3.39898 3.97283 3.01172 3.97283V3.97353ZM5.26517 3.98769C5.27154 4.12433 5.27296 4.23194 5.28216 4.33884C5.36995 5.38451 5.46128 6.42946 5.54623 7.47583C5.66092 8.89105 5.76783 10.307 5.88393 11.7222C6.02977 13.4985 6.18411 15.2741 6.33207 17.0503C6.47296 18.7417 6.63012 20.4323 6.73632 22.1264C6.77172 22.6872 7.12216 23.1388 7.83508 23.1367C10.7632 23.1275 13.6921 23.1303 16.6202 23.1268C17.2899 23.1261 17.6255 22.8103 17.6815 22.1385C17.7161 21.7229 17.7501 21.308 17.7827 20.8925C17.9115 19.2542 18.0326 17.6146 18.1707 15.9771C18.3328 14.0507 18.5147 12.1257 18.679 10.2001C18.8347 8.36999 18.9791 6.5392 19.1271 4.7084C19.1462 4.47336 19.159 4.23831 19.1753 3.9884H5.26588L5.26517 3.98769ZM9.00605 3.07513H15.3522C15.3522 2.68646 15.3551 2.30982 15.3522 1.93389C15.3459 1.25 14.9891 0.89743 14.3038 0.896722C12.8977 0.895307 11.491 0.895307 10.085 0.896722C10 0.896722 9.91508 0.898846 9.83083 0.909465C9.37632 0.964686 9.04853 1.26062 9.01455 1.71584C8.98128 2.15973 9.00747 2.60787 9.00747 3.07654L9.00605 3.07513Z" fill="#282929"/>
<path d="M12.6108 21.0626H11.7344V6.02539H12.6108V21.0618V21.0626Z" fill="#282929"/>
<path d="M9.70266 21.0656H8.78231C8.5593 16.0553 8.337 11.0472 8.11328 6.02344H8.97771C9.21912 11.0287 9.46054 16.0341 9.70266 21.0656Z" fill="#282929"/>
<path d="M15.3572 6.01953H16.2422C16.0199 11.0348 15.7976 16.0436 15.5753 21.0638H14.6875C14.9112 16.0457 15.1335 11.0369 15.3572 6.01953Z" fill="#282929"/>
</g>
<defs>
<clipPath id="clip0_4233_720">
<rect width="18.4071" height="24" fill="white" transform="translate(3)"/>
</clipPath>
</defs>
</svg>
