<svg width="24" height="24" viewBox="0 0 24 24" fill="none" xmlns="http://www.w3.org/2000/svg">
<rect x="0.5" y="0.5" width="23" height="23" rx="7.5" stroke="#3E3E3E"/>
<path d="M12.9769 9.15499C13.7624 9.15499 14.3991 8.51824 14.3991 7.73277C14.3991 6.9473 13.7624 6.31055 12.9769 6.31055C12.1914 6.31055 11.5547 6.9473 11.5547 7.73277C11.5547 8.51824 12.1914 9.15499 12.9769 9.15499Z" fill="#3E3E3E"/>
<path d="M14.4323 14.9267C14.393 14.9003 14.3488 14.8819 14.3024 14.8728C14.2559 14.8637 14.2081 14.8639 14.1617 14.8735C14.1153 14.8831 14.0714 14.9019 14.0323 14.9287C13.9933 14.9556 13.9601 14.9899 13.9345 15.0298C13.5908 15.5388 13.1697 15.9911 12.6865 16.3702C12.5692 16.4591 12.1318 16.7969 11.9469 16.7258C11.8189 16.6867 11.8936 16.4342 11.9185 16.3276L12.1069 15.7693C12.1852 15.5418 13.5469 11.5027 13.6963 11.0405C13.9167 10.3649 13.8207 9.70002 12.8145 9.86002C12.5407 9.88846 9.76383 10.2476 9.71405 10.2511C9.66736 10.2542 9.62172 10.2664 9.57975 10.287C9.53777 10.3077 9.50028 10.3364 9.46941 10.3716C9.43854 10.4068 9.41489 10.4477 9.39983 10.492C9.38477 10.5363 9.37857 10.5831 9.38161 10.6298C9.38464 10.6765 9.39685 10.7221 9.41752 10.7641C9.43819 10.8061 9.46693 10.8436 9.50209 10.8744C9.53725 10.9053 9.57815 10.929 9.62245 10.944C9.66675 10.9591 9.71358 10.9653 9.76028 10.9622C9.76028 10.9622 10.8269 10.8236 10.9443 10.8129C11.0044 10.807 11.0649 10.8187 11.1185 10.8464C11.1721 10.8742 11.2166 10.9169 11.2465 10.9693C11.3109 11.1685 11.3021 11.3841 11.2216 11.5773C11.1292 11.9329 9.66783 16.0502 9.62161 16.2885C9.57203 16.4878 9.5858 16.6976 9.66099 16.8888C9.73618 17.08 9.86906 17.243 10.0412 17.3551C10.3642 17.5704 10.7488 17.6741 11.1363 17.6502C11.513 17.6456 11.8856 17.5709 12.2349 17.4298C13.1203 17.0742 14.0447 16.1285 14.5318 15.3853C14.5738 15.3098 14.5868 15.2217 14.5685 15.1373C14.5502 15.0528 14.5017 14.978 14.4323 14.9267Z" fill="#3E3E3E"/>
</svg>
