<?xml version="1.0" standalone="no"?><!DOCTYPE svg PUBLIC "-//W3C//DTD SVG 1.1//EN" "http://www.w3.org/Graphics/SVG/1.1/DTD/svg11.dtd"><svg version="1.1" baseProfile="tiny" xmlns:xlink="http://www.w3.org/1999/xlink" x="0px" y="0px" width="195.39px" height="63.871px" viewBox="0 0 195.39 63.871" xml:space="preserve" xmlns="http://www.w3.org/2000/svg"><defs xmlns="http://www.w3.org/1999/xhtml"><style type="text/css"><![CDATA[]]></style></defs><path d="M38.185,28.062h-24.96l9.651-9.651c1.513-1.513,1.513-3.966,0-5.479s-3.966-1.513-5.479,0L1.133,29.194&#10;&#9;&#9;C0.411,29.915,0,30.915,0,31.935c0,1.021,0.411,2.019,1.133,2.739l16.263,16.265c0.756,0.757,1.748,1.135,2.739,1.135&#10;&#9;&#9;c0.992,0,1.983-0.378,2.74-1.135c1.513-1.513,1.513-3.966,0-5.479v-0.002l-9.65-9.649h24.959c2.14,0,3.874-1.735,3.874-3.873&#10;&#9;&#9;C42.059,29.795,40.325,28.062,38.185,28.062z M97.28,28.06h-9.434c-2.14,0-3.874,1.734-3.874,3.874c0,2.138,1.734,3.871,3.874,3.871&#10;&#9;&#9;h9.434c2.139,0,3.872-1.733,3.872-3.871C101.152,29.794,99.418,28.06,97.28,28.06z M194.256,29.195l-16.263-16.265&#10;&#9;&#9;c-1.515-1.513-3.966-1.513-5.479,0.002c-1.514,1.513-1.512,3.966,0,5.479l9.651,9.649h-24.961c-2.14,0-3.874,1.733-3.874,3.874&#10;&#9;&#9;c0,2.138,1.734,3.873,3.874,3.873h24.959l-9.649,9.65c-1.514,1.513-1.514,3.966,0,5.479c0.757,0.758,1.749,1.137,2.741,1.137&#10;&#9;&#9;c0.991,0,1.981-0.378,2.738-1.135l16.263-16.265c0.721-0.723,1.134-1.721,1.134-2.739C195.39,30.914,194.977,29.916,194.256,29.195z&#10;&#9;&#9;M69.542,0.45h-3.688c-1.259,0-2.219,0.241-2.878,0.72L43.724,15.924c-0.661,0.48-0.989,1.11-0.989,1.889&#10;&#9;&#9;c0,0.54,0.18,1.05,0.539,1.529l2.159,2.789c0.479,0.6,1.109,0.899,1.889,0.899c0.6,0,1.109-0.181,1.529-0.54l14.573-11.064v49.566&#10;&#9;&#9;c0,0.66,0.239,1.229,0.72,1.709c0.479,0.48,1.049,0.72,1.709,0.72h3.688c0.659,0,1.229-0.239,1.709-0.72&#10;&#9;&#9;c0.479-0.479,0.72-1.049,0.72-1.709V2.88c0-0.659-0.24-1.229-0.72-1.71C70.77,0.691,70.201,0.45,69.542,0.45z M148.093,55.775&#10;&#9;&#9;h-27.527l20.061-18.713c3.118-2.758,5.322-5.471,6.612-8.141c1.289-2.668,1.934-5.893,1.934-9.67c0-3.598-0.78-6.852-2.339-9.76&#10;&#9;&#9;c-1.56-2.908-3.854-5.219-6.882-6.928S133.28,0,129.022,0c-4.259,0-7.977,0.961-11.154,2.879c-3.18,1.92-5.622,4.379-7.332,7.377&#10;&#9;&#9;c-1.709,3-2.624,6.027-2.743,9.086c0,0.539,0.193,1.004,0.585,1.395c0.389,0.391,0.854,0.584,1.394,0.584h4.139&#10;&#9;&#9;c0.539,0,1.019-0.18,1.439-0.539c0.418-0.359,0.719-0.869,0.899-1.529c0.839-3.418,2.218-6.131,4.138-8.141&#10;&#9;&#9;c1.919-2.01,4.797-3.014,8.636-3.014c3.897,0,6.806,1.02,8.727,3.059c1.918,2.039,2.878,4.738,2.878,8.096&#10;&#9;&#9;c0,2.578-0.42,4.709-1.259,6.387c-0.841,1.68-2.22,3.389-4.139,5.127l-26.357,24.02c-0.78,0.719-1.305,1.305-1.574,1.754&#10;&#9;&#9;s-0.404,1.006-0.404,1.664v3.238c0,0.66,0.238,1.23,0.72,1.709c0.479,0.48,1.048,0.721,1.709,0.721h38.771&#10;&#9;&#9;c0.659,0,1.229-0.24,1.709-0.721c0.479-0.479,0.72-1.049,0.72-1.709v-3.238c0-0.658-0.24-1.229-0.72-1.709&#10;&#9;&#9;C149.322,56.016,148.752,55.775,148.093,55.775z"/></svg>