<?xml version="1.0" standalone="no"?><!DOCTYPE svg PUBLIC "-//W3C//DTD SVG 1.1//EN" "http://www.w3.org/Graphics/SVG/1.1/DTD/svg11.dtd"><svg version="1.1" baseProfile="tiny" xmlns:xlink="http://www.w3.org/1999/xlink" x="0px" y="0px" width="87.056px" height="87.057px" viewBox="0 0 87.056 87.057" xml:space="preserve" xmlns="http://www.w3.org/2000/svg"><defs xmlns="http://www.w3.org/1999/xhtml"><style type="text/css"><![CDATA[]]></style></defs><path d="M43.526,0C19.486,0.002,0.002,19.487,0,43.528c0.002,24.041,19.486,43.524,43.526,43.528&#10;&#9;&#9;c24.043-0.004,43.526-19.487,43.529-43.528C87.053,19.487,67.569,0.002,43.526,0z M47.028,7.171&#10;&#9;&#9;c0.881,0.084,1.751,0.203,2.613,0.348v72.018c-0.862,0.146-1.732,0.265-2.613,0.348V7.171z M56.642,9.435&#10;&#9;&#9;c0.889,0.342,1.764,0.711,2.616,1.118v65.95c-0.853,0.407-1.728,0.776-2.616,1.118V9.435z M66.257,14.944&#10;&#9;&#9;c0.932,0.742,1.825,1.527,2.68,2.355c-0.037,0.203-0.063,0.411-0.063,0.626V69.6c0,0.068,0.016,0.132,0.02,0.198&#10;&#9;&#9;c-0.842,0.813-1.721,1.584-2.637,2.313V14.944z M75.872,26.557c1.076,2.044,1.963,4.2,2.639,6.45&#10;&#9;&#9;c-0.005,0.075-0.022,0.146-0.022,0.222V53.95c0,0.045,0.012,0.086,0.013,0.131c-0.674,2.238-1.559,4.384-2.629,6.418V26.557z&#10;&#9;&#9;M7,43.528c0-10.098,4.083-19.21,10.697-25.829c5.847-5.843,13.636-9.703,22.33-10.528v72.714&#10;&#9;&#9;c-8.694-0.825-16.483-4.685-22.33-10.527C11.083,62.735,7,53.626,7,43.528z"/></svg>