<?xml version="1.0" standalone="no"?><!DOCTYPE svg PUBLIC "-//W3C//DTD SVG 1.1//EN" "http://www.w3.org/Graphics/SVG/1.1/DTD/svg11.dtd"><svg version="1.1" baseProfile="tiny" xmlns:xlink="http://www.w3.org/1999/xlink" x="0px" y="0px" width="149.848px" height="98.323px" viewBox="0 0 149.848 98.323" xml:space="preserve" xmlns="http://www.w3.org/2000/svg"><defs xmlns="http://www.w3.org/1999/xhtml"><style type="text/css"><![CDATA[]]></style></defs><path d="M41.418,51.493H5.412C2.423,51.493,0,53.917,0,56.905v36.007c0,2.986,2.423,5.409,5.412,5.409l36.006,0.002&#10;&#9;&#9;c2.989-0.004,5.408-2.421,5.412-5.411V56.905C46.826,53.912,44.407,51.496,41.418,51.493z M39.83,91.322H7l0.002-32.829H39.83&#10;&#9;&#9;V91.322z M24.111,85.87c0.684,0.683,1.58,1.023,2.475,1.023c0.896,0,1.792-0.341,2.476-1.023c1.365-1.367,1.365-3.584,0-4.949&#10;&#9;&#9;l-0.002-0.002l-6.012-6.012l6.012-6.012c1.367-1.367,1.367-3.584,0.002-4.948c-1.367-1.367-3.583-1.367-4.949,0l-8.491,8.487&#10;&#9;&#9;c-0.652,0.649-1.025,1.552-1.025,2.475c0,0.92,0.374,1.821,1.025,2.474L24.111,85.87z M144.436,51.493H108.43&#10;&#9;&#9;c-2.991,0.003-5.406,2.419-5.41,5.412v36.007c0.002,2.99,2.423,5.407,5.41,5.409v0.002h36.006c2.986-0.006,5.412-2.423,5.412-5.411&#10;&#9;&#9;V56.905C149.848,53.915,147.424,51.496,144.436,51.493z M142.848,91.322H110.02V58.493h32.828V91.322z M120.787,85.869&#10;&#9;&#9;c0.684,0.684,1.58,1.025,2.477,1.025c0.895,0,1.791-0.342,2.475-1.023l8.486-8.489c0.66-0.66,1.025-1.539,1.025-2.476&#10;&#9;&#9;c0-0.934-0.365-1.813-1.025-2.473l-8.488-8.487c-1.367-1.367-3.584-1.367-4.949,0c-1.367,1.367-1.367,3.583,0,4.95l6.012,6.01&#10;&#9;&#9;l-6.012,6.014C119.42,82.285,119.42,84.502,120.787,85.869z M92.945,51.493H56.938c-2.993,0.003-5.41,2.422-5.412,5.412v36.007&#10;&#9;&#9;c0.002,2.988,2.425,5.409,5.412,5.409l36.008,0.002c2.987-0.002,5.408-2.423,5.41-5.411V56.905&#10;&#9;&#9;C98.352,53.915,95.937,51.498,92.945,51.493z M91.354,91.322H58.525V58.493h32.83L91.354,91.322z M72.467,82.698&#10;&#9;&#9;c0.66,0.662,1.541,1.027,2.476,1.027c0.934-0.002,1.813-0.365,2.475-1.027l8.485-8.487c1.366-1.367,1.366-3.584,0-4.948&#10;&#9;&#9;c-1.368-1.367-3.584-1.367-4.95,0l-6.012,6.011l-6.012-6.011c-1.369-1.369-3.584-1.369-4.95,0c-1.367,1.366-1.367,3.581,0,4.95&#10;&#9;&#9;L72.467,82.698z M56.937,46.828l36.007,0.002c2.993-0.004,5.408-2.425,5.411-5.413V5.412C98.349,2.425,95.934,0,92.944,0H56.937&#10;&#9;&#9;c-2.987,0.002-5.409,2.419-5.411,5.412v36.005C51.53,44.409,53.945,46.824,56.937,46.828z M58.526,6.999l32.83,0.002v32.828h-32.83&#10;&#9;&#9;V6.999z M77.415,15.623c-0.651-0.652-1.554-1.025-2.476-1.025c-0.921,0-1.824,0.373-2.476,1.025l-8.485,8.489&#10;&#9;&#9;c-1.367,1.366-1.367,3.582,0,4.95c0.684,0.684,1.58,1.024,2.475,1.024c0.896,0.001,1.792-0.342,2.476-1.026l6.01-6.014l6.014,6.014&#10;&#9;&#9;c1.366,1.366,3.582,1.366,4.949,0c1.368-1.366,1.368-3.582,0.002-4.948L77.415,15.623z"/></svg>