<?xml version="1.0" standalone="no"?><!DOCTYPE svg PUBLIC "-//W3C//DTD SVG 1.1//EN" "http://www.w3.org/Graphics/SVG/1.1/DTD/svg11.dtd"><svg version="1.1" baseProfile="tiny" xmlns:xlink="http://www.w3.org/1999/xlink" x="0px" y="0px" width="121.246px" height="122.861px" viewBox="0 0 121.246 122.861" xml:space="preserve" xmlns="http://www.w3.org/2000/svg"><defs xmlns="http://www.w3.org/1999/xhtml"><style type="text/css"><![CDATA[]]></style></defs><path d="M120.062,5.953c-1.541-1.486-3.993-1.439-5.477,0.1L102.196,18.9c-0.265-0.284-0.52-0.578-0.789-0.857&#10;&#9;&#9;C90.691,6.918,75.799-0.004,59.374,0C42.946-0.004,28.054,6.918,17.338,18.043C6.614,29.161-0.002,44.52,0,61.431&#10;&#9;&#9;c-0.002,16.91,6.614,32.267,17.338,43.387c0.335,0.348,0.686,0.679,1.029,1.018L8.278,116.298c-1.484,1.539-1.439,3.991,0.1,5.478&#10;&#9;&#9;c0.752,0.725,1.721,1.086,2.689,1.086c1.015,0,2.029-0.397,2.788-1.187l10.362-10.746c9.831,7.485,21.998,11.936,35.156,11.932&#10;&#9;&#9;h0.015c16.419,0,31.306-6.924,42.019-18.043c10.725-11.12,17.342-26.477,17.34-43.387c0.002-13.646-4.312-26.279-11.611-36.491&#10;&#9;&#9;l13.026-13.509C121.646,9.892,121.601,7.439,120.062,5.953z M23.746,100.257c-0.276-0.273-0.559-0.539-0.829-0.818&#10;&#9;&#9;C13.556,89.728,7.749,76.306,7.746,61.431c0.002-14.878,5.81-28.3,15.171-38.011c9.371-9.709,22.228-15.669,36.456-15.674&#10;&#9;&#9;C73.6,7.751,86.457,13.711,95.83,23.42c0.335,0.348,0.654,0.709,0.979,1.066L78.5,43.475l-6.602-4.03&#10;&#9;&#9;c-1.528-0.938-3.255-1.391-4.93-1.388c-3.181-0.007-6.307,1.621-8.087,4.539c-0.905,1.483-1.386,3.191-1.386,4.932v17.729&#10;&#9;&#9;l-5.515,5.72c-0.507-0.285-1.083-0.462-1.707-0.462h-9.356c-1.933,0-3.5,1.566-3.5,3.5c0,1.933,1.566,3.5,3.5,3.5h4.758&#10;&#9;&#9;L23.746,100.257z M79.765,53.325l10.425,6.362c0.216,0.131,0.403,0.312,0.547,0.534c0.192,0.294,0.273,0.6,0.275,0.924&#10;&#9;&#9;c-0.005,0.57-0.269,1.114-0.788,1.454l-22.32,14.533c-0.281,0.183-0.61,0.28-0.938,0.28c-0.945-0.003-1.719-0.774-1.722-1.722&#10;&#9;&#9;v-7.309L79.765,53.325z M65.243,57.222v-9.694c0.003-0.318,0.088-0.623,0.255-0.898c0.326-0.536,0.882-0.82,1.471-0.825&#10;&#9;&#9;c0.313,0.003,0.598,0.077,0.884,0.251l5.137,3.135L65.243,57.222z M111.001,61.431c-0.002,14.875-5.809,28.297-15.171,38.008&#10;&#9;&#9;c-9.373,9.709-22.23,15.672-36.457,15.674c-11.077-0.002-21.313-3.628-29.73-9.81l27.888-28.921&#10;&#9;&#9;c0.358,4.906,4.437,8.774,9.434,8.778c1.839,0,3.632-0.536,5.165-1.534l22.328-14.538c2.777-1.818,4.309-4.856,4.302-7.942&#10;&#9;&#9;c0.002-1.766-0.501-3.575-1.534-5.158c-0.771-1.183-1.793-2.177-2.997-2.912l-8.953-5.466l16.372-16.979&#10;&#9;&#9;C107.529,39.342,110.999,49.948,111.001,61.431z M53.775,49.849c0-1.934-1.566-3.5-3.5-3.5H28.917c-1.932,0-3.499,1.566-3.499,3.5&#10;&#9;&#9;c0,1.932,1.566,3.499,3.499,3.499h21.357C52.208,53.348,53.775,51.78,53.775,49.849z M53.775,61.932&#10;&#9;&#9;c0-1.933-1.567-3.499-3.499-3.499H35.917c-1.933,0-3.499,1.566-3.499,3.499s1.566,3.502,3.499,3.502h14.358&#10;&#9;&#9;C52.208,65.434,53.775,63.864,53.775,61.932z"/></svg>