<?xml version="1.0" standalone="no"?><!DOCTYPE svg PUBLIC "-//W3C//DTD SVG 1.1//EN" "http://www.w3.org/Graphics/SVG/1.1/DTD/svg11.dtd"><svg version="1.1" baseProfile="tiny" xmlns:xlink="http://www.w3.org/1999/xlink" x="0px" y="0px" width="121.942px" height="125.554px" viewBox="0 0 121.942 125.554" xml:space="preserve" xmlns="http://www.w3.org/2000/svg"><defs xmlns="http://www.w3.org/1999/xhtml"><style type="text/css"><![CDATA[]]></style></defs><path d="M17.228,95.437c1.073,0.534,2.213,0.787,3.336,0.787c2.756,0,5.409-1.525,6.721-4.161l7.263-14.602h52.848l7.264,14.602&#10;&#9;&#9;c1.845,3.707,6.346,5.219,10.055,3.374c3.708-1.844,5.219-6.345,3.375-10.055l-40.4-81.223C66.42,1.61,63.82,0,60.973,0&#10;&#9;&#9;c-2.846,0-5.445,1.61-6.715,4.159L13.854,85.382C12.01,89.089,13.521,93.591,17.228,95.437z M60.973,24.339l18.963,38.122H42.01&#10;&#9;&#9;L60.973,24.339z M114.443,110.555H7.501c-4.144,0-7.501,3.357-7.501,7.499s3.358,7.5,7.501,7.5h106.942&#10;&#9;&#9;c4.141,0,7.499-3.358,7.499-7.5S118.584,110.555,114.443,110.555z"/></svg>