<?xml version="1.0" standalone="no"?><!DOCTYPE svg PUBLIC "-//W3C//DTD SVG 1.1//EN" "http://www.w3.org/Graphics/SVG/1.1/DTD/svg11.dtd"><svg version="1.1" id="Layer_1" xmlns:xlink="http://www.w3.org/1999/xlink" x="0px" y="0px" viewBox="0 0 100 100" style="enable-background:new 0 0 100 100;" xml:space="preserve" xmlns="http://www.w3.org/2000/svg"><defs xmlns="http://www.w3.org/1999/xhtml"><style type="text/css"><![CDATA[]]></style></defs><g><g>
		<path d="M81.7,86.4L78,56.7H49.9l-1-15.5h21.1l-0.8-6.7H48.5L47.3,15c2.8-1.3,4.7-4.1,4.7-7.4c0-4.5-3.7-8.2-8.2-8.2&#10;&#9;&#9;&#9;s-8.2,3.7-8.2,8.2c0,3.6,2.4,6.7,5.7,7.7l3,47.3h28.4l3.7,29.7H88v-5.9L81.7,86.4L81.7,86.4z"/>
		<path d="M45.1,93.5c-14.4,0-26.2-11.7-26.2-26.2c0-11.7,7.7-21.6,18.3-24.9l-0.4-6.7c-14,3.7-24.4,16.4-24.4,31.6&#10;&#9;&#9;&#9;C12.4,85.4,27,100,45.1,100c10,0,19-4.5,25-11.6l-1.3-10.1C64.7,87.2,55.6,93.5,45.1,93.5z"/></g></g></svg>