<?xml version="1.0" standalone="no"?><!DOCTYPE svg PUBLIC "-//W3C//DTD SVG 1.1//EN" "http://www.w3.org/Graphics/SVG/1.1/DTD/svg11.dtd"><svg version="1.1" baseProfile="tiny" xmlns:xlink="http://www.w3.org/1999/xlink" x="0px" y="0px" width="119.589px" height="132.002px" viewBox="0 0 119.589 132.002" xml:space="preserve" xmlns="http://www.w3.org/2000/svg"><defs xmlns="http://www.w3.org/1999/xhtml"><style type="text/css"><![CDATA[]]></style></defs><path d="M110.089,0H9.5C4.251,0.002,0.002,4.252,0,9.502V122.5c0.002,5.249,4.251,9.498,9.5,9.5l100.589,0.002&#10;&#9;&#9;c5.25-0.004,9.498-4.253,9.5-9.502V9.502C119.587,4.254,115.339,0.002,110.089,0z M112.59,122.5&#10;&#9;&#9;c-0.002,1.381-1.12,2.499-2.501,2.501H9.5c-1.378-0.002-2.499-1.122-2.501-2.501V9.502C7.001,8.122,8.122,7.004,9.5,7.001h100.589&#10;&#9;&#9;c1.381,0.003,2.499,1.121,2.501,2.501V122.5z M96.38,102.97H23.214c-1.676,0-3.031,1.357-3.031,3.031s1.355,3.031,3.031,3.031H96.38&#10;&#9;&#9;c1.674,0,3.031-1.357,3.031-3.031S98.054,102.97,96.38,102.97z M96.378,22.97H23.212c-0.798,0-1.58,0.323-2.143,0.889&#10;&#9;&#9;c-0.565,0.563-0.887,1.345-0.887,2.144v53.333c0,0.809,0.316,1.569,0.887,2.144c0.574,0.571,1.334,0.887,2.143,0.887h73.166&#10;&#9;&#9;c0.812,0,1.571-0.315,2.144-0.887c0.573-0.574,0.89-1.335,0.89-2.144V26.002c0-0.799-0.324-1.58-0.89-2.144&#10;&#9;&#9;C97.958,23.293,97.177,22.97,96.378,22.97z M93.349,60.079L80.251,46.984c-1.184-1.185-3.102-1.187-4.285,0L61.62,61.33&#10;&#9;&#9;L45.448,38.736c-0.536-0.747-1.376-1.211-2.295-1.262s-1.808,0.315-2.422,1.001L26.245,54.592v-25.56h67.104V60.079z"/></svg>