<?xml version="1.0" standalone="no"?><!DOCTYPE svg PUBLIC "-//W3C//DTD SVG 1.1//EN" "http://www.w3.org/Graphics/SVG/1.1/DTD/svg11.dtd"><svg version="1.1" baseProfile="tiny" xmlns:xlink="http://www.w3.org/1999/xlink" x="0px" y="0px" width="139.76px" height="125.288px" viewBox="0 0 139.76 125.288" xml:space="preserve" xmlns="http://www.w3.org/2000/svg"><defs xmlns="http://www.w3.org/1999/xhtml"><style type="text/css"><![CDATA[]]></style></defs><path d="M125.297,27.496c0-3.546-1.368-6.879-3.855-9.386l-14.099-14.22C104.856,1.382,101.552,0,98.035,0s-6.822,1.382-9.308,3.889&#10;&#9;&#9;l-63.23,63.775c-3.766,3.795-5.836,8.843-5.836,14.213c0,2.269-0.913,4.49-2.505,6.096l-5.437,5.483&#10;&#9;&#9;c-1.415,1.428-2.227,3.402-2.227,5.421c0,1.318,0.35,2.619,0.982,3.764l-9.4,9.48c-0.776,0.785-1.165,1.88-1.058,2.984&#10;&#9;&#9;c0.11,1.104,0.704,2.099,1.617,2.715l9.437,6.344c0.621,0.419,1.331,0.623,2.037,0.623c0.945,0,1.885-0.367,2.596-1.084l7.828-7.896&#10;&#9;&#9;c1.133,0.642,2.423,0.994,3.73,0.994c2,0,3.961-0.821,5.375-2.248l5.438-5.483c1.59-1.604,3.794-2.523,6.043-2.523&#10;&#9;&#9;c5.324,0,10.328-2.092,14.093-5.888l63.23-63.773C123.929,34.376,125.297,31.044,125.297,27.496z M44.118,99.142&#10;&#9;&#9;c-4.243,0-8.232,1.666-11.234,4.692l-5.437,5.484c0,0,0,0-0.001,0c-0.097,0.1-0.271,0.098-0.369,0l-9.016-9.093c0,0,0,0,0-0.002&#10;&#9;&#9;l-1.151-1.159c-0.115-0.117-0.091-0.284,0-0.374l5.438-5.482c3.003-3.028,4.654-7.052,4.654-11.331c0-1.687,0.323-3.322,0.94-4.835&#10;&#9;&#9;l20.97,21.149C47.412,98.813,45.79,99.142,44.118,99.142z M54.785,93.642L32.454,71.118l53.785-54.247l22.332,22.522L54.785,93.642z&#10;&#9;&#9;M98.145,118.288v-0.003h-8.679c-3.173,0-6.015-1.275-8.097-3.354c-2.081-2.086-3.354-4.927-3.356-8.099&#10;&#9;&#9;c0.003-3.175,1.278-6.018,3.354-8.1c2.085-2.081,4.927-3.356,8.1-3.356h8.679c1.934,0,3.5-1.566,3.5-3.5s-1.566-3.5-3.5-3.5h-8.679&#10;&#9;&#9;c-5.085-0.003-9.72,2.071-13.048,5.405c-3.334,3.328-5.408,7.964-5.406,13.051c-0.002,5.084,2.072,9.72,5.406,13.047&#10;&#9;&#9;c3.328,3.335,7.963,5.408,13.048,5.406h8.679c1.934,0,3.5-1.566,3.5-3.5S100.078,118.288,98.145,118.288z M134.355,93.782&#10;&#9;&#9;c-3.327-3.334-7.965-5.408-13.049-5.405h-8.677c-1.934,0-3.503,1.566-3.503,3.5s1.569,3.5,3.503,3.5h8.677&#10;&#9;&#9;c3.174,0,6.015,1.275,8.099,3.354c2.078,2.087,3.354,4.928,3.356,8.103c-0.003,3.172-1.278,6.015-3.356,8.097&#10;&#9;&#9;c-2.084,2.08-4.925,3.355-8.099,3.358l-8.677-0.003c-1.934,0-3.503,1.567-3.503,3.501s1.569,3.502,3.503,3.502l8.677-0.002&#10;&#9;&#9;c5.084,0.002,9.722-2.071,13.049-5.406c3.335-3.327,5.406-7.963,5.404-13.047C139.762,101.746,137.69,97.11,134.355,93.782z&#10;&#9;&#9;M88.136,106.643c0,1.932,1.568,3.5,3.501,3.5h27.5c1.932,0,3.5-1.568,3.5-3.5c0-1.935-1.568-3.501-3.5-3.501h-27.5&#10;&#9;&#9;C89.704,103.142,88.136,104.708,88.136,106.643z"/></svg>