<?xml version="1.0" standalone="no"?><!DOCTYPE svg PUBLIC "-//W3C//DTD SVG 1.1//EN" "http://www.w3.org/Graphics/SVG/1.1/DTD/svg11.dtd"><svg version="1.1" baseProfile="tiny" xmlns:xlink="http://www.w3.org/1999/xlink" x="0px" y="0px" width="124.787px" height="125.286px" viewBox="0 0 124.787 125.286" xml:space="preserve" xmlns="http://www.w3.org/2000/svg"><defs xmlns="http://www.w3.org/1999/xhtml"><style type="text/css"><![CDATA[]]></style></defs><path d="M120.948,18.107l-14.043-14.22C104.427,1.38,101.137,0,97.634,0c-3.501,0-6.792,1.38-9.269,3.888L25.393,67.663&#10;&#9;&#9;c-3.75,3.795-5.815,8.843-5.815,14.213c0,2.269-0.908,4.488-2.491,6.093l-5.418,5.484c-1.407,1.43-2.216,3.404-2.216,5.423&#10;&#9;&#9;c0,1.319,0.348,2.62,0.98,3.764l-9.362,9.48c-0.774,0.785-1.162,1.88-1.053,2.982c0.107,1.104,0.699,2.101,1.609,2.715l9.396,6.347&#10;&#9;&#9;c0.62,0.418,1.326,0.622,2.027,0.622c0.945,0,1.879-0.37,2.587-1.084l7.797-7.896c1.129,0.642,2.412,0.992,3.717,0.992&#10;&#9;&#9;c1.991,0,3.943-0.817,5.352-2.246l5.417-5.483c1.584-1.604,3.776-2.523,6.017-2.523c5.303,0,10.288-2.092,14.035-5.887&#10;&#9;&#9;l62.976-63.776c2.475-2.507,3.839-5.839,3.839-9.387C124.787,23.949,123.422,20.616,120.948,18.107z M43.937,99.141&#10;&#9;&#9;c-4.225,0-8.2,1.666-11.189,4.69l-5.414,5.486c0,0,0,0-0.001,0c-0.096,0.098-0.268,0.098-0.367,0l-8.979-9.095l-1.146-1.161&#10;&#9;&#9;c-0.114-0.115-0.09-0.281,0-0.372l5.416-5.482c2.989-3.028,4.635-7.052,4.635-11.331c0-1.687,0.321-3.322,0.937-4.837l20.884,21.149&#10;&#9;&#9;C47.217,98.812,45.604,99.141,43.937,99.141z M54.561,93.639l-22.24-22.521l53.566-54.248l22.242,22.523L54.561,93.639z&#10;&#9;&#9;M82.516,121.786c0,1.934,1.567,3.5,3.5,3.5c1.934,0,3.501-1.566,3.501-3.5v-13.264h17.5v13.264c0,1.934,1.566,3.5,3.498,3.5&#10;&#9;&#9;c1.934,0,3.5-1.566,3.5-3.5V88.264c0-1.934-1.566-3.5-3.5-3.5c-1.932,0-3.498,1.566-3.498,3.5v13.26h-17.5v-13.26&#10;&#9;&#9;c0-1.934-1.567-3.5-3.501-3.5c-1.933,0-3.5,1.566-3.5,3.5"/></svg>