<?xml version="1.0" standalone="no"?><!DOCTYPE svg PUBLIC "-//W3C//DTD SVG 1.1//EN" "http://www.w3.org/Graphics/SVG/1.1/DTD/svg11.dtd"><svg version="1.1" baseProfile="tiny" xmlns:xlink="http://www.w3.org/1999/xlink" x="0px" y="0px" width="81.216px" height="126.878px" viewBox="0 0 81.216 126.878" xml:space="preserve" xmlns="http://www.w3.org/2000/svg"><defs xmlns="http://www.w3.org/1999/xhtml"><style type="text/css"><![CDATA[]]></style></defs><path d="M25.049,21.606c0.684,0,1.367-0.261,1.889-0.782v-0.002L41.312,6.446l14.375,14.376c1.041,1.043,2.732,1.043,3.775,0.002&#10;&#9;&#9;c1.043-1.043,1.045-2.734,0.002-3.777L43.201,0.783c-1.043-1.043-2.734-1.046-3.777,0L23.161,17.047&#10;&#9;&#9;c-1.043,1.043-1.043,2.732,0,3.777C23.683,21.346,24.366,21.606,25.049,21.606z M55.686,106.056l-14.375,14.375l-14.375-14.375&#10;&#9;&#9;c-1.043-1.043-2.734-1.043-3.777,0c-1.042,1.044-1.042,2.734,0.002,3.777l16.262,16.262c0.505,0.505,1.175,0.783,1.889,0.783&#10;&#9;&#9;s1.384-0.278,1.889-0.783l16.264-16.264c1.042-1.043,1.042-2.731-0.002-3.775C58.419,105.013,56.73,105.013,55.686,106.056z&#10;&#9;&#9;M80.431,93.841L47.327,27.287c-1.269-2.549-3.87-4.158-6.716-4.158c-2.847,0-5.449,1.609-6.714,4.158L0.787,93.841&#10;&#9;&#9;c-1.846,3.707-0.335,8.21,3.375,10.056c3.708,1.843,8.209,0.333,10.055-3.375l5.579-11.214h41.625L67,100.521&#10;&#9;&#9;c1.312,2.635,3.965,4.16,6.721,4.16c1.122,0,2.261-0.252,3.334-0.785C80.763,102.051,82.275,97.55,80.431,93.841z M27.258,74.308&#10;&#9;&#9;l13.353-26.84l13.35,26.84H27.258z"/></svg>