<?xml version="1.0" standalone="no"?><!DOCTYPE svg PUBLIC "-//W3C//DTD SVG 1.1//EN" "http://www.w3.org/Graphics/SVG/1.1/DTD/svg11.dtd"><svg version="1.1" baseProfile="tiny" xmlns:xlink="http://www.w3.org/1999/xlink" x="0px" y="0px" width="131.859px" height="131.861px" viewBox="0 0 131.859 131.861" xml:space="preserve" xmlns="http://www.w3.org/2000/svg"><defs xmlns="http://www.w3.org/1999/xhtml"><style type="text/css"><![CDATA[]]></style></defs><path d="M128.781,108.985L97.308,77.51c4.254-7.538,6.692-16.236,6.693-25.509C103.998,23.28,80.721,0.004,51.999,0&#10;&#9;&#9;C23.28,0.004,0.002,23.28,0,52.001c0.002,28.72,23.278,51.997,51.999,52.002c9.273-0.002,17.971-2.44,25.509-6.693l31.478,31.476&#10;&#9;&#9;c2.039,2.041,4.746,3.078,7.424,3.076h0.016c2.67,0,5.372-1.037,7.408-3.076l4.95-4.949c2.043-2.045,3.08-4.75,3.076-7.425&#10;&#9;&#9;C131.863,113.733,130.826,111.026,128.781,108.985z M20.181,83.819C12.031,75.666,7.002,64.439,7,52.001&#10;&#9;&#9;c0.002-12.438,5.032-23.666,13.181-31.82c8.154-8.147,19.38-13.179,31.818-13.179c12.438,0,23.667,5.031,31.82,13.179&#10;&#9;&#9;c8.148,8.154,13.178,19.383,13.18,31.82c-0.001,6.755-1.495,13.147-4.156,18.89L71.294,21.7h-8.962L33.951,86.487h12.548&#10;&#9;&#9;l5.377-12.957H81.75l3.601,8.678c-0.497,0.549-1.007,1.087-1.531,1.611c-8.153,8.15-19.382,13.18-31.82,13.182&#10;&#9;&#9;C39.561,96.999,28.335,91.97,20.181,83.819z M77.985,62.929H55.641l11.172-29.567L77.985,62.929z M123.831,118.888l-4.947,4.945&#10;&#9;&#9;c-0.692,0.692-1.568,1.022-2.475,1.027c-0.906-0.002-1.783-0.335-2.474-1.027L83.481,93.38c3.727-2.84,7.059-6.171,9.898-9.898&#10;&#9;&#9;l30.453,30.454c0.69,0.692,1.023,1.567,1.027,2.476C124.856,117.315,124.523,118.191,123.831,118.888z"/></svg>