<?xml version="1.0" standalone="no"?><!DOCTYPE svg PUBLIC "-//W3C//DTD SVG 1.1//EN" "http://www.w3.org/Graphics/SVG/1.1/DTD/svg11.dtd"><svg version="1.1" id="Layer_1" xmlns:xlink="http://www.w3.org/1999/xlink" x="0px" y="0px" viewBox="0 0 100 73.1" style="enable-background:new 0 0 100 73.1;" xml:space="preserve" xmlns="http://www.w3.org/2000/svg"><defs xmlns="http://www.w3.org/1999/xhtml"><style type="text/css"><![CDATA[]]></style></defs><g><path d="M94.9,1.6H5.1C3.9,1.6,3,2.6,3,3.7V69c0,1.2,0.9,2.1,2.1,2.1h89.9c1.2,0,2.1-0.9,2.1-2.1V3.7C97,2.6,96.1,1.6,94.9,1.6z&#10;&#9;&#9; M92.9,56L68.8,36.4L93,17.4L92.9,56z M92.9,5.8v6.4L50,45.7L7.1,10.9V5.8L92.9,5.8z M7.1,16.2l24.8,20.1L7.1,56.1L7.1,16.2z&#10;&#9;&#9; M7.1,66.9v-5.5L35.2,39l13.5,10.9c0.4,0.3,0.8,0.5,1.3,0.5c0.5,0,0.9-0.2,1.3-0.4l14-10.9l27.6,22.3v5.5L7.1,66.9z"/></g></svg>