<svg width="1158" height="510" viewBox="0 0 1158 510" fill="none" xmlns="http://www.w3.org/2000/svg">
<path d="M1115.61 461.826V0H444.157L843.419 461.826H1115.61Z" fill="#F0EAD4"/>
<path d="M262.83 0.230469H29.8198V462.056H510.39L262.83 0.230469Z" fill="#F9F7EF"/>
<path d="M1158 488.604H0L39.0728 435.227H1110.05L1158 488.604Z" fill="#D4D2CC"/>
<path d="M1158 509.707H0V488.475H1158V509.707Z" fill="#D4D2CC"/>
<path d="M876.42 399.088H246.299C242.284 399.088 239 395.804 239 391.789V268.012C239 263.997 242.284 260.713 246.299 260.713H876.42C880.435 260.713 883.719 263.997 883.719 268.012V391.791C883.719 395.804 880.435 399.088 876.42 399.088Z" fill="#613324"/>
<path d="M673.712 267.428H452.31V324.072H673.712V267.428Z" fill="#14130D"/>
<path d="M783.092 399.088H336.591V411.308H783.092V399.088Z" fill="#472717"/>
<path d="M673.712 329.896H452.31V386.541H673.712V329.896Z" fill="#14130D"/>
<path d="M673.712 324.074H452.31V329.9H673.712V324.074Z" fill="#613324"/>
<path d="M339.991 399.088H320.327L318.481 411.43L339.106 402.194L339.991 399.088Z" fill="#6D391D"/>
<path d="M318.481 409.812L305.032 484H310.858L339.106 402.193L318.481 409.812Z" fill="#7F4521"/>
<path d="M336.591 409.707L321.76 452.426H325.748L341.446 409.707H336.591Z" fill="#3A1E12"/>
<path d="M783.092 402.194H339.815L340.951 399.088H783.092V402.194Z" fill="#3A1E12"/>
<path d="M442.81 267.994H252.967V391.804H442.81V267.994Z" fill="#7F4521"/>
<path opacity="0.23" d="M428.6 316.588L427.386 317.437L424.98 344.099L436.079 342.84L437.824 339.57L428.6 316.588Z" fill="#3A1E12"/>
<path d="M437.826 316.588H428.6V339.57H437.826V316.588Z" fill="#202120"/>
<path d="M252.967 287.496H251.947V302.062H252.967V287.496Z" fill="#3A1E12"/>
<path d="M252.967 364.047H251.947V378.612H252.967V364.047Z" fill="#3A1E12"/>
<path d="M850.028 422.914L752.618 421.93" stroke="black"/>
<path d="M680.989 390.875L870.832 390.875L870.832 267.065L680.989 267.065L680.989 390.875Z" fill="#7F4521"/>
<path opacity="0.23" d="M695.199 315.656L696.414 316.506L698.82 343.167L687.721 341.909L685.975 338.639L695.199 315.656Z" fill="#3A1E12"/>
<path d="M685.974 338.637L695.2 338.637L695.2 315.654L685.974 315.654L685.974 338.637Z" fill="#202120"/>
<path d="M870.832 301.131L871.853 301.131L871.853 286.565L870.832 286.565L870.832 301.131Z" fill="#3A1E12"/>
<path d="M870.832 377.684L871.853 377.684L871.853 363.118L870.832 363.118L870.832 377.684Z" fill="#3A1E12"/>
<path d="M777.368 399.088H797.031L798.876 411.43L778.251 402.194L777.368 399.088Z" fill="#6D391D"/>
<path d="M878.864 260.711H242.398L276.541 240.885L832.319 242.774L878.864 260.711Z" fill="#715146"/>
<path opacity="0.2" d="M497.552 233.932L522.811 258.977L492.759 259.777L497.552 233.932Z" fill="#14130D"/>
<path d="M542.047 303.116L556.194 324.976H535.738L532.702 302.205L542.047 303.116Z" fill="#020201"/>
<path d="M538.507 312.629L476.747 312.59C476.295 312.59 475.854 312.609 475.422 312.639C477.029 314.045 478.047 316.152 478.045 318.509C478.044 320.868 477.023 322.975 475.415 324.38C475.847 324.408 476.287 324.43 476.74 324.43L538.5 324.469C542.816 324.472 546.803 322.947 546.804 321.061L546.807 316.048C546.809 314.165 542.823 312.632 538.507 312.629Z" fill="#EFEFEA"/>
<path d="M538.752 312.121L476.991 312.082C476.252 312.082 475.534 312.129 474.845 312.205C475.2 312.492 475.525 312.805 475.83 313.135C476.21 313.108 476.597 313.092 476.991 313.092L538.752 313.132C542.652 313.135 546.077 314.499 546.076 316.05L546.073 321.06C546.071 322.611 542.645 323.969 538.745 323.966L476.984 323.927C476.569 323.927 476.168 323.909 475.77 323.878C475.458 324.21 475.125 324.518 474.768 324.804C475.476 324.889 476.214 324.935 476.982 324.937L538.742 324.976C543.772 324.979 548.021 323.185 548.023 321.061L548.026 316.051C548.03 313.924 543.784 312.124 538.752 312.121Z" fill="#6A775B"/>
<g opacity="0.6">
<path opacity="0.6" d="M512.852 316.955L518.222 316.959L517.583 321.175L512.852 316.955Z" fill="#CECFD1"/>
</g>
<path d="M512.852 316.955L518.222 316.959L518.219 320.111L512.852 316.955Z" fill="#8E9398"/>
<g opacity="0.6">
<path opacity="0.6" d="M475.943 313.135L482.446 314.193C482.446 314.193 539.99 313.96 542.095 315.789C543.616 317.104 544.034 320.016 543.085 322.187C542.721 323.022 540.821 323.274 540.349 323.901C540.349 323.901 543.907 323.544 545.544 322.349C546.644 321.546 546.144 320.454 546.163 318.867C546.172 317.54 546.588 316.305 545.864 315.278C545.14 314.25 543.191 313.376 539.546 313.145L475.943 313.135Z" fill="#CECFD1"/>
</g>
<path d="M534.675 301.849L479.849 301.754C479.447 301.753 479.055 301.769 478.673 301.793C480.1 302.958 481.006 304.71 481.007 306.663C481.007 308.619 480.105 310.365 478.676 311.529C479.063 311.553 479.454 311.574 479.855 311.572L534.682 311.666C538.513 311.673 542.051 310.412 542.048 308.847V304.694C542.047 303.129 538.507 301.855 534.675 301.849Z" fill="#EFEFEA"/>
<path d="M534.894 301.432L480.065 301.336C479.406 301.335 478.769 301.374 478.159 301.434C478.473 301.672 478.765 301.934 479.032 302.209C479.371 302.187 479.714 302.171 480.065 302.171L534.896 302.267C538.358 302.275 541.397 303.409 541.397 304.695L541.399 308.848C541.4 310.133 538.36 311.254 534.897 311.249L480.07 311.154C479.699 311.154 479.341 311.138 478.993 311.116C478.72 311.386 478.42 311.64 478.104 311.88C478.734 311.953 479.39 311.991 480.068 311.991L534.897 312.086C539.362 312.094 543.132 310.613 543.132 308.851V304.698C543.13 302.934 539.357 301.44 534.894 301.432Z" fill="#6F7282"/>
<g opacity="0.6">
<path opacity="0.6" d="M511.904 305.418L516.672 305.425L516.104 308.917L511.904 305.418Z" fill="#CECFD1"/>
</g>
<path d="M511.904 305.418L516.672 305.425V308.037L511.904 305.418Z" fill="#8E9398"/>
<g opacity="0.6">
<path opacity="0.6" d="M479.13 302.209L484.905 303.089C484.905 303.089 535.991 302.953 537.863 304.469C539.215 305.564 539.586 307.978 538.747 309.775C538.425 310.468 536.741 310.671 536.322 311.195C536.322 311.195 539.481 310.902 540.932 309.914C541.906 309.251 541.459 308.343 541.475 307.026C541.484 305.931 541.852 304.905 541.211 304.053C540.564 303.202 538.837 302.472 535.599 302.278L479.13 302.209Z" fill="#CECFD1"/>
</g>
<path d="M492.758 260.768H294.717C290.703 260.768 287.418 257.483 287.418 253.469V240.119C287.418 236.105 290.703 232.82 294.717 232.82H492.759C496.773 232.82 500.058 236.105 500.058 240.119V253.469C500.056 257.483 496.772 260.768 492.758 260.768Z" fill="#1E241E"/>
<path d="M497.55 234.924L289.925 234.372L310.314 220.383H482.566L497.55 234.924Z" fill="#554233"/>
<path opacity="0.34" d="M449.391 225.48C449.391 230.855 408.652 236.742 358.4 236.742C308.146 236.742 267.408 230.855 267.408 225.48C267.408 220.105 308.147 215.748 358.4 215.748C408.653 215.748 449.391 220.105 449.391 225.48Z" fill="#1E241E"/>
<path d="M447.019 223.09C447.019 228.465 406.28 232.822 356.028 232.822C305.774 232.822 265.036 228.465 265.036 223.09C265.036 217.715 305.775 213.357 356.028 213.357C406.281 213.357 447.019 217.715 447.019 223.09Z" fill="#0E0F0E"/>
<path d="M385.344 223.09C385.344 224.231 372.218 225.158 356.027 225.158C339.836 225.158 326.711 224.233 326.711 223.09C326.711 221.947 339.837 221.021 356.027 221.021C372.219 221.021 385.344 221.947 385.344 223.09Z" fill="#E6E7DA"/>
<path d="M356.028 218.004C355.404 218.004 354.894 218.515 354.894 219.138V223.088H357.162V219.138C357.162 218.513 356.651 218.004 356.028 218.004Z" fill="#A6A49C"/>
<path d="M321.236 246.989C322.512 246.989 323.546 245.954 323.546 244.678C323.546 243.402 322.512 242.367 321.236 242.367C319.959 242.367 318.925 243.402 318.925 244.678C318.925 245.954 319.959 246.989 321.236 246.989Z" fill="#A6CBC5"/>
<path d="M342.037 246.989C343.314 246.989 344.348 245.954 344.348 244.678C344.348 243.402 343.314 242.367 342.037 242.367C340.761 242.367 339.727 243.402 339.727 244.678C339.727 245.954 340.761 246.989 342.037 246.989Z" fill="#A6CBC5"/>
<path d="M361.866 246.989C363.143 246.989 364.177 245.954 364.177 244.678C364.177 243.402 363.143 242.367 361.866 242.367C360.59 242.367 359.556 243.402 359.556 244.678C359.556 245.954 360.59 246.989 361.866 246.989Z" fill="#A6CBC5"/>
<path d="M458.214 205.653L463.06 212.065L464.193 210.54L459.855 205.197C459.309 205.291 458.761 205.428 458.214 205.653Z" fill="#554233"/>
<path d="M457.624 202.449L456.491 203.37L458.214 205.65C457.811 205.65 459.854 205.197 459.854 205.197L457.624 202.449Z" fill="#30251E"/>
<path d="M461.072 195.977H443.19V202.91H461.072V195.977Z" fill="#1E241E"/>
<path d="M457.058 202.91H449.759V224.442H457.058V202.91Z" fill="#1E241E"/>
<path d="M500.608 209.938H463.06V212.066H500.608V209.938Z" fill="#554233"/>
<path d="M500.607 209.223H491.705V212.78H500.607V209.223Z" fill="#554233"/>
<path d="M457.058 202.91H449.759V204.32H457.058V202.91Z" fill="#0E110E"/>
<path d="M491.707 209.936H491.015V212.064H491.707V209.936Z" fill="#30251E"/>
<path opacity="0.2" d="M806.608 255.825C796.934 255.825 789.091 254.518 789.091 252.906C789.091 251.293 796.934 249.986 806.608 249.986C816.283 249.986 824.125 251.293 824.125 252.906C824.125 254.518 816.283 255.825 806.608 255.825Z" fill="#14130D"/>
<path d="M808.256 248.069C807.704 248.173 807.938 249.011 808.487 248.907C811.345 248.373 813.964 247.734 816.299 246.724C816.345 246.475 816.377 246.233 816.399 245.998C813.837 247.094 810.954 247.563 808.256 248.069Z" fill="#EFE9E6"/>
<path d="M816.57 236.529C816.082 236.807 816.52 237.559 817.012 237.283C818.01 236.716 819.072 236.249 820.168 235.894C820.393 235.557 820.617 235.227 820.841 234.9C819.228 235.284 817.562 235.969 816.57 236.529Z" fill="#EFE9E6"/>
<path d="M820.839 234.9C820.616 235.226 820.391 235.557 820.166 235.895C820.991 235.629 821.83 235.419 822.693 235.318C826.982 234.811 821.303 242.434 820.482 243.281C819.302 244.495 817.907 245.352 816.4 245.998C816.38 246.233 816.347 246.475 816.301 246.723C819.847 245.189 822.727 242.786 824.724 238.516C826.596 234.505 823.804 234.191 820.839 234.9Z" fill="#FEFFF8"/>
<path d="M812.405 233.928H780.594C780.819 244.045 789.135 252.184 799.382 252.184C800.668 252.184 801.927 252.055 803.144 251.807C808.179 247.398 811.09 240.73 812.405 233.928Z" fill="#FEFFF8"/>
<path d="M818.168 233.928H812.405C811.09 240.73 808.179 247.398 803.143 251.808C811.59 250.103 817.971 242.772 818.168 233.928Z" fill="#FDF6F1"/>
<path d="M777.413 250.041C777.676 252.419 787.369 254.328 799.311 254.328C811.255 254.328 820.951 252.419 821.21 250.041H777.413Z" fill="#EFE9E6"/>
<path opacity="0.2" d="M732.222 255.406C720.095 255.406 710.264 254.194 710.264 252.698C710.264 251.203 720.095 249.99 732.222 249.99C744.35 249.99 754.181 251.203 754.181 252.698C754.181 254.194 744.35 255.406 732.222 255.406Z" fill="#14130D"/>
<path d="M753.04 231.442C748.354 232.054 745.184 232.019 745.184 232.019L741.712 244.204C741.712 244.204 743.225 244.531 745.394 244.644L753.626 231.283C753.434 231.347 753.246 231.416 753.04 231.442Z" fill="#EFE9E6"/>
<path d="M769.546 213.185C769.546 213.185 763.863 210.091 761.351 215.184C758.949 220.055 757.817 229.898 753.626 231.286L745.394 244.648C749.795 244.88 756.938 244.217 759.914 238.049C764.356 228.843 761.355 216.081 768.388 216.081L769.546 213.185Z" fill="#FEFFF8"/>
<path d="M769.161 214.715C768.829 215.521 768.46 216.133 768.337 216.082C768.215 216.031 768.383 215.337 768.716 214.531C769.048 213.726 769.416 213.114 769.539 213.165C769.661 213.216 769.492 213.91 769.161 214.715Z" fill="#C6AC91"/>
<path d="M697.216 221.069L698.996 217.54C698.845 217.375 696.488 214.804 693.441 213.062C693.307 213.823 693.103 214.582 692.841 215.343C695.332 217.703 697.183 221.034 697.216 221.069Z" fill="#EFE9E6"/>
<path d="M702.61 248.842C704.165 247.977 704.486 246.181 704.499 246.104L702.295 244.648C702.293 244.66 702.25 246.11 701.708 246.924C701.641 247.025 701.534 247.095 701.438 247.175C701.759 247.818 702.082 248.385 702.403 248.923C702.471 248.892 702.544 248.879 702.61 248.842Z" fill="#EFE9E6"/>
<path d="M701.439 247.174C700.921 247.604 700.038 247.724 699.035 247.315C696.749 246.384 696.482 244.726 696.113 242.429C695.8 240.482 695.445 238.273 693.632 236.311C693.095 235.732 692.373 235.037 691.551 234.247C686.842 229.728 678.962 222.162 684.61 214.973C685.594 213.72 686.76 213.087 688.174 213.037C688.234 213.034 688.296 213.034 688.355 213.034C689.916 213.034 691.473 214.043 692.841 215.341C693.101 214.58 693.305 213.821 693.441 213.06C691.859 212.155 690.095 211.471 688.351 211.471C688.275 211.471 688.198 211.472 688.123 211.474C686.246 211.539 684.651 212.39 683.382 214.008C676.86 222.309 685.713 230.81 690.471 235.376C691.266 236.139 691.965 236.811 692.487 237.374C693.978 238.987 694.281 240.863 694.571 242.678C694.952 245.048 695.346 247.499 698.447 248.762C699.305 249.111 700.095 249.286 700.813 249.286C701.397 249.286 701.922 249.152 702.406 248.921C702.083 248.384 701.76 247.817 701.439 247.174Z" fill="#FEFFF8"/>
<path d="M705.404 249.951C706.553 251.287 707.836 252.336 709.239 252.777C712.835 253.903 718.746 253.913 721.074 253.865C721.171 253.398 721.26 252.929 721.35 252.462C715.904 252.62 710.371 251.642 705.404 249.951Z" fill="#EFE9E6"/>
<path d="M723.995 217.995C723.397 217.999 722.795 218.002 722.19 218.002C711.674 218.002 702.251 217.284 695.845 216.148C694.618 223.347 698.347 237.551 699.171 238.756C699.883 239.797 702.081 246.087 705.404 249.952C710.371 251.644 715.904 252.621 721.352 252.462C723.549 241.14 724.267 229.46 723.995 217.995Z" fill="#FEFFF8"/>
<path d="M721.352 252.46C721.262 252.929 721.173 253.396 721.076 253.863C721.697 253.851 722.066 253.835 722.066 253.835C722.066 253.835 730.337 254.202 734.891 252.775C738.709 251.58 741.638 245.893 743.386 242.096C737.833 249.278 729.7 252.212 721.352 252.46Z" fill="#EFE9E6"/>
<path d="M748.293 216.189C742.267 217.235 733.65 217.916 723.995 217.992C724.268 229.459 723.549 241.138 721.352 252.459C729.7 252.211 737.832 249.276 743.385 242.094C744.137 240.459 744.671 239.173 744.959 238.753C745.781 237.553 749.497 223.402 748.293 216.189Z" fill="#FDF6F1"/>
<path d="M747.192 213.232C745.458 210.798 741.352 208.983 737.567 207.757C733.505 206.44 729.812 205.801 729.812 205.801H722.02H714.229C714.229 205.801 710.488 206.449 706.395 207.783C702.632 209.009 698.572 210.815 696.849 213.232C696.34 213.949 696.006 214.955 695.801 216.146C702.207 217.282 711.629 218 722.146 218C732.529 218 741.848 217.299 748.249 216.188C748.045 214.978 747.709 213.958 747.192 213.232Z" fill="#FEFFF8"/>
<path d="M731.236 203.275H712.896V206.36H731.236V203.275Z" fill="#FEFFF8"/>
<path d="M712.895 206.062L731.236 206.081C731.236 206.081 732.367 206.309 733.822 206.683C736.186 207.289 739.387 208.201 739.867 208.57C741.292 209.662 711.7 206.327 711.7 206.327L712.895 206.062Z" fill="#FDF6F1"/>
<path d="M731.484 206.062L713.143 206.081C713.143 206.081 712.012 206.309 710.557 206.683C708.193 207.289 704.992 208.201 704.512 208.57C703.087 209.662 732.679 206.327 732.679 206.327L731.484 206.062Z" fill="#FDF6F1"/>
<path opacity="0.2" d="M618.299 255.825C644.098 255.825 665.012 254.518 665.012 252.906C665.012 251.293 644.098 249.986 618.299 249.986C592.501 249.986 571.587 251.293 571.587 252.906C571.587 254.518 592.501 255.825 618.299 255.825Z" fill="#14130D"/>
<path d="M580.102 178.293L580.642 178.2C578.655 166.662 562.58 145.161 546.527 140.456C530.784 135.842 515.922 133.341 515.775 133.316L515.684 133.858C515.833 133.883 530.664 136.378 546.373 140.982C561.967 145.555 578.182 167.152 580.102 178.293Z" fill="#2C3D33"/>
<path d="M534 137.69L534.068 137.145C533.159 137.033 511.775 134.418 505.472 137.167L505.691 137.669C511.858 134.977 533.779 137.66 534 137.69Z" fill="#2C3D33"/>
<path d="M585.137 176.487C585.137 176.487 582.827 171.322 589.767 167.419C596.708 163.514 591.515 173.443 590.096 174.974C588.68 176.504 585.137 176.487 585.137 176.487Z" fill="#2E3231"/>
<path d="M521.447 174.601C521.633 174.309 540.204 145.457 559.833 148.807L559.925 148.267C539.942 144.86 521.171 174.013 520.984 174.308L521.447 174.601Z" fill="#2C3D33"/>
<path d="M534.283 176.491C534.395 176.244 545.824 151.92 565.214 153.529L565.261 152.981C545.51 151.335 533.9 176.01 533.785 176.26L534.283 176.491Z" fill="#2C3D33"/>
<path d="M584.149 177.858C585.499 162.091 582.009 133.065 575.162 127.071C568.665 121.384 550.942 102.861 550.764 102.676L550.368 103.055C550.545 103.241 568.284 121.783 574.8 127.484C580.966 132.883 585.051 160.865 583.601 177.813L584.149 177.858Z" fill="#2C3D33"/>
<path d="M590.425 178.3C594.018 159.559 602.477 148.896 617.859 143.724C632.988 138.636 647.304 157.968 647.45 158.164L647.892 157.839C647.747 157.641 633.202 137.984 617.682 143.204C602.092 148.447 593.52 159.239 589.888 178.197L590.425 178.3Z" fill="#2C3D33"/>
<path d="M585.363 179.412L585.701 179.149L585.611 178.917L585.421 179.005L585.529 178.87C585.513 178.849 583.916 176.503 589.506 159.183C594.901 142.454 647.305 103.478 647.835 103.085L647.509 102.645C647.376 102.742 634.106 112.593 620.337 124.395C601.823 140.266 591.273 151.912 588.983 159.013C584.195 173.858 584.411 178.773 585.192 179.298L585.363 179.412Z" fill="#2C3D33"/>
<path d="M587.034 178.325C588.693 172.836 595.675 156.341 602.325 149.969C605.852 146.59 610.993 141.907 616.438 136.947C621.117 132.686 625.955 128.279 630.027 124.461C638.679 116.349 654.232 107.582 654.388 107.493L654.119 107.016C653.963 107.103 638.355 115.904 629.652 124.061C625.582 127.877 620.745 132.283 616.068 136.542C610.623 141.503 605.478 146.188 601.946 149.574C595.224 156.018 588.18 172.639 586.512 178.167L587.034 178.325Z" fill="#2C3D33"/>
<path d="M583.427 169.828C584.459 161.868 588.226 64.3573 588.262 63.3735L587.715 63.3516C587.675 64.3354 583.91 161.823 582.88 169.757L583.427 169.828Z" fill="#2C3D33"/>
<path d="M586.91 97.3935C587.086 93.1689 584.661 88.8874 579.904 85.0103C576.334 82.101 572.662 80.412 572.624 80.3945L572.396 80.8938C572.541 80.958 586.767 87.5634 586.362 97.3716L586.91 97.3935Z" fill="#2C3D33"/>
<path d="M587.736 79.2897C588.065 73.4346 592.545 68.5371 592.59 68.4889L592.189 68.1152C591.999 68.3196 587.529 73.2025 587.189 79.2591L587.736 79.2897Z" fill="#2C3D33"/>
<path d="M581.36 178.706L581.902 178.62C580.192 167.746 583.532 144.869 589.504 126.538C595.588 107.865 626.695 79.7588 627.007 79.4771L626.642 79.0684C626.327 79.3501 595.113 107.557 588.984 126.368C582.986 144.771 579.638 167.759 581.36 178.706Z" fill="#2C3D33"/>
<path d="M584.545 178.276L585.091 178.212C582.258 154.155 593.79 134.79 603.964 122.783C615 109.761 626.849 102.347 626.967 102.272L626.678 101.807C626.56 101.881 614.637 109.342 603.547 122.429C593.301 134.52 581.69 154.024 584.545 178.276Z" fill="#2C3D33"/>
<path d="M584.769 171.5C584.769 171.5 577.973 169.913 575.632 164.449C573.29 158.988 579.293 153.752 579.293 153.752C579.293 153.752 585.894 163.151 585.64 166.865C585.386 170.579 584.769 171.5 584.769 171.5Z" fill="#649172"/>
<path d="M592.116 177.908C597.305 159.362 612.16 146.548 621.037 138.89C630.783 130.482 662.053 144.393 662.368 144.535L662.592 144.034C662.514 143.999 654.559 140.443 645.485 137.988C633.242 134.673 624.893 134.839 620.676 138.475C611.751 146.173 596.818 159.057 591.583 177.761L592.116 177.908Z" fill="#2C3D33"/>
<path d="M582.321 178.785L582.813 178.543C582.614 178.057 582.905 173.185 583.239 167.548C584.026 154.331 585.214 134.357 583.423 125.578C580.793 112.691 571.739 97.396 571.647 97.2441L571.176 97.5259C571.268 97.6777 580.273 112.893 582.885 125.688C584.663 134.398 583.43 155.128 582.692 167.516C582.251 174.956 582.066 178.267 582.321 178.785Z" fill="#2C3D33"/>
<path d="M522.317 173.161C522.513 172.826 517.507 173.527 515.315 178.464C513.121 183.401 513.121 183.401 513.121 183.401C513.121 183.401 519.884 182.854 521.53 179.562C523.175 176.27 521.457 174.623 522.317 173.161Z" fill="#809B89"/>
<path d="M551.971 155.972C552.024 155.652 548.329 157.686 548.084 162.188C547.84 166.69 547.84 166.69 547.84 166.69C547.84 166.69 552.952 164.253 553.257 161.195C553.564 158.141 551.734 157.366 551.971 155.972Z" fill="#79897F"/>
<path d="M581.899 121.854C582.174 122.025 581.686 117.836 577.609 115.91C573.532 113.986 573.532 113.986 573.532 113.986C573.532 113.986 573.86 119.641 576.575 121.075C579.29 122.513 580.696 121.11 581.899 121.854Z" fill="#2E2F29"/>
<path d="M516.616 133.678C516.616 133.678 516.614 122.157 506.464 125.449C496.315 128.741 508.02 133.313 509.848 134.501C511.677 135.691 516.616 133.678 516.616 133.678Z" fill="#79897F"/>
<path d="M506.282 137.143C506.282 137.143 499.516 135.962 497.87 140.535C496.224 145.106 497.87 147.986 497.87 147.986C497.87 147.986 506.831 149.129 507.471 145.653C508.111 142.18 506.282 139.42 506.282 137.143Z" fill="#465947"/>
<path d="M535.781 157.19C535.781 157.19 533.902 159.188 530.977 160.296C528.053 161.405 524.094 155.623 522.109 153.565C520.123 151.507 529.174 150.009 531.947 151.264C534.721 152.518 534.664 154.118 535.781 157.19Z" fill="#77837A"/>
<path d="M646.168 103.986C646.168 103.986 650.282 97.9517 655.95 98.3167C661.62 98.6846 653.208 106.182 646.168 103.986Z" fill="#809B89"/>
<path d="M651.092 109.154C651.092 109.154 654.242 104.994 658.916 106.259C663.589 107.525 657.331 111.59 651.092 109.154Z" fill="#5A5858"/>
<path d="M642.459 107.254C642.459 107.254 648.858 108.077 650.87 112.649C652.88 117.22 651.992 119.415 651.992 119.415C651.992 119.415 643.373 116.582 642.459 112.467C641.821 109.606 642.459 107.254 642.459 107.254Z" fill="#649172"/>
<path d="M630.414 116.473C630.414 116.473 634.336 114.219 637.336 114.541C640.336 114.864 643.371 116.759 644.231 117.944C645.092 119.129 638.125 121.725 635.516 121.278C632.907 120.83 630.414 116.473 630.414 116.473Z" fill="#809B89"/>
<path d="M586.823 168.166C586.823 168.166 587.21 163.66 589.188 161.38C591.164 159.101 594.451 157.691 595.916 157.66C597.38 157.63 595.536 164.831 593.681 166.72C591.824 168.607 586.823 168.166 586.823 168.166Z" fill="#79897F"/>
<path d="M646.168 155.315C646.168 155.315 646.847 146.297 659.157 152.355C664.408 154.939 647.42 160.624 646.168 155.315Z" fill="#444D43"/>
<path d="M589.006 157.43C589.006 157.43 582.554 151.094 595.123 145.592C600.485 143.247 593.873 159.897 589.006 157.43Z" fill="#444D43"/>
<path d="M555.391 108.26C555.391 108.26 549.173 111.363 548.624 116.484C548.075 121.603 553.746 114.477 555.391 108.26Z" fill="#39423D"/>
<path d="M638.377 109.754C638.377 109.754 643.577 105.142 642.777 100.057C641.978 94.9692 638.354 103.322 638.377 109.754Z" fill="#39423D"/>
<path d="M551.953 104.42C552.117 104.542 551.927 97.4684 546.653 95.5502C543.634 94.454 547.839 100.213 548.663 101.219C549.485 102.226 551.223 103.872 551.953 104.42Z" fill="#252525"/>
<path d="M573.878 81.7441C573.878 81.7441 568.574 85.8592 568.666 87.9613C568.757 90.0648 568.665 91.5275 568.665 91.5275C568.665 91.5275 565.466 89.4239 566.837 85.7658C568.208 82.1105 570.311 81.7441 573.878 81.7441Z" fill="#252525"/>
<path d="M552.394 104.602C552.394 104.602 548.432 107.676 548.499 109.248C548.567 110.82 548.499 111.914 548.499 111.914C548.499 111.914 546.108 110.341 547.132 107.609C548.156 104.875 549.73 104.602 552.394 104.602Z" fill="#3E463C"/>
<path d="M572.719 80.6458C572.719 80.6458 567.506 78.5423 563.94 80.6458C560.375 82.7494 559.369 85.2178 559.369 85.2178C559.369 85.2178 566.227 84.304 567.599 83.0238C568.97 81.7436 572.719 80.6458 572.719 80.6458Z" fill="#649172"/>
<path d="M574.069 81.4304C574.069 81.4304 575.981 79.4626 574.882 75.0819C573.784 70.7026 571.681 69.1406 571.681 69.1406C571.681 69.1406 568.618 76.4934 569.612 78.0948C570.603 79.6962 570.897 80.2874 574.069 81.4304Z" fill="#809B89"/>
<path d="M555.454 107.97C555.454 107.97 554.404 104.224 553.337 102.6C552.269 100.976 550.171 96.1152 550.171 96.1152C550.171 96.1152 554.194 97.7341 556.457 100.724C558.722 103.713 557.63 105.83 555.454 107.97Z" fill="#3B3F3C"/>
<path d="M546.987 150.585C546.987 150.585 543.239 149.547 541.296 149.623C539.353 149.698 534.109 148.981 534.109 148.981C534.109 148.981 537.575 146.374 541.303 145.983C545.031 145.588 546.279 147.616 546.987 150.585Z" fill="#3B3F3C"/>
<path d="M638.132 136.303C638.132 136.303 640.4 139.463 641.961 140.624C643.521 141.784 647.155 145.634 647.155 145.634C647.155 145.634 642.821 145.488 639.672 143.453C636.52 141.419 636.821 139.059 638.132 136.303Z" fill="#3B3F3C"/>
<path d="M622.311 103.852C622.311 103.852 624.09 100.751 624.469 99.0041C624.844 97.2583 626.683 92.752 626.683 92.752C626.683 92.752 628.21 96.432 627.708 99.842C627.204 103.252 625.117 103.9 622.311 103.852Z" fill="#465947"/>
<path d="M572.166 99.2796C572.593 99.4606 574.36 95.4331 569.974 92.3253C565.584 89.2174 568.476 96.2579 568.476 96.2579C568.476 96.2579 568.511 97.7308 572.166 99.2796Z" fill="#3B3F3C"/>
<path d="M576.191 106.431C576.074 106.189 574.174 101.628 570.187 100.92C566.201 100.214 565.195 102.041 565.195 102.041C565.195 102.041 568.215 106.431 571.46 107.253C574.704 108.076 576.191 106.431 576.191 106.431Z" fill="#649172"/>
<path d="M580.098 117.016C580.098 117.016 587.9 110.764 583.442 100.878C581.645 96.8976 578.961 105.846 578.601 107.782C578.105 110.456 578.825 115.064 580.098 117.016Z" fill="#79897F"/>
<path d="M598.94 156.407C598.94 156.407 607.706 154.168 605.861 144.863C605.115 141.117 600.501 147.232 599.711 148.631C598.617 150.562 598.207 154.433 598.94 156.407Z" fill="#77837A"/>
<path d="M593.291 136.4C593.291 136.4 601.092 130.148 596.632 120.261C594.837 116.281 592.151 125.23 591.792 127.164C591.295 129.838 592.017 134.448 593.291 136.4Z" fill="#649172"/>
<path d="M550.815 143.018C550.815 143.018 556.394 130.117 543.219 128.889C535.684 128.188 534.886 130.521 534.886 130.521C534.886 130.521 533.426 134.439 550.815 143.018Z" fill="#649172"/>
<path d="M547.993 141.442C547.993 141.442 541.58 146.113 536.623 146.249C531.666 146.385 529.183 140.788 529.183 140.788C529.183 140.788 538.524 136.908 547.993 141.442Z" fill="#809B89"/>
<path d="M521.739 136.381C521.739 136.381 523.939 141.838 520.876 144.788C517.812 147.74 513.558 146.468 513.558 146.468C513.558 146.468 511.488 140.117 514.901 137.732C518.314 135.346 519.657 135.737 521.739 136.381Z" fill="#809B89"/>
<path d="M534.471 172.356C534.471 172.356 527.889 175.668 526.335 179.544C524.78 183.419 533.467 180.641 535.661 175.95C537.855 171.258 534.471 172.356 534.471 172.356Z" fill="#515D54"/>
<path d="M547.094 159.086C547.094 159.086 538.196 157.102 535.639 158.93C533.083 160.758 530.08 163.305 530.08 163.305C530.08 163.305 536.213 165.715 539.834 163.616C543.456 161.518 545.567 158.745 547.094 159.086Z" fill="#809B89"/>
<path d="M645.407 138.248C645.407 138.248 649.725 146.065 655.626 147.576C661.522 149.084 660.161 141.362 645.407 138.248Z" fill="#515D54"/>
<path d="M558.937 147.546C558.937 147.546 559.68 138.646 555.611 134.119C551.54 129.591 548.388 136.77 558.937 147.546Z" fill="#2E2F29"/>
<path d="M595.426 163.099C595.426 163.099 604.325 162.333 608.101 157.558C611.879 152.783 604.271 150.885 595.426 163.099Z" fill="#515D54"/>
<path d="M630.643 143.809C630.643 143.809 636.013 150.884 635.786 156.83C635.56 162.775 635.675 166.774 635.218 166.074C634.76 165.377 625.235 156.695 626.863 151.551C628.493 146.406 630.643 143.809 630.643 143.809Z" fill="#424539"/>
<path d="M586.14 112.392C586.14 112.392 585.908 105.641 588.653 102.045C591.402 98.4485 593.085 95.9158 593.063 96.5508C593.04 97.1829 595.152 106.756 591.885 109.239C588.617 111.721 586.14 112.392 586.14 112.392Z" fill="#809B89"/>
<path d="M563.579 153.844C563.579 153.844 562.309 160.874 558.662 163.977C555.017 167.079 552.711 169.322 552.876 168.669C553.039 168.02 552.999 157.652 556.933 155.816C560.868 153.982 563.579 153.844 563.579 153.844Z" fill="#79897F"/>
<path d="M606.62 151.549C606.62 151.549 612.793 148.291 618.142 150.881C623.491 153.47 622.394 161.356 622.394 161.356C622.394 161.356 611.246 158.59 609.002 155.618C606.757 152.647 606.62 151.549 606.62 151.549Z" fill="#383F3F"/>
<path d="M580.369 138.462C580.369 138.462 573.768 140.722 568.885 137.334C564.004 133.946 566.313 126.324 566.313 126.324C566.313 126.324 576.896 130.79 578.652 134.073C580.407 137.356 580.369 138.462 580.369 138.462Z" fill="#79897F"/>
<path d="M647.779 157.953C647.779 157.953 651.205 159.735 654.361 165.633C657.517 171.53 649.287 164.398 647.779 162.204C646.269 160.01 647.779 157.953 647.779 157.953Z" fill="#383F3F"/>
<path d="M640.382 149.855C640.382 149.855 646.539 156.716 646.956 162.285C647.377 167.853 643.536 169.794 643.536 169.794C643.536 169.794 637.501 158.253 637.364 155.099C637.227 151.943 640.382 149.855 640.382 149.855Z" fill="#649172"/>
<path d="M638.471 122.607C638.471 122.607 642.597 122.888 645.407 126.866C648.217 130.843 647.108 134.875 647.108 134.875C647.108 134.875 643.339 133.996 640.568 130.706C637.795 127.414 638.471 122.607 638.471 122.607Z" fill="#3E463C"/>
<path d="M614.993 90.5123C614.993 90.5123 623.464 89.4219 628.63 91.1896C633.796 92.9574 622.717 95.7003 619.298 95.2814C615.881 94.8639 614.993 90.5123 614.993 90.5123Z" fill="#3E463C"/>
<path d="M622.194 83.895C622.194 83.895 629.194 82.0659 633.649 83.895C638.103 85.7226 633.03 89.9296 628.092 88.7866C623.155 87.6436 622.88 84.8088 622.194 83.895Z" fill="#77837A"/>
<path d="M563.731 116.57C563.731 116.57 559.368 113.05 558.455 109.433C557.541 105.814 562.502 107.039 564.064 110.642C565.623 114.246 563.986 115.722 563.731 116.57Z" fill="#77837A"/>
<path d="M617.379 87.6655C617.379 87.6655 620.279 84.8861 617.379 80.2236C614.481 75.5597 613.011 81.1155 617.379 87.6655Z" fill="#3E463C"/>
<path d="M601.784 106.008C601.784 106.008 605.905 100.882 606.176 94.3251C606.448 87.7679 602.607 86.0293 602.607 86.0293C602.607 86.0293 596.982 91.1954 597.12 97.23C597.258 103.266 601.784 106.008 601.784 106.008Z" fill="#649172"/>
<path d="M616.015 95.0723C616.015 95.0723 619.824 99.2778 618.314 104.412C616.805 109.547 613.944 112.131 613.944 112.131C613.944 112.131 608.145 105.063 609.356 100.152C610.566 95.2445 616.015 95.0723 616.015 95.0723Z" fill="#77837A"/>
<path d="M625.06 138.84C625.06 138.84 623.717 144.355 618.621 145.985C613.523 147.617 609.78 146.7 609.78 146.7C609.78 146.7 612.376 137.934 617.117 136.18C621.86 134.425 625.06 138.84 625.06 138.84Z" fill="#77837A"/>
<path d="M613.018 112.673C613.275 113.163 619.683 109.899 624.934 119.472C626.169 121.723 618.089 120.433 615.272 118.102C612.452 115.769 613.018 112.673 613.018 112.673Z" fill="#809B89"/>
<path d="M605.259 120.695C605.259 120.695 600.165 115.418 607.522 111.141C614.882 106.864 612.287 117.263 605.259 120.695Z" fill="#2E3231"/>
<path d="M623.858 124.857C623.858 124.857 629.462 125.633 629.103 133.587C628.743 141.541 623.066 131.88 622.52 129.867C621.968 127.854 623.858 124.857 623.858 124.857Z" fill="#2E3231"/>
<path d="M658.887 143.232C658.887 143.232 661.768 140.835 666.841 142.809C671.914 144.782 664.784 147.718 658.887 143.232Z" fill="#2E3231"/>
<path d="M570.187 123.1C570.187 123.1 563.758 115.246 557.09 116.58C550.419 117.913 553.686 119.036 553.686 119.036C553.686 119.036 559.259 125.866 563.783 124.857C568.311 123.849 570.187 123.1 570.187 123.1Z" fill="#465947"/>
<path d="M589.031 144.98C589.031 144.98 599.174 144.669 602.181 138.569C605.188 132.468 602.308 134.373 602.308 134.373C602.308 134.373 593.498 134.63 591.541 138.833C589.582 143.037 589.031 144.98 589.031 144.98Z" fill="#465947"/>
<path d="M624.021 104.076C624.021 104.076 629.35 102.518 633.464 104.85C637.577 107.182 634.57 109.516 628.649 107.914C625.784 107.139 625.784 105.663 624.021 104.076Z" fill="#3E463C"/>
<path d="M587.462 76.2563C587.462 76.2563 586.631 69.81 582.448 65.6964C578.267 61.5813 577.854 63.3651 577.854 63.3651C577.854 63.3651 577.039 69.3998 580.394 72.2785C583.754 75.1586 585.411 75.5702 587.462 76.2563Z" fill="#77837A"/>
<path d="M588.173 64.1695C588.173 64.1695 590.108 56.2021 590.108 51.1133C590.108 47.6844 584.379 52.8957 584.364 57.0108C584.351 61.1244 587.193 62.825 588.173 64.1695Z" fill="#3E463C"/>
<path d="M591.133 69.6457C591.133 69.6457 596.285 72.6076 602.284 69.6457C608.285 66.6839 594.005 63.4198 591.133 69.6457Z" fill="#5A5858"/>
<path d="M587.989 76.8595C587.989 76.8595 591.83 79.7294 595.122 80.1863C598.413 80.6432 593.612 73.7604 587.989 76.8595Z" fill="#3E463C"/>
<path d="M625.814 80.0474C625.814 80.0474 629.246 76.1133 634.011 77.3468C638.774 78.5818 633.29 82.748 625.814 80.0474Z" fill="#3E463C"/>
<path d="M529.54 136.967C529.54 136.967 532.461 142.831 525.463 149.569C521.088 153.782 521.898 144.539 523.133 141.705C524.367 138.87 526.111 137.241 529.54 136.967Z" fill="#3E463C"/>
<path d="M573.003 162.627C573.003 162.627 579.562 156.822 579.634 150.26C579.702 143.7 572.297 149.469 571.472 154.883C570.65 160.296 570.923 159.2 572.433 162.627" fill="#3E463C"/>
<path d="M594.174 171.498C593.761 171.244 598.133 165.072 608.223 164.935C618.313 164.798 610.414 174.475 601.854 173.713C594.148 173.027 594.174 171.498 594.174 171.498Z" fill="#649172"/>
<path d="M575.324 166.702C575.324 166.702 569.837 172.912 560.375 172.227C550.913 171.543 563.391 160.902 575.324 166.702Z" fill="#3E463C"/>
<path d="M528.79 164.711C528.79 164.711 524.226 170.978 520.438 170.651C516.655 170.326 510.848 164.603 510.848 164.603C510.848 164.603 516.551 160.37 521.847 162.034C527.144 163.701 528.79 164.711 528.79 164.711Z" fill="#649172"/>
<path d="M576.507 168.63C576.667 168.125 570.798 173.999 565.901 175.233C561.008 176.468 558.222 177.763 558.222 177.763C558.222 177.763 567.687 180.856 570.725 176.879C573.762 172.903 575.682 171.216 576.507 168.63Z" fill="#809B89"/>
<path d="M602.26 124.454C602.26 124.454 606.203 121.666 611.985 122.942C617.765 124.219 618.269 127.597 618.269 127.597C618.269 127.597 609.505 129.693 606.347 128.369C603.191 127.044 602.26 124.454 602.26 124.454Z" fill="#3E463C"/>
<path d="M565.348 152.477C565.348 152.477 558.433 150.575 564.951 141.524C570.489 133.836 571.108 143.863 569.307 148.663C567.506 153.462 565.348 152.477 565.348 152.477Z" fill="#649172"/>
<path d="M586.807 126.012C586.807 126.012 581.375 124.519 586.494 117.41C590.844 111.372 591.329 119.245 589.915 123.017C588.502 126.788 586.807 126.012 586.807 126.012Z" fill="#48584B"/>
<path d="M602.303 175.83L610.716 233.434L602.969 233.402L598.831 175.83H602.303Z" fill="#C6C6C6"/>
<path d="M594.622 175.83L596.269 233.434H591.33L590.418 175.83H594.622Z" fill="#CECECE"/>
<path d="M582.554 233.434H577.067L579.811 175.83H583.354L582.554 233.434Z" fill="#DBDBDB"/>
<path d="M575.608 175.736H571.948L562.623 233.433H569.113L575.608 175.736Z" fill="#E2E2E2"/>
<path d="M595.219 253L602.969 233.402L610.716 233.434L600.295 253H595.219Z" fill="#B5B5B5"/>
<path d="M575.607 253.001H571.767L562.623 233.436H569.113L575.607 253.001Z" fill="#C6C6C6"/>
<path d="M596.269 233.436L590.83 253.001H587.469L591.33 233.436H596.269Z" fill="#B5B5B5"/>
<path d="M582.554 233.436H577.067L579.81 253H582.553C582.554 253 582.735 232.458 582.554 233.436Z" fill="#C1C1C1"/>
<path d="M602.969 233.402L596.269 233.434L594.622 175.83H598.831L602.969 233.402Z" fill="#E2E2E2"/>
<path d="M569.113 233.434H577.067L579.851 175.83H575.645L569.113 233.434Z" fill="#EFEFEF"/>
<path d="M590.418 175.83L591.33 233.434L582.554 233.435L583.354 175.83H590.418Z" fill="#E2E2E2"/>
<path d="M596.269 233.434L602.969 233.402L595.219 253H590.83L596.269 233.434Z" fill="#BCBCBC"/>
<path d="M591.33 233.436L582.554 233.437V253.001H587.469L591.33 233.436Z" fill="#CECECE"/>
<path d="M577.067 233.436H569.113L575.607 253.001H579.811L577.067 233.436Z" fill="#CECECE"/>
<rect x="850.028" y="463.613" width="15.7431" height="115.121" rx="2" transform="rotate(90 850.028 463.613)" fill="#88B0FF"/>
<rect x="825.429" y="434.096" width="29.5183" height="90.5227" rx="2" transform="rotate(90 825.429 434.096)" fill="#246135"/>
<path d="M848.025 398.319C849.131 398.317 850.028 399.213 850.028 400.319L850.028 432.094C850.028 433.199 849.132 434.094 848.028 434.094L736.907 434.094C735.802 434.094 734.907 433.199 734.907 432.094L734.907 400.449C734.907 399.345 735.801 398.45 736.904 398.449L848.025 398.319Z" fill="#D7431A"/>
<path d="M850.028 406.187L850.028 425.866L744.778 425.866C743.674 425.866 742.778 424.971 742.778 423.866L742.778 408.188C742.778 407.083 743.674 406.188 744.778 406.188L850.028 406.187Z" fill="white"/>
</svg>
