<svg width="375" height="594" viewBox="0 0 375 594" fill="none" xmlns="http://www.w3.org/2000/svg">
<path d="M715.301 526.464V-124H-230.422L331.924 526.464H715.301Z" fill="#F0EAD4"/>
<path d="M461.779 564.18H-63L-45.2931 489H440.047L461.779 564.18Z" fill="#D4D2CC"/>
<path d="M656 593.904H-63V564H656V593.904Z" fill="#D4D2CC"/>
<path d="M347.911 495.392H27.709C25.669 495.392 24 493.723 24 491.683V428.784C24 426.744 25.669 425.075 27.709 425.075H347.911C349.951 425.075 351.62 426.744 351.62 428.784V491.684C351.62 493.723 349.951 495.392 347.911 495.392Z" fill="#613324"/>
<path d="M244.903 428.488H132.395V457.273H244.903V428.488Z" fill="#14130D"/>
<path d="M300.486 495.392H73.5918V501.602H300.486V495.392Z" fill="#472717"/>
<path d="M244.903 460.233H132.395V489.017H244.903V460.233Z" fill="#14130D"/>
<path d="M244.903 457.272H132.395V460.233H244.903V457.272Z" fill="#613324"/>
<path d="M75.3195 495.392H65.3268L64.3892 501.664L74.87 496.971L75.3195 495.392Z" fill="#6D391D"/>
<path d="M64.3891 500.842L57.555 538.542H60.5155L74.8699 496.971L64.3891 500.842Z" fill="#7F4521"/>
<path d="M73.5919 500.79L66.0552 522.497H68.0818L76.0591 500.79H73.5919Z" fill="#3A1E12"/>
<path d="M300.486 496.971H75.2305L75.8076 495.392H300.486V496.971Z" fill="#3A1E12"/>
<path d="M127.568 428.776H31.0975V491.691H127.568V428.776Z" fill="#7F4521"/>
<path opacity="0.23" d="M120.347 453.469L119.73 453.9L118.507 467.449L124.147 466.809L125.034 465.148L120.347 453.469Z" fill="#3A1E12"/>
<path d="M125.035 453.469H120.347V465.148H125.035V453.469Z" fill="#202120"/>
<path d="M31.0975 438.686H30.579V446.088H31.0975V438.686Z" fill="#3A1E12"/>
<path d="M31.0975 477.586H30.579V484.988H31.0975V477.586Z" fill="#3A1E12"/>
<path d="M334.5 507.5L285 507" stroke="black"/>
<path d="M248.601 491.217L345.071 491.217L345.071 428.302L248.601 428.302L248.601 491.217Z" fill="#7F4521"/>
<path opacity="0.23" d="M255.822 452.995L256.439 453.427L257.662 466.975L252.022 466.336L251.135 464.674L255.822 452.995Z" fill="#3A1E12"/>
<path d="M251.134 464.674L255.822 464.674L255.822 452.995L251.134 452.995L251.134 464.674Z" fill="#202120"/>
<path d="M345.072 445.614L345.59 445.614L345.59 438.213L345.072 438.213L345.072 445.614Z" fill="#3A1E12"/>
<path d="M345.072 484.515L345.59 484.515L345.59 477.113L345.072 477.113L345.072 484.515Z" fill="#3A1E12"/>
<path d="M297.577 495.392H307.569L308.507 501.664L298.026 496.971L297.577 495.392Z" fill="#6D391D"/>
<path d="M349.153 425.075H25.7269L43.0767 415L325.501 415.96L349.153 425.075Z" fill="#715146"/>
<path opacity="0.2" d="M155.386 411.466L168.222 424.193L152.95 424.6L155.386 411.466Z" fill="#14130D"/>
<path d="M177.996 446.623L185.185 457.731H174.79L173.247 446.16L177.996 446.623Z" fill="#020201"/>
<path d="M176.197 451.457L144.814 451.437C144.584 451.437 144.36 451.447 144.14 451.462C144.957 452.177 145.474 453.247 145.473 454.445C145.472 455.644 144.954 456.714 144.136 457.428C144.356 457.443 144.58 457.454 144.81 457.454L176.194 457.474C178.387 457.475 180.413 456.7 180.414 455.742L180.415 453.194C180.416 452.237 178.391 451.459 176.197 451.457Z" fill="#EFEFEA"/>
<path d="M176.322 451.199L144.937 451.179C144.562 451.179 144.197 451.203 143.847 451.242C144.027 451.388 144.193 451.546 144.348 451.714C144.541 451.701 144.737 451.693 144.937 451.693L176.322 451.713C178.304 451.714 180.044 452.408 180.044 453.195L180.042 455.741C180.041 456.53 178.3 457.22 176.318 457.218L144.934 457.198C144.723 457.198 144.519 457.189 144.317 457.174C144.159 457.342 143.989 457.499 143.808 457.644C144.168 457.687 144.543 457.711 144.933 457.711L176.317 457.731C178.873 457.733 181.032 456.821 181.033 455.742L181.035 453.196C181.037 452.115 178.879 451.201 176.322 451.199Z" fill="#6A775B"/>
<g opacity="0.6">
<path opacity="0.6" d="M163.16 453.656L165.889 453.658L165.565 455.801L163.16 453.656Z" fill="#CECFD1"/>
</g>
<path d="M163.16 453.656L165.889 453.658L165.888 455.26L163.16 453.656Z" fill="#8E9398"/>
<g opacity="0.6">
<path opacity="0.6" d="M144.405 451.714L147.71 452.252C147.71 452.252 176.951 452.133 178.021 453.063C178.794 453.731 179.006 455.211 178.524 456.314C178.339 456.739 177.373 456.867 177.134 457.185C177.134 457.185 178.941 457.004 179.774 456.397C180.332 455.989 180.079 455.434 180.088 454.627C180.093 453.953 180.304 453.326 179.936 452.803C179.568 452.281 178.578 451.837 176.726 451.72L144.405 451.714Z" fill="#CECFD1"/>
</g>
<path d="M174.25 445.98L146.39 445.932C146.185 445.931 145.986 445.939 145.792 445.952C146.518 446.544 146.977 447.434 146.978 448.426C146.978 449.42 146.52 450.308 145.794 450.899C145.99 450.911 146.189 450.922 146.393 450.921L174.254 450.968C176.2 450.972 177.998 450.331 177.997 449.536V447.426C177.996 446.63 176.197 445.983 174.25 445.98Z" fill="#EFEFEA"/>
<path d="M174.361 445.768L146.5 445.719C146.164 445.719 145.841 445.739 145.531 445.769C145.69 445.89 145.839 446.023 145.975 446.163C146.147 446.152 146.321 446.144 146.5 446.144L174.362 446.193C176.122 446.196 177.666 446.773 177.666 447.426L177.667 449.537C177.668 450.189 176.122 450.759 174.363 450.757L146.502 450.709C146.314 450.709 146.132 450.7 145.955 450.689C145.816 450.826 145.664 450.956 145.503 451.077C145.823 451.114 146.156 451.134 146.501 451.134L174.363 451.182C176.632 451.186 178.547 450.433 178.547 449.538V447.428C178.547 446.532 176.629 445.772 174.361 445.768Z" fill="#6F7282"/>
<g opacity="0.6">
<path opacity="0.6" d="M162.679 447.793L165.102 447.797L164.813 449.571L162.679 447.793Z" fill="#CECFD1"/>
</g>
<path d="M162.679 447.793L165.102 447.797V449.124L162.679 447.793Z" fill="#8E9398"/>
<g opacity="0.6">
<path opacity="0.6" d="M146.024 446.164L148.959 446.611C148.959 446.611 174.919 446.542 175.87 447.312C176.557 447.868 176.746 449.095 176.319 450.008C176.156 450.361 175.3 450.464 175.087 450.73C175.087 450.73 176.692 450.581 177.43 450.079C177.924 449.742 177.697 449.281 177.705 448.611C177.71 448.055 177.897 447.534 177.571 447.1C177.243 446.668 176.365 446.297 174.72 446.198L146.024 446.164Z" fill="#CECFD1"/>
</g>
<path d="M152.95 425.104H52.3135C50.2736 425.104 48.6046 423.434 48.6046 421.395V414.611C48.6046 412.571 50.2736 410.902 52.3135 410.902H152.95C154.99 410.902 156.659 412.571 156.659 414.611V421.395C156.659 423.434 154.99 425.104 152.95 425.104Z" fill="#1E241E"/>
<path d="M155.385 411.97L49.8782 411.689L60.2388 404.581H147.77L155.385 411.97Z" fill="#554233"/>
<path opacity="0.34" d="M130.912 407.171C130.912 409.902 110.21 412.894 84.6742 412.894C59.1373 412.894 38.436 409.902 38.436 407.171C38.436 404.44 59.138 402.226 84.6742 402.226C110.211 402.226 130.912 404.44 130.912 407.171Z" fill="#1E241E"/>
<path d="M129.707 405.956C129.707 408.688 109.005 410.902 83.4688 410.902C57.9319 410.902 37.2306 408.688 37.2306 405.956C37.2306 403.225 57.9326 401.011 83.4688 401.011C109.006 401.011 129.707 403.225 129.707 405.956Z" fill="#0E0F0E"/>
<path d="M98.3662 405.956C98.3662 406.536 91.696 407.008 83.4688 407.008C75.2408 407.008 68.5714 406.537 68.5714 405.956C68.5714 405.376 75.2416 404.905 83.4688 404.905C91.6968 404.905 98.3662 405.376 98.3662 405.956Z" fill="#E6E7DA"/>
<path d="M83.4688 403.373C83.1521 403.373 82.8925 403.632 82.8925 403.949V405.956H84.0452V403.949C84.0452 403.631 83.7856 403.373 83.4688 403.373Z" fill="#A6A49C"/>
<path d="M65.7889 418.101C66.4374 418.101 66.9632 417.575 66.9632 416.927C66.9632 416.278 66.4374 415.752 65.7889 415.752C65.1404 415.752 64.6147 416.278 64.6147 416.927C64.6147 417.575 65.1404 418.101 65.7889 418.101Z" fill="#A6CBC5"/>
<path d="M76.3595 418.101C77.008 418.101 77.5338 417.575 77.5338 416.927C77.5338 416.278 77.008 415.752 76.3595 415.752C75.711 415.752 75.1852 416.278 75.1852 416.927C75.1852 417.575 75.711 418.101 76.3595 418.101Z" fill="#A6CBC5"/>
<path d="M86.436 418.101C87.0845 418.101 87.6103 417.575 87.6103 416.927C87.6103 416.278 87.0845 415.752 86.436 415.752C85.7875 415.752 85.2617 416.278 85.2617 416.927C85.2617 417.575 85.7875 418.101 86.436 418.101Z" fill="#A6CBC5"/>
<path d="M135.396 397.095L137.859 400.354L138.434 399.579L136.23 396.864C135.952 396.911 135.674 396.981 135.396 397.095Z" fill="#554233"/>
<path d="M135.096 395.468L134.521 395.936L135.396 397.095C135.191 397.095 136.23 396.864 136.23 396.864L135.096 395.468Z" fill="#30251E"/>
<path d="M136.848 392.179H127.761V395.702H136.848V392.179Z" fill="#1E241E"/>
<path d="M134.808 395.703H131.099V406.644H134.808V395.703Z" fill="#1E241E"/>
<path d="M156.939 399.272H137.859V400.354H156.939V399.272Z" fill="#554233"/>
<path d="M156.938 398.91H152.415V400.717H156.938V398.91Z" fill="#554233"/>
<path d="M134.808 395.703H131.099V396.419H134.808V395.703Z" fill="#0E110E"/>
<path d="M152.416 399.272H152.064V400.354H152.416V399.272Z" fill="#30251E"/>
<path opacity="0.2" d="M312.436 422.593C307.52 422.593 303.534 421.929 303.534 421.11C303.534 420.29 307.52 419.626 312.436 419.626C317.352 419.626 321.337 420.29 321.337 421.11C321.337 421.929 317.352 422.593 312.436 422.593Z" fill="#14130D"/>
<path d="M313.273 418.651C312.993 418.703 313.112 419.129 313.391 419.077C314.843 418.805 316.174 418.48 317.361 417.967C317.384 417.841 317.4 417.718 317.411 417.598C316.109 418.155 314.644 418.393 313.273 418.651Z" fill="#EFE9E6"/>
<path d="M317.498 412.787C317.25 412.928 317.473 413.31 317.723 413.17C318.23 412.882 318.769 412.645 319.326 412.465C319.441 412.293 319.555 412.126 319.668 411.959C318.849 412.155 318.002 412.502 317.498 412.787Z" fill="#EFE9E6"/>
<path d="M319.668 411.959C319.554 412.125 319.44 412.293 319.326 412.465C319.745 412.33 320.171 412.223 320.61 412.172C322.789 411.914 319.904 415.788 319.486 416.218C318.887 416.835 318.177 417.271 317.412 417.599C317.401 417.718 317.385 417.841 317.361 417.967C319.163 417.188 320.627 415.967 321.642 413.797C322.593 411.758 321.174 411.599 319.668 411.959Z" fill="#FEFFF8"/>
<path d="M315.382 411.466H299.216C299.331 416.608 303.557 420.743 308.764 420.743C309.418 420.743 310.057 420.678 310.676 420.552C313.234 418.312 314.713 414.923 315.382 411.466Z" fill="#FEFFF8"/>
<path d="M318.31 411.466H315.382C314.713 414.923 313.234 418.311 310.675 420.552C314.968 419.686 318.21 415.96 318.31 411.466Z" fill="#FDF6F1"/>
<path d="M297.6 419.653C297.734 420.862 302.659 421.832 308.728 421.832C314.797 421.832 319.724 420.862 319.856 419.653H297.6Z" fill="#EFE9E6"/>
<path opacity="0.2" d="M274.636 422.378C268.473 422.378 263.478 421.762 263.478 421.002C263.478 420.242 268.473 419.626 274.636 419.626C280.798 419.626 285.794 420.242 285.794 421.002C285.794 421.762 280.798 422.378 274.636 422.378Z" fill="#14130D"/>
<path d="M285.215 410.202C282.834 410.513 281.222 410.495 281.222 410.495L279.458 416.687C279.458 416.687 280.227 416.853 281.329 416.911L285.512 410.122C285.415 410.154 285.319 410.189 285.215 410.202Z" fill="#EFE9E6"/>
<path d="M293.602 400.923C293.602 400.923 290.714 399.351 289.438 401.939C288.218 404.414 287.642 409.416 285.512 410.122L281.329 416.911C283.566 417.029 287.195 416.692 288.708 413.558C290.965 408.88 289.44 402.395 293.014 402.395L293.602 400.923Z" fill="#FEFFF8"/>
<path d="M293.406 401.702C293.238 402.112 293.05 402.423 292.988 402.397C292.926 402.371 293.011 402.018 293.18 401.609C293.349 401.199 293.536 400.889 293.599 400.915C293.661 400.941 293.575 401.293 293.406 401.702Z" fill="#C6AC91"/>
<path d="M256.847 404.93L257.751 403.136C257.675 403.053 256.477 401.746 254.929 400.861C254.861 401.248 254.757 401.634 254.624 402.02C255.889 403.219 256.83 404.912 256.847 404.93Z" fill="#EFE9E6"/>
<path d="M259.588 419.042C260.378 418.602 260.541 417.69 260.548 417.651L259.428 416.911C259.427 416.917 259.405 417.654 259.13 418.068C259.096 418.119 259.041 418.154 258.992 418.195C259.156 418.522 259.32 418.81 259.483 419.083C259.518 419.068 259.555 419.061 259.588 419.042Z" fill="#EFE9E6"/>
<path d="M258.993 418.195C258.73 418.414 258.281 418.475 257.771 418.267C256.61 417.794 256.474 416.951 256.286 415.784C256.128 414.795 255.947 413.672 255.026 412.675C254.753 412.381 254.386 412.028 253.968 411.626C251.575 409.33 247.571 405.485 250.441 401.832C250.941 401.195 251.534 400.873 252.252 400.848C252.283 400.847 252.314 400.847 252.344 400.847C253.137 400.847 253.929 401.359 254.624 402.019C254.756 401.632 254.86 401.247 254.929 400.86C254.125 400.4 253.229 400.052 252.342 400.052C252.304 400.052 252.264 400.053 252.227 400.054C251.273 400.087 250.462 400.52 249.817 401.341C246.503 405.56 251.002 409.88 253.419 412.2C253.824 412.588 254.179 412.929 254.444 413.215C255.202 414.035 255.355 414.988 255.503 415.91C255.697 417.115 255.897 418.36 257.472 419.002C257.909 419.179 258.31 419.268 258.675 419.268C258.972 419.268 259.239 419.2 259.484 419.083C259.32 418.81 259.156 418.522 258.993 418.195Z" fill="#FEFFF8"/>
<path d="M261.008 419.606C261.592 420.285 262.244 420.819 262.957 421.043C264.784 421.614 267.788 421.62 268.971 421.595C269.02 421.358 269.065 421.12 269.111 420.882C266.344 420.962 263.532 420.465 261.008 419.606Z" fill="#EFE9E6"/>
<path d="M270.455 403.367C270.151 403.369 269.846 403.37 269.538 403.37C264.194 403.37 259.406 403.005 256.151 402.428C255.527 406.086 257.422 413.304 257.84 413.916C258.202 414.445 259.32 417.642 261.008 419.606C263.532 420.466 266.344 420.962 269.112 420.881C270.228 415.128 270.593 409.193 270.455 403.367Z" fill="#FEFFF8"/>
<path d="M269.112 420.881C269.066 421.12 269.021 421.357 268.972 421.594C269.287 421.588 269.475 421.58 269.475 421.58C269.475 421.58 273.678 421.766 275.992 421.042C277.932 420.434 279.421 417.544 280.309 415.615C277.487 419.264 273.354 420.755 269.112 420.881Z" fill="#EFE9E6"/>
<path d="M282.802 402.45C279.74 402.981 275.362 403.327 270.455 403.366C270.594 409.193 270.228 415.128 269.112 420.88C273.354 420.754 277.487 419.263 280.309 415.614C280.691 414.783 280.962 414.129 281.108 413.916C281.526 413.306 283.414 406.115 282.802 402.45Z" fill="#FDF6F1"/>
<path d="M282.243 400.947C281.362 399.71 279.275 398.788 277.352 398.165C275.288 397.496 273.411 397.171 273.411 397.171H269.452H265.493C265.493 397.171 263.591 397.5 261.511 398.178C259.599 398.801 257.536 399.719 256.661 400.947C256.402 401.312 256.232 401.823 256.128 402.428C259.383 403.005 264.171 403.37 269.515 403.37C274.792 403.37 279.527 403.014 282.78 402.449C282.676 401.835 282.506 401.316 282.243 400.947Z" fill="#FEFFF8"/>
<path d="M274.135 395.889H264.815V397.456H274.135V395.889Z" fill="#FEFFF8"/>
<path d="M264.815 397.304L274.135 397.313C274.135 397.313 274.71 397.429 275.449 397.619C276.65 397.927 278.277 398.39 278.521 398.578C279.245 399.133 264.207 397.438 264.207 397.438L264.815 397.304Z" fill="#FDF6F1"/>
<path d="M274.261 397.304L264.941 397.313C264.941 397.313 264.366 397.429 263.626 397.619C262.425 397.927 260.799 398.39 260.555 398.578C259.831 399.133 274.868 397.438 274.868 397.438L274.261 397.304Z" fill="#FDF6F1"/>
<path opacity="0.2" d="M216.745 422.593C229.854 422.593 240.482 421.928 240.482 421.109C240.482 420.29 229.854 419.625 216.745 419.625C203.635 419.625 193.007 420.29 193.007 421.109C193.007 421.928 203.635 422.593 216.745 422.593Z" fill="#14130D"/>
<path d="M197.334 383.192L197.609 383.145C196.599 377.282 188.431 366.356 180.273 363.965C172.273 361.62 164.721 360.35 164.646 360.337L164.6 360.612C164.675 360.625 172.212 361.892 180.194 364.232C188.119 366.556 196.359 377.531 197.334 383.192Z" fill="#2C3D33"/>
<path d="M173.907 362.561L173.942 362.284C173.48 362.227 162.613 360.899 159.41 362.295L159.521 362.551C162.655 361.183 173.795 362.546 173.907 362.561Z" fill="#2C3D33"/>
<path d="M199.893 382.275C199.893 382.275 198.719 379.651 202.246 377.667C205.773 375.683 203.134 380.729 202.413 381.507C201.693 382.284 199.893 382.275 199.893 382.275Z" fill="#2E3231"/>
<path d="M167.528 381.319C167.623 381.17 177.06 366.509 187.035 368.211L187.081 367.937C176.927 366.205 167.388 381.02 167.293 381.169L167.528 381.319Z" fill="#2C3D33"/>
<path d="M174.051 382.279C174.108 382.153 179.916 369.793 189.769 370.61L189.793 370.332C179.756 369.495 173.857 382.035 173.798 382.161L174.051 382.279Z" fill="#2C3D33"/>
<path d="M199.391 382.971C200.077 374.959 198.303 360.209 194.824 357.163C191.522 354.273 182.516 344.861 182.426 344.767L182.225 344.959C182.315 345.054 191.329 354.476 194.64 357.373C197.774 360.117 199.849 374.336 199.112 382.948L199.391 382.971Z" fill="#2C3D33"/>
<path d="M202.58 383.195C204.406 373.672 208.705 368.253 216.521 365.625C224.209 363.04 231.484 372.864 231.558 372.963L231.783 372.798C231.709 372.697 224.318 362.708 216.431 365.361C208.509 368.026 204.153 373.51 202.307 383.143L202.58 383.195Z" fill="#2C3D33"/>
<path d="M200.008 383.762L200.18 383.628L200.134 383.51L200.037 383.555L200.092 383.486C200.084 383.475 199.273 382.283 202.113 373.482C204.855 364.981 231.484 345.175 231.754 344.975L231.588 344.751C231.521 344.801 224.777 349.807 217.78 355.804C208.372 363.869 203.011 369.787 201.847 373.396C199.414 380.939 199.524 383.437 199.921 383.704L200.008 383.762Z" fill="#2C3D33"/>
<path d="M200.857 383.21C201.7 380.421 205.248 372.038 208.627 368.8C210.42 367.083 213.032 364.703 215.799 362.183C218.177 360.018 220.635 357.778 222.704 355.838C227.101 351.716 235.004 347.261 235.083 347.216L234.947 346.973C234.868 347.018 226.936 351.49 222.514 355.635C220.446 357.574 217.987 359.813 215.611 361.977C212.844 364.498 210.23 366.879 208.435 368.599C205.019 371.874 201.439 380.32 200.592 383.13L200.857 383.21Z" fill="#2C3D33"/>
<path d="M199.024 378.892C199.549 374.847 201.462 325.296 201.481 324.796L201.203 324.785C201.183 325.285 199.27 374.824 198.746 378.856L199.024 378.892Z" fill="#2C3D33"/>
<path d="M200.794 342.083C200.883 339.937 199.651 337.761 197.233 335.791C195.42 334.312 193.553 333.454 193.534 333.445L193.418 333.699C193.492 333.732 200.721 337.088 200.515 342.072L200.794 342.083Z" fill="#2C3D33"/>
<path d="M201.214 332.884C201.381 329.908 203.657 327.419 203.68 327.395L203.476 327.205C203.38 327.309 201.109 329.79 200.936 332.868L201.214 332.884Z" fill="#2C3D33"/>
<path d="M197.974 383.403L198.249 383.36C197.38 377.834 199.078 366.209 202.112 356.894C205.204 347.405 221.011 333.122 221.17 332.979L220.984 332.771C220.824 332.915 204.962 347.248 201.848 356.807C198.8 366.159 197.098 377.841 197.974 383.403Z" fill="#2C3D33"/>
<path d="M199.592 383.185L199.87 383.152C198.43 370.927 204.29 361.087 209.46 354.985C215.068 348.368 221.09 344.6 221.15 344.562L221.003 344.326C220.943 344.364 214.884 348.155 209.248 354.805C204.042 360.949 198.141 370.86 199.592 383.185Z" fill="#2C3D33"/>
<path d="M199.706 379.742C199.706 379.742 196.253 378.936 195.063 376.159C193.873 373.384 196.923 370.724 196.923 370.724C196.923 370.724 200.278 375.5 200.149 377.387C200.02 379.274 199.706 379.742 199.706 379.742Z" fill="#649172"/>
<path d="M203.439 382.998C206.076 373.573 213.625 367.062 218.136 363.17C223.089 358.898 238.979 365.967 239.139 366.039L239.252 365.785C239.213 365.767 235.17 363.96 230.559 362.712C224.338 361.027 220.096 361.112 217.953 362.96C213.417 366.871 205.829 373.418 203.169 382.923L203.439 382.998Z" fill="#2C3D33"/>
<path d="M198.462 383.443L198.712 383.32C198.611 383.073 198.759 380.597 198.928 377.732C199.328 371.016 199.932 360.866 199.022 356.405C197.685 349.856 193.085 342.084 193.038 342.007L192.798 342.15C192.845 342.227 197.421 349.959 198.748 356.461C199.652 360.887 199.026 371.421 198.65 377.716C198.426 381.497 198.332 383.179 198.462 383.443Z" fill="#2C3D33"/>
<path d="M167.97 380.585C168.07 380.415 165.526 380.771 164.412 383.28C163.297 385.789 163.297 385.789 163.297 385.789C163.297 385.789 166.734 385.51 167.571 383.838C168.407 382.165 167.534 381.328 167.97 380.585Z" fill="#809B89"/>
<path d="M183.039 371.85C183.066 371.688 181.188 372.721 181.064 375.009C180.94 377.296 180.94 377.296 180.94 377.296C180.94 377.296 183.538 376.058 183.693 374.504C183.849 372.952 182.919 372.558 183.039 371.85Z" fill="#79897F"/>
<path d="M198.247 354.513C198.387 354.6 198.139 352.471 196.067 351.492C193.996 350.515 193.996 350.515 193.996 350.515C193.996 350.515 194.162 353.388 195.542 354.117C196.922 354.847 197.636 354.135 198.247 354.513Z" fill="#2E2F29"/>
<path d="M165.073 360.521C165.073 360.521 165.072 354.667 159.915 356.34C154.757 358.012 160.705 360.336 161.634 360.94C162.564 361.544 165.073 360.521 165.073 360.521Z" fill="#79897F"/>
<path d="M159.822 362.282C159.822 362.282 156.384 361.681 155.548 364.005C154.711 366.328 155.548 367.792 155.548 367.792C155.548 367.792 160.101 368.372 160.426 366.606C160.751 364.841 159.822 363.439 159.822 362.282Z" fill="#465947"/>
<path d="M174.812 372.469C174.812 372.469 173.857 373.485 172.371 374.048C170.885 374.611 168.873 371.673 167.864 370.627C166.856 369.581 171.455 368.82 172.864 369.458C174.273 370.095 174.245 370.908 174.812 372.469Z" fill="#77837A"/>
<path d="M230.906 345.434C230.906 345.434 232.997 342.367 235.877 342.553C238.758 342.739 234.484 346.549 230.906 345.434Z" fill="#809B89"/>
<path d="M233.409 348.06C233.409 348.06 235.009 345.945 237.385 346.589C239.759 347.232 236.579 349.298 233.409 348.06Z" fill="#5A5858"/>
<path d="M229.022 347.093C229.022 347.093 232.274 347.511 233.296 349.834C234.317 352.157 233.866 353.273 233.866 353.273C233.866 353.273 229.486 351.833 229.022 349.742C228.697 348.288 229.022 347.093 229.022 347.093Z" fill="#649172"/>
<path d="M222.901 351.78C222.901 351.78 224.894 350.634 226.419 350.798C227.943 350.962 229.485 351.925 229.922 352.527C230.36 353.13 226.819 354.449 225.494 354.222C224.168 353.994 222.901 351.78 222.901 351.78Z" fill="#809B89"/>
<path d="M200.75 378.048C200.75 378.048 200.946 375.758 201.951 374.599C202.956 373.441 204.626 372.725 205.37 372.709C206.114 372.693 205.177 376.353 204.235 377.313C203.291 378.272 200.75 378.048 200.75 378.048Z" fill="#79897F"/>
<path d="M230.906 371.517C230.906 371.517 231.251 366.934 237.507 370.012C240.175 371.325 231.543 374.215 230.906 371.517Z" fill="#444D43"/>
<path d="M201.859 372.592C201.859 372.592 198.581 369.373 204.967 366.577C207.692 365.385 204.332 373.846 201.859 372.592Z" fill="#444D43"/>
<path d="M184.777 347.604C184.777 347.604 181.617 349.182 181.338 351.784C181.059 354.385 183.941 350.764 184.777 347.604Z" fill="#39423D"/>
<path d="M226.947 348.364C226.947 348.364 229.59 346.021 229.183 343.437C228.777 340.851 226.936 345.096 226.947 348.364Z" fill="#39423D"/>
<path d="M183.03 345.653C183.113 345.715 183.017 342.121 180.337 341.146C178.803 340.589 180.94 343.515 181.358 344.026C181.776 344.538 182.659 345.375 183.03 345.653Z" fill="#252525"/>
<path d="M194.171 334.13C194.171 334.13 191.476 336.221 191.523 337.289C191.569 338.358 191.522 339.101 191.522 339.101C191.522 339.101 189.897 338.032 190.594 336.174C191.29 334.316 192.359 334.13 194.171 334.13Z" fill="#252525"/>
<path d="M183.254 345.747C183.254 345.747 181.241 347.309 181.275 348.108C181.309 348.907 181.275 349.463 181.275 349.463C181.275 349.463 180.06 348.664 180.58 347.275C181.101 345.886 181.901 345.747 183.254 345.747Z" fill="#3E463C"/>
<path d="M193.582 333.572C193.582 333.572 190.933 332.503 189.121 333.572C187.31 334.641 186.799 335.896 186.799 335.896C186.799 335.896 190.284 335.431 190.981 334.781C191.677 334.13 193.582 333.572 193.582 333.572Z" fill="#649172"/>
<path d="M194.269 333.971C194.269 333.971 195.24 332.971 194.682 330.745C194.124 328.52 193.055 327.726 193.055 327.726C193.055 327.726 191.499 331.462 192.004 332.276C192.508 333.09 192.657 333.39 194.269 333.971Z" fill="#809B89"/>
<path d="M184.809 347.457C184.809 347.457 184.276 345.554 183.734 344.728C183.191 343.903 182.125 341.433 182.125 341.433C182.125 341.433 184.169 342.256 185.319 343.775C186.47 345.294 185.915 346.37 184.809 347.457Z" fill="#3B3F3C"/>
<path d="M180.507 369.114C180.507 369.114 178.602 368.587 177.615 368.625C176.627 368.663 173.963 368.299 173.963 368.299C173.963 368.299 175.724 366.974 177.618 366.775C179.513 366.575 180.147 367.605 180.507 369.114Z" fill="#3B3F3C"/>
<path d="M226.823 361.856C226.823 361.856 227.976 363.462 228.769 364.052C229.562 364.641 231.408 366.597 231.408 366.597C231.408 366.597 229.206 366.523 227.606 365.489C226.004 364.456 226.157 363.256 226.823 361.856Z" fill="#3B3F3C"/>
<path d="M218.783 345.366C218.783 345.366 219.688 343.79 219.88 342.902C220.07 342.015 221.005 339.725 221.005 339.725C221.005 339.725 221.781 341.595 221.526 343.328C221.27 345.061 220.209 345.39 218.783 345.366Z" fill="#465947"/>
<path d="M193.302 343.043C193.519 343.135 194.417 341.088 192.188 339.509C189.957 337.93 191.427 341.507 191.427 341.507C191.427 341.507 191.444 342.256 193.302 343.043Z" fill="#3B3F3C"/>
<path d="M195.347 346.675C195.288 346.552 194.322 344.235 192.296 343.875C190.27 343.516 189.759 344.445 189.759 344.445C189.759 344.445 191.294 346.675 192.943 347.093C194.591 347.511 195.347 346.675 195.347 346.675Z" fill="#649172"/>
<path d="M197.332 352.056C197.332 352.056 201.297 348.879 199.032 343.855C198.118 341.832 196.754 346.379 196.572 347.363C196.32 348.722 196.685 351.064 197.332 352.056Z" fill="#79897F"/>
<path d="M206.907 372.072C206.907 372.072 211.362 370.934 210.424 366.206C210.045 364.303 207.7 367.41 207.299 368.121C206.743 369.102 206.535 371.069 206.907 372.072Z" fill="#77837A"/>
<path d="M204.036 361.904C204.036 361.904 208.001 358.727 205.734 353.703C204.822 351.681 203.457 356.228 203.275 357.211C203.022 358.57 203.389 360.912 204.036 361.904Z" fill="#649172"/>
<path d="M182.452 365.269C182.452 365.269 185.287 358.713 178.592 358.089C174.763 357.733 174.357 358.918 174.357 358.918C174.357 358.918 173.616 360.909 182.452 365.269Z" fill="#649172"/>
<path d="M181.018 364.468C181.018 364.468 177.759 366.842 175.24 366.911C172.721 366.98 171.459 364.136 171.459 364.136C171.459 364.136 176.206 362.164 181.018 364.468Z" fill="#809B89"/>
<path d="M167.677 361.895C167.677 361.895 168.795 364.668 167.238 366.167C165.681 367.667 163.52 367.021 163.52 367.021C163.52 367.021 162.468 363.794 164.202 362.581C165.936 361.369 166.619 361.568 167.677 361.895Z" fill="#809B89"/>
<path d="M174.147 380.176C174.147 380.176 170.802 381.859 170.012 383.828C169.222 385.798 173.636 384.386 174.751 382.002C175.866 379.618 174.147 380.176 174.147 380.176Z" fill="#515D54"/>
<path d="M180.561 373.433C180.561 373.433 176.04 372.425 174.74 373.354C173.441 374.282 171.915 375.577 171.915 375.577C171.915 375.577 175.032 376.801 176.872 375.735C178.712 374.669 179.785 373.259 180.561 373.433Z" fill="#809B89"/>
<path d="M230.52 362.844C230.52 362.844 232.714 366.817 235.713 367.584C238.709 368.351 238.017 364.426 230.52 362.844Z" fill="#515D54"/>
<path d="M186.579 367.569C186.579 367.569 186.957 363.046 184.889 360.746C182.82 358.445 181.219 362.093 186.579 367.569Z" fill="#2E2F29"/>
<path d="M205.122 375.473C205.122 375.473 209.644 375.084 211.563 372.657C213.482 370.231 209.616 369.266 205.122 375.473Z" fill="#515D54"/>
<path d="M223.017 365.67C223.017 365.67 225.746 369.266 225.631 372.287C225.516 375.309 225.574 377.34 225.342 376.985C225.109 376.63 220.269 372.219 221.096 369.605C221.925 366.99 223.017 365.67 223.017 365.67Z" fill="#424539"/>
<path d="M200.402 349.704C200.402 349.704 200.284 346.273 201.68 344.446C203.077 342.618 203.932 341.331 203.921 341.654C203.909 341.975 204.982 346.84 203.322 348.102C201.661 349.363 200.402 349.704 200.402 349.704Z" fill="#809B89"/>
<path d="M188.938 370.769C188.938 370.769 188.293 374.341 186.44 375.918C184.587 377.494 183.415 378.634 183.499 378.302C183.582 377.972 183.561 372.704 185.561 371.771C187.56 370.839 188.938 370.769 188.938 370.769Z" fill="#79897F"/>
<path d="M210.81 369.605C210.81 369.605 213.947 367.949 216.665 369.265C219.383 370.581 218.826 374.588 218.826 374.588C218.826 374.588 213.161 373.182 212.02 371.672C210.879 370.163 210.81 369.605 210.81 369.605Z" fill="#383F3F"/>
<path d="M197.47 362.953C197.47 362.953 194.116 364.101 191.634 362.38C189.154 360.658 190.327 356.785 190.327 356.785C190.327 356.785 195.705 359.054 196.598 360.723C197.489 362.391 197.47 362.953 197.47 362.953Z" fill="#79897F"/>
<path d="M231.725 372.857C231.725 372.857 233.466 373.763 235.07 376.76C236.674 379.757 232.492 376.132 231.725 375.018C230.958 373.903 231.725 372.857 231.725 372.857Z" fill="#383F3F"/>
<path d="M227.966 368.742C227.966 368.742 231.095 372.229 231.307 375.059C231.521 377.888 229.569 378.874 229.569 378.874C229.569 378.874 226.502 373.01 226.433 371.407C226.363 369.803 227.966 368.742 227.966 368.742Z" fill="#649172"/>
<path d="M226.995 354.896C226.995 354.896 229.092 355.039 230.52 357.06C231.948 359.082 231.384 361.131 231.384 361.131C231.384 361.131 229.469 360.684 228.061 359.012C226.652 357.339 226.995 354.896 226.995 354.896Z" fill="#3E463C"/>
<path d="M215.065 338.586C215.065 338.586 219.369 338.032 221.995 338.93C224.62 339.829 218.99 341.222 217.252 341.009C215.516 340.797 215.065 338.586 215.065 338.586Z" fill="#3E463C"/>
<path d="M218.724 335.223C218.724 335.223 222.281 334.293 224.545 335.223C226.808 336.151 224.23 338.289 221.721 337.708C219.212 337.128 219.073 335.687 218.724 335.223Z" fill="#77837A"/>
<path d="M189.015 351.829C189.015 351.829 186.798 350.04 186.334 348.202C185.87 346.363 188.391 346.986 189.184 348.816C189.977 350.648 189.145 351.398 189.015 351.829Z" fill="#77837A"/>
<path d="M216.277 337.14C216.277 337.14 217.751 335.728 216.277 333.358C214.804 330.988 214.057 333.812 216.277 337.14Z" fill="#3E463C"/>
<path d="M208.352 346.46C208.352 346.46 210.446 343.856 210.584 340.524C210.722 337.192 208.771 336.308 208.771 336.308C208.771 336.308 205.912 338.933 205.982 342C206.053 345.067 208.352 346.46 208.352 346.46Z" fill="#649172"/>
<path d="M215.584 340.905C215.584 340.905 217.519 343.042 216.752 345.651C215.985 348.26 214.531 349.573 214.531 349.573C214.531 349.573 211.585 345.982 212.2 343.486C212.815 340.992 215.584 340.905 215.584 340.905Z" fill="#77837A"/>
<path d="M220.18 363.145C220.18 363.145 219.498 365.947 216.908 366.776C214.318 367.605 212.416 367.139 212.416 367.139C212.416 367.139 213.735 362.685 216.144 361.793C218.554 360.901 220.18 363.145 220.18 363.145Z" fill="#77837A"/>
<path d="M214.061 349.848C214.192 350.097 217.448 348.439 220.116 353.303C220.744 354.447 216.638 353.791 215.206 352.607C213.773 351.421 214.061 349.848 214.061 349.848Z" fill="#809B89"/>
<path d="M210.118 353.923C210.118 353.923 207.529 351.242 211.268 349.068C215.008 346.895 213.689 352.179 210.118 353.923Z" fill="#2E3231"/>
<path d="M219.57 356.039C219.57 356.039 222.417 356.433 222.235 360.475C222.052 364.517 219.167 359.608 218.889 358.585C218.609 357.562 219.57 356.039 219.57 356.039Z" fill="#2E3231"/>
<path d="M237.37 365.376C237.37 365.376 238.834 364.158 241.412 365.161C243.989 366.164 240.367 367.655 237.37 365.376Z" fill="#2E3231"/>
<path d="M192.296 355.146C192.296 355.146 189.029 351.155 185.641 351.833C182.251 352.51 183.911 353.081 183.911 353.081C183.911 353.081 186.743 356.551 189.042 356.039C191.343 355.526 192.296 355.146 192.296 355.146Z" fill="#465947"/>
<path d="M201.872 366.265C201.872 366.265 207.026 366.107 208.554 363.007C210.082 359.907 208.618 360.875 208.618 360.875C208.618 360.875 204.142 361.006 203.147 363.142C202.152 365.278 201.872 366.265 201.872 366.265Z" fill="#465947"/>
<path d="M219.652 345.48C219.652 345.48 222.36 344.689 224.451 345.873C226.541 347.059 225.013 348.245 222.004 347.43C220.548 347.036 220.548 346.286 219.652 345.48Z" fill="#3E463C"/>
<path d="M201.074 331.342C201.074 331.342 200.652 328.067 198.526 325.976C196.402 323.885 196.192 324.792 196.192 324.792C196.192 324.792 195.778 327.858 197.483 329.321C199.19 330.785 200.032 330.994 201.074 331.342Z" fill="#77837A"/>
<path d="M201.436 325.2C201.436 325.2 202.419 321.152 202.419 318.566C202.419 316.823 199.508 319.471 199.5 321.563C199.494 323.653 200.938 324.517 201.436 325.2Z" fill="#3E463C"/>
<path d="M202.94 327.983C202.94 327.983 205.558 329.488 208.607 327.983C211.656 326.478 204.399 324.819 202.94 327.983Z" fill="#5A5858"/>
<path d="M201.342 331.649C201.342 331.649 203.294 333.108 204.967 333.34C206.639 333.572 204.2 330.074 201.342 331.649Z" fill="#3E463C"/>
<path d="M220.564 333.27C220.564 333.27 222.308 331.271 224.729 331.898C227.149 332.525 224.362 334.642 220.564 333.27Z" fill="#3E463C"/>
<path d="M171.641 362.193C171.641 362.193 173.125 365.173 169.569 368.597C167.346 370.738 167.758 366.041 168.385 364.601C169.012 363.16 169.898 362.332 171.641 362.193Z" fill="#3E463C"/>
<path d="M193.727 375.233C193.727 375.233 197.06 372.283 197.096 368.948C197.131 365.615 193.368 368.546 192.949 371.298C192.531 374.048 192.67 373.491 193.437 375.233" fill="#3E463C"/>
<path d="M204.485 379.741C204.275 379.612 206.497 376.475 211.624 376.406C216.752 376.336 212.738 381.253 208.388 380.866C204.472 380.517 204.485 379.741 204.485 379.741Z" fill="#649172"/>
<path d="M194.906 377.304C194.906 377.304 192.118 380.46 187.31 380.112C182.501 379.764 188.842 374.357 194.906 377.304Z" fill="#3E463C"/>
<path d="M171.26 376.292C171.26 376.292 168.941 379.476 167.016 379.31C165.093 379.145 162.142 376.237 162.142 376.237C162.142 376.237 165.04 374.086 167.732 374.931C170.424 375.778 171.26 376.292 171.26 376.292Z" fill="#649172"/>
<path d="M195.507 378.284C195.589 378.027 192.606 381.012 190.118 381.639C187.632 382.266 186.216 382.924 186.216 382.924C186.216 382.924 191.025 384.496 192.569 382.476C194.113 380.455 195.088 379.597 195.507 378.284Z" fill="#809B89"/>
<path d="M208.594 355.835C208.594 355.835 210.598 354.418 213.536 355.066C216.473 355.715 216.729 357.432 216.729 357.432C216.729 357.432 212.276 358.497 210.671 357.824C209.067 357.151 208.594 355.835 208.594 355.835Z" fill="#3E463C"/>
<path d="M189.837 370.074C189.837 370.074 186.323 369.108 189.635 364.509C192.45 360.602 192.764 365.697 191.849 368.136C190.933 370.575 189.837 370.074 189.837 370.074Z" fill="#649172"/>
<path d="M200.741 356.627C200.741 356.627 197.981 355.868 200.583 352.255C202.793 349.187 203.039 353.188 202.321 355.104C201.603 357.021 200.741 356.627 200.741 356.627Z" fill="#48584B"/>
<path d="M208.616 381.941L212.891 411.213L208.955 411.197L206.852 381.941H208.616Z" fill="#C6C6C6"/>
<path d="M204.713 381.941L205.55 411.213H203.04L202.577 381.941H204.713Z" fill="#CECECE"/>
<path d="M198.581 411.213H195.792L197.187 381.941H198.987L198.581 411.213Z" fill="#DBDBDB"/>
<path d="M195.05 381.894H193.191L188.452 411.213H191.75L195.05 381.894Z" fill="#E2E2E2"/>
<path d="M205.016 421.156L208.954 411.197L212.891 411.214L207.596 421.156H205.016Z" fill="#B5B5B5"/>
<path d="M195.05 421.156H193.099L188.452 411.213H191.75L195.05 421.156Z" fill="#C6C6C6"/>
<path d="M205.55 411.213L202.786 421.156H201.078L203.04 411.213H205.55Z" fill="#B5B5B5"/>
<path d="M198.581 411.214H195.792L197.186 421.156H198.58C198.581 421.156 198.672 410.717 198.581 411.214Z" fill="#C1C1C1"/>
<path d="M208.954 411.197L205.55 411.213L204.713 381.941H206.851L208.954 411.197Z" fill="#E2E2E2"/>
<path d="M191.75 411.213H195.792L197.207 381.941H195.07L191.75 411.213Z" fill="#EFEFEF"/>
<path d="M202.577 381.941L203.04 411.213L198.581 411.214L198.987 381.941H202.577Z" fill="#E2E2E2"/>
<path d="M205.55 411.214L208.954 411.197L205.016 421.156H202.786L205.55 411.214Z" fill="#BCBCBC"/>
<path d="M203.04 411.213L198.581 411.214V421.156H201.078L203.04 411.213Z" fill="#CECECE"/>
<path d="M195.792 411.213H191.75L195.05 421.156H197.187L195.792 411.213Z" fill="#CECECE"/>
<rect x="334.5" y="528.181" width="8" height="58.5" rx="2" transform="rotate(90 334.5 528.181)" fill="#88B0FF"/>
<rect x="322" y="513.181" width="15" height="46" rx="2" transform="rotate(90 322 513.181)" fill="#246135"/>
<path d="M332.498 495.002C333.603 495.001 334.5 495.897 334.5 497.002L334.5 511.181C334.5 512.286 333.605 513.181 332.5 513.181L278 513.181C276.895 513.181 276 512.286 276 511.181L276 497.066C276 495.962 276.894 495.067 277.998 495.066L332.498 495.002Z" fill="#D7431A"/>
<path d="M334.5 499L334.5 509L282 509C280.895 509 280 508.105 280 507L280 501C280 499.895 280.895 499 282 499L334.5 499Z" fill="white"/>
</svg>
