<svg width="784" height="514" viewBox="0 0 784 514" fill="none" xmlns="http://www.w3.org/2000/svg">
<path fill-rule="evenodd" clip-rule="evenodd" d="M29.5677 225.101C12.32 228.803 0 244.047 0 261.688V316.099C0 319.313 0.512817 322.407 1.46109 325.304C0.502302 330.734 3.25621e-05 336.344 3.20587e-05 342.102L2.93992e-05 372.523C2.76926e-05 392.045 11.6285 409.691 29.5677 417.391L29.5681 417.391C59.1358 430.082 118.271 455.464 177.406 468.155C236.541 480.846 295.677 480.846 354.812 461.81C390.293 450.388 425.774 432.112 461.255 413.837C484.91 401.654 508.564 389.47 532.218 379.318C568.175 363.884 604.133 353.142 633.443 345.667H680.056H709.624V298.38C709.624 298.358 709.624 298.335 709.624 298.312V243.901C709.624 243.881 709.624 243.861 709.624 243.84V155.3L680.056 142.609C650.488 129.918 591.353 104.536 532.218 91.8449C473.082 79.1538 413.947 79.1538 354.812 98.1905C319.331 109.612 283.849 127.888 248.368 146.163C224.714 158.346 201.06 170.53 177.406 180.683C118.271 206.065 59.1353 218.756 29.5677 225.101Z" fill="#C8E7FA"/>
<path fill-rule="evenodd" clip-rule="evenodd" d="M687.477 248.004C676.828 238.663 662.873 233 647.594 233C615.872 233 589.851 257.414 587.297 288.477C585.685 288.306 584.049 288.218 582.392 288.218C557.087 288.218 536.573 308.731 536.573 334.036C536.573 337.234 536.901 340.355 537.524 343.368C530.565 348.144 526 356.156 526 365.234V374.5C526 389.136 537.864 401 552.5 401H756.787C771.422 401 783.287 389.136 783.287 374.5V365.234C783.287 355.323 777.845 346.682 769.787 342.137C776.824 331.791 780.937 319.296 780.937 305.84C780.937 270.154 752.008 241.224 716.322 241.224C705.955 241.224 696.159 243.666 687.477 248.004Z" fill="white"/>
<path fill-rule="evenodd" clip-rule="evenodd" d="M93.1547 160.377C99.8099 154.539 108.532 151 118.08 151C137.907 151 154.17 166.259 155.767 185.674C156.774 185.567 157.797 185.512 158.832 185.512C174.648 185.512 187.469 198.333 187.469 214.149C187.469 216.583 187.165 218.947 186.593 221.204C191.148 224.766 194.077 230.312 194.077 236.543C194.077 247.289 185.365 256.001 174.619 256.001H52.7308C41.9844 256.001 33.2727 247.289 33.2727 236.543C33.2727 229.622 36.8865 223.544 42.3301 220.095C37.5544 213.462 34.7414 205.321 34.7414 196.524C34.7414 174.22 52.8222 156.139 75.126 156.139C81.6052 156.139 87.728 157.665 93.1547 160.377Z" fill="white"/>
<path d="M258.799 511.029L257.202 394.451L454.778 381.143L460.548 501.979L258.799 511.029Z" fill="#E3C485" stroke="#575553" stroke-width="4"/>
<path d="M267.316 508.366V501.978L457.887 494.525L458.419 499.849L267.316 508.366Z" fill="#C2A571"/>
<path d="M259.331 397.645H267.316V508.52L260.928 508.9L259.331 397.645Z" fill="#EBD5A8"/>
<path d="M252.289 394.108L251.348 378.887C251.279 377.78 252.125 376.828 253.233 376.767L457.121 365.458C458.226 365.396 459.17 366.243 459.229 367.348L460.156 384.655C460.216 385.765 459.359 386.71 458.249 386.76L254.376 395.982C253.285 396.032 252.357 395.198 252.289 394.108Z" fill="#E3C485" stroke="#575553" stroke-width="4"/>
<path d="M254.585 393.99L258.322 393.537L256.975 381.794L457.401 371.168L456.948 367.432L253.307 379.054L254.585 393.99Z" fill="#EBD5A8"/>
<path d="M359.97 370.521L339.676 371.536C339.401 371.55 339.189 371.783 339.201 372.058L340.733 406.26C340.751 406.666 341.219 406.882 341.539 406.633L345.3 403.708C345.461 403.582 345.683 403.567 345.859 403.67L351.652 407.05C351.834 407.156 352.063 407.137 352.224 407.002L357.992 402.195C358.191 402.03 358.483 402.043 358.666 402.226L361.157 404.718C361.48 405.04 362.031 404.797 362.01 404.341L360.495 370.998C360.482 370.721 360.247 370.507 359.97 370.521Z" fill="#F8F8F8" stroke="#575553" stroke-width="1.3"/>
<circle cx="300.32" cy="432.777" r="28.213" fill="#FE7A7C"/>
<g clip-path="url(#clip0)">
<path d="M283.818 416.084L296.123 412.028L304.324 436.905L292.019 440.962L283.818 416.084ZM296.225 453.719L308.53 449.662L304.534 437.543L292.229 441.599L296.225 453.719ZM313.068 419.878C312.508 418.303 311.63 416.861 310.485 415.637C308.219 413.199 305.123 411.668 301.778 411.33C300.095 411.155 298.391 411.32 296.769 411.814L300.764 423.934L313.068 419.878ZM300.974 424.572L304.97 436.692C306.569 436.125 308.037 435.244 309.285 434.102C311.774 431.841 313.352 428.768 313.723 425.46C313.916 423.796 313.765 422.114 313.278 420.516L300.974 424.572Z" fill="white"/>
<path d="M297.861 411.976C298.052 412.209 298.454 412.35 298.702 412.527C299.033 412.762 299.349 413.018 299.647 413.293C300.395 413.993 301.036 414.798 301.548 415.682C301.905 416.286 302.184 416.927 302.482 417.561C302.683 417.991 303.025 418.688 302.598 419.1C302.436 419.257 302.103 419.336 302.061 419.036C302.054 418.98 302.063 418.924 302.089 418.873C302.114 418.823 302.154 418.781 302.204 418.753C302.41 418.641 302.469 418.838 302.307 418.966C302.258 419.014 302.201 419.052 302.138 419.079C302.074 419.105 302.006 419.118 301.938 419.118C301.82 419.101 301.731 419.011 301.626 418.956C301.44 418.876 301.232 418.856 301.032 418.901C300.123 419.039 299.302 419.525 298.748 420.254C298.786 420.013 298.901 419.789 299.077 419.617C299.347 419.323 299.652 419.063 299.985 418.84C300.379 418.535 300.839 418.324 301.328 418.226C301.416 418.208 301.507 418.213 301.592 418.243C301.656 418.28 301.71 418.332 301.748 418.395C301.786 418.458 301.807 418.529 301.81 418.603C301.87 419.062 301.902 419.525 301.906 419.989C301.907 420.407 301.923 420.885 301.687 421.255C301.618 421.373 301.516 421.469 301.393 421.532C301.27 421.595 301.132 421.622 300.995 421.609C300.901 421.594 300.797 421.535 300.794 421.44C300.792 421.36 300.864 421.297 300.933 421.252C301.321 420.998 301.79 420.895 302.248 420.962C302.288 420.968 302.333 420.979 302.352 421.014C302.378 421.062 302.338 421.119 302.3 421.159C301.914 421.557 301.408 421.823 300.859 421.916C300.704 421.942 300.517 421.942 300.425 421.817C300.323 421.68 300.401 421.484 300.497 421.341C300.883 420.765 301.801 420.052 302.5 420.529C302.642 420.644 302.743 420.802 302.788 420.978C302.833 421.154 302.82 421.341 302.751 421.51C302.603 421.848 302.354 422.132 302.038 422.326C300.964 423.065 299.001 424.132 298.017 424.976C297.355 425.579 296.816 426.301 296.429 427.103C295.823 428.276 295.402 429.571 295.448 430.883C295.494 432.194 296.057 433.52 297.119 434.298C297.371 434.489 297.656 434.635 297.959 434.73C298.816 434.982 299.78 434.682 300.468 434.107C301.453 433.283 301.915 431.835 301.424 430.667C301.094 429.881 300.405 429.305 299.707 428.808C298.819 428.175 297.762 427.595 296.679 427.792C296.119 427.916 295.6 428.182 295.173 428.563C294.316 429.277 293.684 430.219 293.352 431.274C293.074 432.164 293.051 433.218 293.652 433.927C293.805 434.109 294.005 434.284 294.018 434.521C294.014 434.649 293.964 434.773 293.877 434.87C293.791 434.967 293.672 435.031 293.543 435.051C293.281 435.082 293.019 435.011 292.811 434.853C292.212 434.446 291.928 433.693 291.928 432.972C291.927 432.251 292.17 431.551 292.443 430.879C293.248 428.904 294.334 427.049 295.667 425.373C296.009 424.981 296.308 424.555 296.561 424.103C296.815 423.644 296.881 423.109 296.746 422.607C296.454 422.899 296.162 423.191 295.871 423.483C295.533 423.863 295.128 424.179 294.676 424.416C294.211 424.624 293.624 424.641 293.23 424.326C294.059 423.704 294.824 422.945 295.212 421.994C295.415 421.497 295.509 420.963 295.725 420.473C296.075 419.676 296.744 418.989 296.829 418.127C296.873 417.691 296.68 417.395 296.594 416.966C296.514 416.451 296.501 415.927 296.555 415.407C296.56 415.074 296.612 414.742 296.711 414.422C296.816 414.129 296.998 413.867 297.115 413.579C297.336 413.034 297.669 411.825 297.86 411.976" stroke="#FE7A7C" stroke-miterlimit="10"/>
<path d="M302.11 419.165C302.47 419.764 303.22 420.042 303.802 420.379C304.461 420.786 305.146 421.151 305.852 421.474C305.898 421.493 305.944 421.512 305.991 421.531C306.348 421.652 306.693 421.802 307.024 421.98C307.358 422.161 307.605 422.466 307.711 422.828C307.853 423.444 307.382 424.08 306.852 424.393C306.745 424.458 306.626 424.5 306.502 424.515C305.829 424.586 305.548 423.775 305.012 423.432C304.921 423.456 304.844 423.515 304.796 423.594C304.748 423.674 304.733 423.769 304.755 423.859C304.807 424.037 304.906 424.198 305.043 424.323C305.31 424.617 305.684 424.938 306.058 424.796C306.551 424.609 306.53 423.803 307.016 423.599C307.188 423.58 307.277 423.825 307.197 423.978C307.095 424.118 306.966 424.236 306.818 424.327C306.684 424.437 306.572 424.621 306.651 424.773C306.704 424.852 306.779 424.914 306.868 424.95C307.274 425.165 307.699 425.459 307.783 425.907C307.873 426.389 307.535 426.84 307.216 427.219C306.883 427.616 306.818 427.86 306.447 428.222C306.685 427.676 306.901 427.244 306.998 426.659C307.013 426.523 307.042 426.389 307.085 426.259C307.159 426.086 307.291 425.944 307.459 425.856C307.628 425.769 307.821 425.743 308.006 425.782C308.056 425.789 308.102 425.816 308.132 425.855C308.152 425.896 308.157 425.943 308.145 425.987C308.066 426.469 307.602 426.789 307.358 427.215C307.338 427.246 307.326 427.281 307.325 427.317C307.332 427.351 307.348 427.382 307.373 427.406C307.397 427.43 307.427 427.448 307.461 427.455C307.608 427.509 307.773 427.509 307.919 427.567C308.188 427.673 308.339 427.948 308.47 428.203C308.525 428.293 308.56 428.394 308.573 428.499C308.567 428.615 308.521 428.726 308.443 428.814C308.364 428.902 308.259 428.961 308.143 428.982C307.909 429.017 307.67 428.991 307.452 428.905C307.079 428.789 306.924 428.548 306.576 428.373C306.857 428.29 306.87 427.967 307.263 427.435C307.388 427.668 307.703 427.715 307.901 427.888C308.059 428.058 308.163 428.268 308.203 428.496C308.325 428.939 308.031 429.012 307.99 429.382C307.95 429.726 308.202 430.127 308.43 430.356C308.679 430.605 308.98 430.811 309.163 431.11C309.255 431.261 309.313 431.43 309.334 431.605C309.355 431.781 309.339 431.959 309.286 432.128C309.071 432.802 308.348 433.167 307.694 433.457L303.05 435.52C301.478 436.218 299.951 436.85 298.2 436.48C297.437 436.318 296.721 436.002 295.981 435.761C295.667 435.669 295.359 435.559 295.058 435.432C294.887 435.365 294.739 435.249 294.634 435.1C294.576 435.026 294.549 434.932 294.56 434.838C294.571 434.745 294.618 434.659 294.692 434.598C294.766 434.538 294.86 434.509 294.955 434.517C295.05 434.524 295.138 434.568 295.2 434.639C295.331 434.774 295.418 434.945 295.447 435.13C295.476 435.315 295.525 435.495 295.592 435.669C295.745 435.939 295.975 436.157 296.254 436.297C296.863 436.642 297.51 436.918 298.182 437.12C298.781 437.336 299.411 437.457 300.05 437.481C300.743 437.481 301.483 437.263 301.958 436.736C302.165 436.507 302.172 436.212 301.864 436.073C301.364 435.847 300.577 436.088 300.324 436.581C299.953 437.305 300.811 437.711 301.229 438.131C302.061 438.965 301.872 440.195 301.686 441.247C301.472 442.311 301.408 443.399 301.496 444.478C301.64 445.671 301.99 446.83 302.532 447.903C302.532 447.903 303.368 450.153 304.799 450.861" stroke="#FE7A7C" stroke-linecap="round" stroke-linejoin="round"/>
<path d="M303.547 452.658L303.257 452.754L303.425 453.263L303.715 453.167L303.547 452.658Z" fill="white"/>
<path d="M303.823 453.494L303.533 453.59L304.305 455.931L304.595 455.835L303.823 453.494Z" fill="white"/>
<path d="M306.378 454.352L306.381 454.369C306.418 454.535 306.391 454.709 306.306 454.858C306.218 455.003 306.079 455.111 305.915 455.16C305.812 455.2 305.701 455.214 305.591 455.203C305.481 455.192 305.375 455.156 305.283 455.097C305.078 454.931 304.926 454.711 304.844 454.462C304.762 454.212 304.753 453.945 304.818 453.689C304.858 453.587 304.921 453.495 305.003 453.421C305.085 453.347 305.183 453.292 305.289 453.262C305.439 453.207 305.604 453.206 305.753 453.259C305.897 453.315 306.014 453.421 306.083 453.558L306.115 453.62L306.409 453.523L306.368 453.438C306.274 453.231 306.102 453.068 305.888 452.984C305.629 452.903 305.349 452.919 305.1 453.029C304.85 453.139 304.65 453.335 304.536 453.58C304.44 453.901 304.445 454.242 304.549 454.559C304.653 454.875 304.853 455.152 305.12 455.353C305.361 455.49 305.646 455.529 305.916 455.463C306.187 455.397 306.422 455.231 306.573 454.999C306.697 454.784 306.733 454.532 306.675 454.293L306.655 454.204L306.369 454.299L306.378 454.352Z" fill="white"/>
<path d="M306.789 452.517L306.498 452.613L307.27 454.954L307.561 454.858L306.789 452.517Z" fill="white"/>
<path d="M306.513 451.68L306.222 451.775L306.39 452.284L306.681 452.189L306.513 451.68Z" fill="white"/>
<path d="M309.818 453.833C309.809 453.836 309.8 453.841 309.792 453.846C309.775 453.854 309.752 453.864 309.74 453.868C309.672 453.89 309.651 453.871 309.642 453.862C309.584 453.787 309.543 453.699 309.522 453.606L309.171 452.542C309.14 452.438 309.098 452.337 309.046 452.242C309.008 452.18 308.958 452.125 308.9 452.081C308.795 452.006 308.67 451.964 308.54 451.962C308.387 451.957 308.234 451.981 308.09 452.033C307.852 452.099 307.643 452.243 307.498 452.441C307.437 452.533 307.397 452.638 307.381 452.747C307.365 452.856 307.374 452.966 307.408 453.071L307.431 453.153L307.714 453.059L307.695 452.985C307.674 452.918 307.669 452.847 307.68 452.777C307.691 452.707 307.717 452.641 307.758 452.583C307.868 452.445 308.02 452.346 308.191 452.3C308.328 452.244 308.479 452.234 308.621 452.271C308.675 452.29 308.722 452.322 308.76 452.364C308.798 452.405 308.824 452.456 308.838 452.51L308.899 452.695C308.921 452.761 308.801 452.861 308.579 452.963C308.49 453.004 308.419 453.038 308.355 453.069C308.105 453.173 307.884 453.336 307.711 453.542C307.654 453.627 307.618 453.724 307.607 453.825C307.596 453.926 307.609 454.028 307.646 454.122C307.674 454.216 307.721 454.304 307.785 454.378C307.85 454.453 307.929 454.513 308.019 454.555C308.207 454.637 308.421 454.642 308.614 454.569C308.81 454.509 308.989 454.404 309.138 454.265C309.212 454.173 309.279 454.075 309.338 453.973C309.368 454.03 309.41 454.08 309.462 454.118C309.51 454.149 309.564 454.168 309.621 454.173C309.677 454.179 309.735 454.17 309.787 454.148C309.81 454.14 309.833 454.13 309.854 454.119C309.878 454.107 309.897 454.099 309.911 454.093L309.981 454.063L309.896 453.806L309.818 453.833ZM309.015 453.046L309.08 453.242C309.127 453.366 309.153 453.496 309.157 453.628C309.153 453.718 309.125 453.806 309.077 453.883C309.02 453.972 308.947 454.05 308.862 454.113C308.771 454.181 308.669 454.235 308.56 454.27C308.432 454.322 308.29 454.325 308.161 454.279C308.105 454.251 308.056 454.212 308.018 454.164C307.979 454.116 307.951 454.061 307.936 454.001C307.913 453.945 307.906 453.883 307.915 453.823C307.925 453.763 307.95 453.706 307.989 453.658C308.151 453.497 308.344 453.37 308.556 453.284L308.588 453.269C308.608 453.26 308.631 453.25 308.657 453.237C308.782 453.184 308.902 453.12 309.015 453.046Z" fill="white"/>
<path d="M298.494 454.55C298.176 454.48 297.843 454.508 297.54 454.632L296.625 454.933L297.674 458.115L297.977 458.015L297.517 456.618L298.116 456.421C298.318 456.361 298.511 456.276 298.692 456.169C298.813 456.09 298.911 455.981 298.976 455.854C299.033 455.744 299.065 455.623 299.071 455.5C299.077 455.37 299.059 455.241 299.016 455.118C298.984 454.988 298.919 454.868 298.828 454.769C298.736 454.67 298.622 454.594 298.494 454.55ZM298.704 455.205C298.748 455.328 298.759 455.461 298.737 455.59C298.72 455.697 298.666 455.796 298.586 455.869C298.527 455.92 298.461 455.963 298.39 455.995C298.24 456.061 298.086 456.118 297.929 456.167L297.423 456.334L297.022 455.118L297.531 454.95C297.69 454.894 297.852 454.849 298.017 454.815C298.104 454.8 298.193 454.799 298.28 454.812C298.377 454.829 298.468 454.873 298.54 454.939C298.617 455.012 298.674 455.104 298.704 455.205L298.704 455.205Z" fill="white"/>
<path d="M301.569 453.575L301.276 453.671L301.473 454.27L301.193 454.362L301.283 454.634L301.563 454.542L302.106 456.188C302.136 456.315 302.208 456.429 302.311 456.512C302.361 456.542 302.419 456.559 302.478 456.563C302.537 456.567 302.597 456.557 302.651 456.534C302.69 456.521 302.727 456.505 302.762 456.485C302.796 456.468 302.835 456.446 302.886 456.415L302.94 456.381L302.848 456.1L302.757 456.157C302.725 456.178 302.693 456.198 302.659 456.216C302.634 456.229 302.607 456.24 302.58 456.248C302.525 456.267 302.5 456.253 302.483 456.238C302.42 456.153 302.376 456.055 302.352 455.952L301.856 454.446L302.259 454.313L302.169 454.041L301.766 454.174L301.569 453.575Z" fill="white"/>
<path d="M301.75 456.498C301.722 456.51 301.706 456.517 301.696 456.52C301.629 456.542 301.607 456.523 301.598 456.515C301.54 456.439 301.499 456.352 301.479 456.259L301.128 455.194C301.097 455.09 301.055 454.99 301.003 454.895C300.965 454.832 300.915 454.777 300.856 454.733C300.752 454.658 300.627 454.617 300.497 454.614C300.344 454.609 300.191 454.634 300.047 454.686C299.809 454.752 299.601 454.896 299.456 455.094C299.394 455.186 299.354 455.29 299.338 455.399C299.323 455.508 299.332 455.619 299.365 455.723L299.389 455.805L299.672 455.711L299.652 455.638C299.632 455.57 299.627 455.499 299.638 455.429C299.649 455.36 299.675 455.293 299.716 455.235C299.826 455.097 299.978 454.998 300.149 454.952C300.286 454.897 300.437 454.886 300.579 454.923C300.632 454.943 300.679 454.975 300.717 455.016C300.755 455.058 300.782 455.108 300.796 455.162L300.856 455.347C300.878 455.413 300.758 455.513 300.536 455.615C300.45 455.654 300.38 455.688 300.326 455.715L300.312 455.722C300.062 455.825 299.841 455.988 299.668 456.195C299.611 456.28 299.576 456.377 299.564 456.477C299.553 456.578 299.566 456.68 299.603 456.774C299.63 456.869 299.678 456.956 299.742 457.031C299.806 457.105 299.886 457.166 299.976 457.208C300.164 457.289 300.378 457.294 300.571 457.222C300.767 457.161 300.946 457.057 301.096 456.917C301.169 456.825 301.236 456.727 301.295 456.625C301.325 456.682 301.367 456.732 301.42 456.77C301.467 456.801 301.521 456.82 301.578 456.826C301.635 456.831 301.692 456.822 301.745 456.8C301.768 456.792 301.79 456.782 301.811 456.771C301.835 456.76 301.854 456.751 301.868 456.745L301.938 456.715L301.853 456.458L301.775 456.484C301.766 456.487 301.757 456.492 301.75 456.498ZM300.972 455.698L301.037 455.895C301.083 456.018 301.11 456.148 301.116 456.28C301.111 456.37 301.083 456.459 301.034 456.536C300.977 456.625 300.905 456.703 300.82 456.766C300.728 456.834 300.626 456.887 300.517 456.923C300.389 456.975 300.247 456.979 300.118 456.932C300.062 456.905 300.014 456.865 299.975 456.818C299.936 456.77 299.908 456.714 299.892 456.654C299.87 456.598 299.863 456.536 299.872 456.476C299.882 456.416 299.907 456.359 299.946 456.312C300.107 456.15 300.3 456.023 300.513 455.937L300.545 455.923C300.565 455.914 300.588 455.903 300.614 455.89C300.739 455.837 300.859 455.772 300.972 455.698Z" fill="white"/>
<path d="M302.845 453.904C302.81 453.958 302.781 454.016 302.758 454.076L302.69 453.869L302.396 453.966L303.167 456.306L303.461 456.209L303.086 455.071C302.98 454.82 302.943 454.545 302.977 454.274C303.005 454.188 303.054 454.11 303.121 454.047C303.187 453.984 303.268 453.939 303.356 453.915L303.43 453.887L303.337 453.605L303.259 453.631C303.096 453.679 302.952 453.774 302.845 453.904Z" fill="white"/>
</g>
<rect x="334.59" y="415.748" width="38.3271" height="3.19392" rx="1.59696" transform="rotate(-4.74706 334.59 415.748)" fill="#5F523E"/>
<rect x="335.119" y="422.113" width="31.3766" height="3.19392" rx="1.59696" transform="rotate(-4.74706 335.119 422.113)" fill="#5F523E"/>
<rect x="335.985" y="434.354" width="38.3271" height="3.19392" rx="1.59696" transform="rotate(-4.74706 335.985 434.354)" fill="#5F523E"/>
<rect x="335.119" y="427.963" width="21.7558" height="3.19392" rx="1.59696" transform="rotate(-4.74706 335.119 427.963)" fill="#5F523E"/>
<rect x="359.407" y="425.529" width="14.2547" height="3.19392" rx="1.59696" transform="rotate(-4.74706 359.407 425.529)" fill="#5F523E"/>
<path d="M334.685 154.81L340.588 145.463H346.888L352.318 154.843C352.704 155.51 352.223 156.344 351.453 156.344H335.53C334.743 156.344 334.264 155.476 334.685 154.81Z" fill="#F9DA73" stroke="#4E5A56" stroke-width="4"/>
<path d="M408.457 73.3049C408.457 112.842 378.946 144.61 342.879 144.61C306.811 144.61 277.301 112.842 277.301 73.3049C277.301 33.768 306.811 2 342.879 2C378.946 2 408.457 33.768 408.457 73.3049Z" fill="#A3DDFF" stroke="#575553" stroke-width="4"/>
<path fill-rule="evenodd" clip-rule="evenodd" d="M344.024 142.028C378.183 142.028 405.875 112.542 405.875 76.1684C405.875 39.7951 378.183 10.3086 344.024 10.3086C338.772 10.3086 333.672 11.0058 328.802 12.318C336.114 12.4928 343.199 15.2468 348.588 20.6356C360.311 32.358 359.565 52.1092 346.924 64.751C334.282 77.3928 314.531 78.1381 302.808 66.4157C294.136 57.7433 292.287 44.6766 297.031 33.3453C287.768 44.8597 282.173 59.8183 282.173 76.1684C282.173 112.542 309.865 142.028 344.024 142.028Z" fill="#64C5FF"/>
<circle cx="292.335" cy="74.5244" r="5.32321" fill="#A4DCFF"/>
<circle cx="295.529" cy="85.1705" r="3.19392" fill="#A4DCFF"/>
<path d="M295.345 117.974C304.157 130.632 316.69 137.733 331.425 140.882C346.16 144.031 362.763 140.623 375.675 132.608C388.587 124.594 398.137 111.847 402.439 96.8815C406.741 81.9165 408.656 63.3003 402.086 49.2509L399.796 48.1055C406.027 61.4315 402.51 82.0173 398.43 96.2118C394.349 110.406 386.624 121.254 374.377 128.855C362.129 136.457 346.546 141.578 332.57 138.591C318.594 135.604 300.84 124.253 292.481 112.247L295.345 117.974Z" fill="#5AA5D2"/>
<path d="M391.257 51.7574C391.116 51.0534 391.655 50.3965 392.373 50.3965C392.902 50.3965 393.361 50.7608 393.481 51.2757L394.566 55.9256C396.354 63.5905 396.354 71.5642 394.566 79.229L393.481 83.8789C393.361 84.3938 392.902 84.7581 392.373 84.7581C391.655 84.7581 391.116 84.1013 391.257 83.3972L392.429 77.5393C393.744 70.9631 393.744 64.1915 392.429 57.6153L391.257 51.7574Z" fill="#30694F"/>
<ellipse cx="313.851" cy="25.7434" rx="11.76" ry="6.00581" transform="rotate(-48.8221 313.851 25.7434)" fill="#C7E9FE"/>
<path d="M338.371 158.105L348.761 360.912" stroke="#4E5A56" stroke-width="5"/>
<path d="M285.429 248.893L288.712 238.337L294.797 236.706L302.47 244.361C303.015 244.905 302.767 245.836 302.023 246.035L286.642 250.156C285.882 250.36 285.195 249.645 285.429 248.893Z" fill="#F9DA73" stroke="#4E5A56" stroke-width="4"/>
<path d="M335.591 151.068C345.824 189.258 325.542 227.581 290.703 236.916C255.864 246.251 219.137 223.204 208.905 185.014C198.672 146.824 218.954 108.501 253.793 99.166C288.632 89.831 325.358 112.879 335.591 151.068Z" fill="#FEE8A2" stroke="#575553" stroke-width="4"/>
<path fill-rule="evenodd" clip-rule="evenodd" d="M291.141 234.128C324.137 225.286 343.253 189.638 333.839 154.504C324.425 119.37 290.045 98.055 257.05 106.896C251.976 108.255 247.231 110.249 242.868 112.776C249.975 111.053 257.531 111.879 264.131 115.69C278.488 123.979 282.88 143.25 273.941 158.733C265.002 174.216 246.116 180.048 231.76 171.759C221.138 165.626 215.971 153.484 217.62 141.311C211.653 154.831 210.12 170.727 214.352 186.52C223.766 221.654 258.146 242.969 291.141 234.128Z" fill="#FFD964"/>
<path d="M237.895 223.493C249.684 233.438 263.627 237.054 278.675 236.282C293.723 235.51 308.878 227.921 319.276 216.838C329.674 205.754 335.599 190.97 335.881 175.401C336.163 159.833 333.195 141.355 323.213 129.485L320.704 128.971C330.172 140.23 332.103 161.025 331.835 175.792C331.568 190.559 326.913 203.036 317.051 213.548C307.188 224.061 293.461 233.041 279.188 233.773C264.915 234.505 244.828 228.135 233.647 218.702L237.895 223.493Z" fill="#E9C763"/>
<path d="M313.402 134.709C313.083 134.065 313.433 133.291 314.127 133.106C314.638 132.969 315.175 133.202 315.425 133.668L317.676 137.879C321.388 144.82 323.451 152.522 323.708 160.388L323.863 165.16C323.88 165.689 323.531 166.16 323.02 166.296C322.327 166.482 321.637 165.987 321.591 165.271L321.206 159.309C320.774 152.617 319.022 146.076 316.049 140.064L313.402 134.709Z" fill="#30694F"/>
<ellipse cx="231.899" cy="129.615" rx="11.76" ry="6.00582" transform="rotate(-63.8221 231.899 129.615)" fill="#FFF3CF"/>
<path d="M295.291 249.617L351.955 369.432" stroke="#4E5A56" stroke-width="5"/>
<path d="M382.742 227.721L390.863 220.22L396.948 221.851L399.766 232.317C399.966 233.06 399.286 233.742 398.542 233.543L383.161 229.421C382.401 229.218 382.163 228.255 382.742 227.721Z" fill="#FE7A7C" stroke="#4E5A56" stroke-width="4"/>
<path d="M475.095 168.083C464.863 206.273 428.136 229.32 393.297 219.985C358.458 210.65 338.176 172.327 348.409 134.137C358.642 95.9475 395.368 72.8998 430.207 82.2348C465.046 91.5698 485.328 129.893 475.095 168.083Z" fill="#FFAFAF" stroke="#575553" stroke-width="4"/>
<path fill-rule="evenodd" clip-rule="evenodd" d="M395.071 217.788C428.067 226.63 462.446 205.315 471.861 170.181C481.275 135.047 462.158 99.3981 429.163 90.557C424.09 89.1976 418.984 88.5512 413.94 88.5583C420.957 90.6195 427.089 95.1136 430.899 101.713C439.188 116.07 433.356 134.956 417.873 143.895C402.39 152.834 383.119 148.442 374.83 134.085C368.698 123.463 370.294 110.363 377.809 100.646C365.882 109.371 356.605 122.371 352.374 138.165C342.96 173.299 362.076 208.947 395.071 217.788Z" fill="#FE7A7C"/>
<path d="M354.276 181.956C359.512 196.463 369.78 206.565 383.197 213.421C396.615 220.277 413.535 221.282 428.082 216.882C442.628 212.483 455.151 202.641 463.18 189.3C471.209 175.958 477.877 158.472 475.167 143.201L473.251 141.501C475.821 155.986 467.096 174.96 459.481 187.615C451.866 200.27 441.596 208.748 427.799 212.921C414.001 217.094 397.624 218.007 384.897 211.505C372.17 205.002 357.959 189.443 352.992 175.683L354.276 181.956Z" fill="#DD6869"/>
<path d="M464.059 142.819C464.105 142.102 464.795 141.607 465.489 141.793C466 141.93 466.349 142.4 466.332 142.929L466.176 147.701C465.92 155.568 463.856 163.27 460.145 170.21L457.893 174.421C457.644 174.887 457.106 175.12 456.595 174.984C455.902 174.798 455.552 174.024 455.87 173.38L458.518 168.025C461.49 162.014 463.243 155.473 463.674 148.78L464.059 142.819Z" fill="#30694F"/>
<ellipse cx="396.023" cy="97.6565" rx="11.76" ry="6.00582" transform="rotate(-33.8221 396.023 97.6565)" fill="#FFCFCF"/>
<path d="M390.921 233.277L354.458 369.36" stroke="#4E5A56" stroke-width="5"/>
<path d="M343.342 236.412L348.761 227.832H354.616L359.603 236.445C359.989 237.112 359.508 237.946 358.738 237.946H344.187C343.4 237.946 342.921 237.078 343.342 236.412Z" fill="#50DD9B" stroke="#4E5A56" stroke-width="4"/>
<path d="M411.704 160.76C411.704 197.443 384.327 226.897 350.89 226.897C317.454 226.897 290.076 197.443 290.076 160.76C290.076 124.077 317.454 94.623 350.89 94.623C384.327 94.623 411.704 124.077 411.704 160.76Z" fill="#93E7BF" stroke="#575553" stroke-width="4"/>
<path fill-rule="evenodd" clip-rule="evenodd" d="M351.955 224.637C383.706 224.637 409.445 197.229 409.445 163.42C409.445 129.611 383.706 102.203 351.955 102.203C347.071 102.203 342.33 102.851 337.803 104.072C344.6 104.233 351.187 106.793 356.197 111.803C367.093 122.699 366.4 141.058 354.65 152.808C342.899 164.559 324.541 165.252 313.645 154.356C305.583 146.294 303.865 134.148 308.276 123.614C299.665 134.317 294.464 148.222 294.464 163.42C294.464 197.229 320.204 224.637 351.955 224.637Z" fill="#4FDD9B"/>
<path d="M306.708 202.281C314.899 214.046 326.547 220.647 340.244 223.574C353.94 226.501 369.373 223.333 381.375 215.884C393.377 208.434 402.253 196.585 406.252 182.675C410.25 168.765 412.03 151.462 405.924 138.403L403.795 137.338C409.587 149.724 406.318 168.859 402.525 182.053C398.732 195.247 391.552 205.329 380.168 212.395C368.784 219.461 354.299 224.221 341.308 221.445C328.317 218.668 311.815 208.117 304.046 196.958L306.708 202.281Z" fill="#46C88F"/>
<path d="M395.858 140.732C395.727 140.077 396.228 139.467 396.895 139.467C397.387 139.467 397.814 139.805 397.925 140.284L398.934 144.606C400.596 151.731 400.596 159.142 398.934 166.267L397.925 170.589C397.814 171.067 397.387 171.406 396.895 171.406C396.228 171.406 395.727 170.795 395.858 170.141L396.947 164.696C398.17 158.584 398.17 152.289 396.947 146.177L395.858 140.732Z" fill="#30694F"/>
<ellipse cx="306.175" cy="169.276" rx="6.38785" ry="5.32321" fill="#93E7BF"/>
<ellipse cx="323.596" cy="115.759" rx="8.53815" ry="4.36041" transform="rotate(-48.8221 323.596 115.759)" fill="#BDF0DB"/>
<path d="M351.955 239.545V370.496" stroke="#4E5A56" stroke-width="5"/>
<defs>
<clipPath id="clip0">
<rect width="26.5921" height="44.3202" fill="white" transform="translate(283.818 416.084) rotate(-18.2459)"/>
</clipPath>
</defs>
</svg>
