<?xml version="1.0" standalone="no"?>
<!DOCTYPE svg PUBLIC "-//W3C//DTD SVG 20010904//EN"
 "http://www.w3.org/TR/2001/REC-SVG-20010904/DTD/svg10.dtd">
<svg version="1.0" xmlns="http://www.w3.org/2000/svg"
 width="1064.000000pt" height="1064.000000pt" viewBox="0 0 1064.000000 1064.000000"
 preserveAspectRatio="xMidYMid meet">
<metadata>
Created by potrace 1.11, written by Peter Selinger 2001-2013
</metadata>
<g transform="translate(0.000000,1064.000000) scale(0.100000,-0.100000)"
fill="#000000" stroke="none">
<path d="M2180 7495 l0 -3145 1075 0 c591 0 1075 3 1075 8 0 4 -11 24 -24 45
-20 32 -35 43 -87 61 -206 73 -464 246 -690 463 -126 122 -177 188 -212 274
-14 35 -38 69 -67 94 -24 22 -53 49 -63 60 -32 37 -67 114 -67 151 0 31 -3 35
-17 29 -97 -41 -130 -43 -210 -13 -149 55 -253 248 -253 468 0 117 18 188 84
326 66 138 126 227 252 374 330 385 749 758 1139 1013 118 77 188 129 247 183
47 44 108 114 108 126 0 4 -60 -22 -133 -58 -218 -106 -377 -135 -508 -95
-105 33 -160 79 -271 227 -6 9 26 23 109 49 202 63 391 175 529 311 33 33 98
113 144 179 116 166 151 206 301 336 129 112 206 200 236 268 9 21 18 89 23
166 9 146 17 190 61 323 67 206 137 343 223 439 l56 61 0 211 0 211 -1530 0
-1530 0 0 -3145z"/>
<path d="M5410 10536 c0 -58 2 -106 4 -106 2 0 28 30 58 66 66 82 124 119 173
110 29 -6 44 -20 91 -84 31 -42 71 -93 89 -112 113 -121 270 -417 359 -678 77
-226 112 -396 151 -750 22 -191 24 -237 15 -296 -14 -88 -52 -159 -107 -198
-34 -25 -40 -34 -33 -48 9 -17 62 -76 370 -416 71 -78 188 -193 262 -256 73
-63 147 -131 165 -151 l32 -37 717 0 716 0 -7 93 c-41 568 -206 1052 -521
1527 -415 625 -1049 1100 -1754 1313 -203 62 -451 106 -687 122 l-93 7 0 -106z"/>
<path d="M5573 10363 c-22 -26 -67 -85 -101 -130 l-62 -82 0 -670 0 -670 44
19 c121 52 250 82 371 87 75 3 136 1 162 -6 75 -21 133 -88 133 -156 0 -18 5
-25 19 -25 11 0 26 -3 35 -6 23 -9 21 59 -9 306 -49 415 -119 670 -261 952
-82 163 -141 250 -289 426 -1 1 -20 -19 -42 -45z"/>
<path d="M5218 9924 c-31 -57 -99 -237 -124 -329 -17 -60 -28 -134 -33 -225
-14 -233 -59 -309 -316 -535 -96 -84 -161 -150 -201 -206 -32 -44 -92 -125
-132 -179 -110 -150 -284 -291 -476 -385 -85 -42 -88 -44 -60 -52 57 -16 147
-7 239 25 50 17 196 85 325 151 129 67 238 121 243 121 5 0 6 -40 2 -92 -20
-278 -106 -398 -450 -630 -350 -236 -546 -397 -831 -682 -320 -320 -452 -483
-535 -662 -69 -145 -84 -251 -54 -367 38 -148 128 -243 190 -203 21 14 22 19
14 58 -6 23 -14 47 -19 53 -22 27 -43 136 -43 225 0 122 21 209 82 335 112
231 294 425 536 570 112 68 282 140 356 151 40 6 58 20 199 159 307 301 494
403 955 523 l150 39 3 342 c1 187 0 341 -3 341 -3 0 -51 -32 -107 -70 -56 -39
-103 -68 -105 -66 -9 9 150 309 182 345 l35 39 -2 618 c-3 589 -4 617 -20 588z"/>
<path d="M5565 8623 c-11 -2 -50 -13 -87 -24 l-68 -20 0 -212 c0 -211 0 -212
19 -181 58 95 275 203 408 204 31 0 33 2 52 68 33 113 34 116 14 134 -10 9
-38 21 -63 27 -44 10 -235 13 -275 4z"/>
<path d="M6037 8384 c-15 -16 -5 -35 38 -75 77 -71 105 -188 68 -295 -11 -34
-35 -67 -77 -110 -93 -93 -143 -115 -441 -190 -240 -60 -215 -49 -215 -94 l0
-40 701 0 701 0 -63 53 c-114 94 -208 188 -408 410 -202 225 -255 287 -281
326 -8 12 -18 19 -23 15z"/>
<path d="M5410 7935 l0 -105 28 6 c225 50 474 125 461 139 -3 2 -27 -3 -54
-12 -65 -21 -273 -24 -328 -5 -21 8 -54 29 -73 48 l-34 35 0 -106z"/>
<path d="M5100 7584 c-397 -110 -566 -197 -787 -408 l-94 -89 83 -24 c178 -52
332 -168 501 -380 252 -316 358 -577 327 -810 -25 -193 -97 -340 -235 -479
-96 -97 -167 -144 -300 -199 -111 -46 -185 -58 -312 -53 -182 8 -311 66 -443
198 -118 118 -209 301 -251 505 -24 114 -25 320 -4 434 28 145 109 353 194
499 23 39 41 73 41 76 0 11 -144 -65 -226 -119 -164 -109 -319 -279 -399 -439
-85 -170 -99 -309 -45 -443 17 -42 33 -102 37 -133 l6 -58 35 15 c79 33 165
-7 209 -96 24 -49 27 -65 26 -150 l-1 -96 115 -90 c295 -231 433 -316 598
-368 133 -42 195 -50 239 -32 99 42 220 39 310 -7 42 -22 60 -21 404 14 l112
11 0 1378 c0 759 -3 1379 -7 1378 -5 0 -64 -16 -133 -35z"/>
<path d="M5410 6144 l0 -1266 43 6 c23 3 224 24 447 46 223 22 442 47 488 56
196 36 294 120 296 255 1 50 -7 70 -72 200 -64 126 -74 153 -79 215 -3 39 -1
93 6 124 10 48 10 55 -6 64 -61 34 -210 213 -240 288 -15 36 -14 42 1 71 9 18
49 69 90 115 40 46 95 122 122 168 77 134 104 166 168 200 l58 31 -51 64 c-29
35 -60 78 -71 95 -19 29 -23 31 -70 26 -40 -4 -60 1 -105 22 -65 32 -101 74
-157 181 -35 68 -42 91 -46 155 -4 68 -2 79 22 113 l25 37 -434 0 -435 0 0
-1266z"/>
<path d="M6490 7377 c11 -19 39 -76 61 -128 22 -52 45 -100 51 -107 8 -9 21
-2 58 32 89 84 171 106 237 66 l33 -20 16 32 c18 35 22 87 11 131 l-7 27 -240
0 -239 0 19 -33z"/>
<path d="M7125 7328 c0 -72 -4 -91 -29 -143 -50 -100 -140 -176 -273 -230
l-55 -23 31 -35 c41 -46 98 -142 106 -177 3 -15 16 -32 31 -38 31 -15 64 -69
64 -105 0 -62 -72 -150 -178 -218 -37 -24 -68 -44 -70 -45 -2 -1 16 -21 41
-43 53 -49 92 -130 107 -223 12 -81 3 -135 -34 -182 -25 -33 -97 -76 -128 -76
-29 0 -43 -31 -43 -94 0 -55 7 -74 68 -196 80 -160 96 -222 80 -315 -23 -136
-96 -231 -226 -295 -111 -55 -204 -72 -627 -115 -195 -20 -395 -40 -445 -45
-49 -5 -100 -10 -112 -10 l-23 0 0 -186 0 -185 73 6 c505 42 835 133 1239 342
609 315 1101 809 1410 1418 203 401 299 747 334 1208 l6 87 -673 0 -674 0 0
-82z"/>
<path d="M4068 6911 c-67 -53 -229 -350 -287 -527 -92 -283 -57 -584 95 -831
98 -158 264 -253 444 -253 88 0 165 21 279 76 130 63 240 171 299 294 96 196
97 361 6 560 -77 165 -283 439 -410 544 -113 93 -212 137 -339 151 -52 6 -64
4 -87 -14z"/>
<path d="M6541 6126 l-34 -35 61 -60 c33 -34 68 -61 78 -61 15 0 16 8 11 61
-4 52 -10 67 -38 95 -18 19 -36 34 -39 34 -3 0 -21 -15 -39 -34z"/>
<path d="M3280 5515 c0 -5 5 -17 10 -25 5 -8 10 -10 10 -5 0 6 -5 17 -10 25
-5 8 -10 11 -10 5z"/>
<path d="M4010 4750 c27 -21 221 -123 225 -118 1 2 5 15 9 30 6 25 3 27 -47
38 -28 7 -88 25 -132 41 -67 24 -76 26 -55 9z"/>
<path d="M5043 4681 c-89 -9 -164 -19 -166 -21 -2 -3 -9 -24 -15 -47 -25 -84
-126 -148 -286 -179 l-86 -17 18 -31 18 -31 357 -3 357 -2 0 175 c0 161 -1
175 -17 174 -10 -1 -91 -9 -180 -18z"/>
<path d="M4413 4649 c-22 -22 -16 -56 11 -63 49 -12 246 29 262 55 3 5 -25 9
-63 9 -37 0 -97 3 -133 6 -47 4 -69 2 -77 -7z"/>
<path d="M2180 2660 l0 -1530 1015 0 1014 0 -49 78 c-92 141 -164 363 -195
597 -31 235 -36 296 -42 461 -16 465 72 819 328 1319 133 261 171 366 173 485
0 47 -2 93 -6 103 -7 16 -70 17 -1123 17 l-1115 0 0 -1530z"/>
<path d="M4588 4111 c8 -163 -38 -304 -198 -616 -112 -217 -174 -367 -224
-542 -81 -281 -103 -580 -66 -898 5 -44 14 -125 20 -180 31 -277 104 -486 224
-646 31 -41 56 -80 56 -86 0 -10 90 -13 420 -13 l420 0 0 1530 0 1530 -328 0
-327 0 3 -79z"/>
<path d="M2180 420 l0 -400 40 0 40 0 0 174 0 174 143 4 c152 4 194 16 244 70
57 60 72 190 30 263 -50 88 -130 115 -344 115 l-153 0 0 -400z m374 305 c71
-34 94 -132 51 -216 -27 -51 -65 -63 -212 -67 l-133 -4 0 157 0 158 128 -5
c95 -3 137 -9 166 -23z"/>
<path d="M3830 755 l0 -65 35 0 35 0 0 65 0 65 -35 0 -35 0 0 -65z"/>
<path d="M4570 755 l0 -65 35 0 35 0 0 65 0 65 -35 0 -35 0 0 -65z"/>
<path d="M3320 685 l0 -75 -35 0 c-33 0 -35 -2 -35 -35 0 -33 2 -35 35 -35
l35 0 0 -229 c0 -126 4 -241 10 -255 16 -42 52 -59 110 -51 49 7 50 7 50 42
l0 35 -39 -7 c-33 -5 -41 -3 -50 14 -7 12 -11 101 -11 235 l0 216 50 0 50 0 0
35 0 35 -50 0 -50 0 0 75 0 75 -35 0 -35 0 0 -75z"/>
<path d="M2876 606 c-82 -30 -126 -80 -133 -151 l-6 -46 34 3 c29 3 34 8 40
36 13 65 71 102 159 102 56 0 104 -20 120 -49 14 -28 12 -96 -3 -109 -7 -7
-60 -18 -118 -27 -57 -9 -127 -26 -156 -40 -172 -78 -109 -324 83 -325 56 0
137 26 172 55 34 29 42 31 42 11 0 -25 50 -56 91 -56 38 0 39 1 39 35 0 32 -2
35 -30 35 -39 0 -39 2 -42 242 -3 222 -7 235 -82 272 -51 25 -159 31 -210 12z
m215 -418 c-16 -52 -68 -94 -136 -108 -68 -14 -105 -7 -139 27 -30 30 -36 95
-11 130 19 27 86 49 200 65 l90 13 3 -45 c2 -25 -1 -61 -7 -82z"/>
<path d="M3697 606 c-21 -8 -47 -22 -58 -32 -18 -16 -19 -16 -19 9 0 24 -4 27
-35 27 l-35 0 0 -295 0 -295 35 0 35 0 0 175 c0 95 5 198 11 227 15 68 59 115
118 124 40 6 42 8 39 38 -4 37 -31 44 -91 22z"/>
<path d="M4167 604 c-115 -35 -185 -166 -174 -323 11 -165 94 -264 232 -278
128 -13 236 68 259 195 6 33 6 33 -31 30 -32 -3 -38 -7 -46 -37 -12 -50 -36
-80 -78 -102 -42 -21 -103 -25 -146 -8 -95 36 -146 184 -108 314 22 77 48 113
99 136 54 24 100 24 153 -2 33 -16 48 -31 65 -70 21 -45 26 -49 57 -49 32 0
33 1 27 31 -17 84 -67 139 -152 165 -58 17 -95 17 -157 -2z"/>
<path d="M4876 606 c-22 -8 -51 -23 -65 -34 -32 -23 -71 -97 -71 -134 0 -25 3
-28 35 -28 29 0 35 4 35 20 0 97 160 158 251 97 31 -21 34 -28 37 -79 3 -66 9
-62 -130 -83 -121 -18 -198 -52 -227 -99 -26 -41 -28 -124 -4 -173 48 -102
216 -123 331 -42 23 17 42 25 42 19 0 -6 11 -22 25 -35 18 -18 35 -25 65 -25
39 0 40 1 40 35 0 32 -2 35 -30 35 -35 0 -32 -18 -30 200 1 219 -15 276 -94
317 -42 22 -162 27 -210 9z m214 -429 c-13 -44 -61 -80 -133 -98 -91 -22 -167
23 -167 100 1 75 42 96 255 129 l50 7 3 -50 c2 -27 -2 -67 -8 -88z"/>
<path d="M3830 315 l0 -295 35 0 35 0 0 295 0 295 -35 0 -35 0 0 -295z"/>
<path d="M4570 315 l0 -295 35 0 35 0 0 295 0 295 -35 0 -35 0 0 -295z"/>
</g>
</svg>
