<svg width="102" height="112" viewBox="0 0 102 112" fill="none" xmlns="http://www.w3.org/2000/svg">
<g clip-path="url(#clip0)" filter="url(#filter0_d)">
<g filter="url(#filter1_dd)">
<path fill-rule="evenodd" clip-rule="evenodd" d="M37.0755 5.62521C37.7031 3.5071 39.929 2.29884 42.0471 2.92647L74.3738 12.5055C75.3921 12.8072 76.2486 13.5016 76.7545 14.4355L86.8564 33.0843C87.3611 34.0161 87.4755 35.11 87.1744 36.126L73.5402 82.1381C72.9125 84.2562 70.6867 85.4644 68.5686 84.8368L21.8754 71.0007C19.7573 70.3731 18.549 68.1472 19.1767 66.0291L37.0755 5.62521Z" fill="url(#paint0_linear)"/>
<path d="M37.5549 5.76726C38.1041 3.91392 40.0517 2.85669 41.905 3.40587L74.2317 12.9849C75.1228 13.2489 75.8722 13.8565 76.3149 14.6736L86.4168 33.3225C86.8584 34.1377 86.9585 35.0949 86.695 35.9839L73.0608 81.996C72.5116 83.8494 70.564 84.9066 68.7106 84.3574L22.0174 70.5213C20.1641 69.9721 19.1069 68.0245 19.6561 66.1712L37.5549 5.76726Z" stroke="url(#paint1_linear)"/>
</g>
<path d="M41.2337 9.70834C41.4814 8.87268 42.3595 8.39598 43.1952 8.64361L71.9352 17.1598C72.3405 17.2799 72.6806 17.5575 72.8795 17.9305L81.7787 34.6221C81.9737 34.9878 82.0169 35.4155 81.8992 35.8129L69.382 78.0553C69.1344 78.8909 68.2562 79.3676 67.4205 79.12L25.9528 66.8323C25.1171 66.5847 24.6404 65.7065 24.888 64.8709L41.2337 9.70834Z" fill="url(#paint2_linear)" stroke="url(#paint3_linear)" stroke-width="0.84375"/>
<path d="M22.8517 53.6285C23.1655 52.5695 24.2785 51.9653 25.3375 52.2792L48.6841 59.1972C49.7431 59.511 50.3473 60.6239 50.0335 61.683L47.5838 69.9499C47.27 71.009 46.1571 71.6131 45.098 71.2993L19.8338 63.813L22.8517 53.6285Z" fill="#E3E9EF" style="mix-blend-mode:multiply"/>
<g filter="url(#filter2_dd)">
<rect x="44.583" y="13.5518" width="17.325" height="34.7111" rx="1" transform="rotate(16.5056 44.583 13.5518)" fill="url(#paint4_linear)"/>
<rect x="44.2457" y="12.9303" width="18.325" height="35.7111" rx="1.5" transform="rotate(16.5056 44.2457 12.9303)" stroke="url(#paint5_linear)"/>
</g>
<rect x="17.8271" y="48.4082" width="34.65" height="12.6222" rx="2" transform="rotate(16.5056 17.8271 48.4082)" fill="url(#paint6_linear)"/>
<path d="M25.6474 54.0554L26.3757 54.2505L25.3333 58.1406C25.1924 58.6663 24.9238 59.0351 24.5273 59.247C24.1333 59.4596 23.6735 59.4954 23.1477 59.3546C22.6019 59.2083 22.2142 58.9548 21.9846 58.594C21.7551 58.2333 21.7077 57.8013 21.8425 57.2983L22.567 57.4924C22.4827 57.8068 22.5025 58.075 22.6264 58.2969C22.7528 58.5195 22.9795 58.6746 23.3065 58.7622C23.6058 58.8424 23.8726 58.8128 24.1067 58.6733C24.3434 58.5345 24.5085 58.2957 24.602 57.9568L25.6474 54.0554ZM27.4382 58.1182L26.8619 60.2689L26.1374 60.0748L27.6095 54.5811L29.6357 55.124C30.2368 55.2851 30.6661 55.5646 30.9235 55.9624C31.1833 56.361 31.2455 56.8131 31.1101 57.3187C30.9672 57.8519 30.6897 58.2184 30.2776 58.418C29.8688 58.6158 29.3537 58.6315 28.7323 58.465L27.4382 58.1182ZM27.5969 57.5258L28.8986 57.8746C29.286 57.9784 29.6071 57.9674 29.8619 57.8416C30.1173 57.7132 30.2912 57.4767 30.3836 57.1321C30.4712 56.8051 30.4382 56.5158 30.2845 56.2644C30.1308 56.0129 29.8751 55.8352 29.5174 55.7313L28.1742 55.3714L27.5969 57.5258ZM34.7981 59.6737L32.4172 59.0358L31.8955 60.9827L34.6612 61.7238L34.5025 62.3162L31.0123 61.381L32.4844 55.8873L35.9368 56.8124L35.7771 57.4085L33.0491 56.6776L32.5759 58.4434L34.9568 59.0814L34.7981 59.6737ZM39.6535 62.924C39.3959 63.1408 39.082 63.271 38.7117 63.3146C38.3446 63.3565 37.9397 63.3181 37.497 63.1995C37.0493 63.0795 36.6798 62.8686 36.3886 62.5668C36.0981 62.2625 35.9092 61.891 35.8218 61.4524C35.7369 61.0145 35.7604 60.5396 35.8922 60.0276L36.0206 59.5484C36.2423 58.7208 36.6066 58.1309 37.1135 57.7788C37.6229 57.4273 38.2272 57.3452 38.9265 57.5326C39.5 57.6863 39.9222 57.9571 40.193 58.3451C40.4644 58.7306 40.567 59.2029 40.5008 59.7621L39.7763 59.568C39.8353 58.8046 39.5 58.3252 38.7705 58.1298C38.285 57.9997 37.8707 58.072 37.5275 58.3467C37.1875 58.6195 36.9296 59.0789 36.7539 59.7247L36.6336 60.1737C36.4684 60.7899 36.4779 61.3182 36.6619 61.7584C36.8465 62.1961 37.1791 62.4794 37.6595 62.6081C37.9312 62.6809 38.177 62.7144 38.3969 62.7086C38.6168 62.7028 38.8127 62.6461 38.9844 62.5385L39.315 61.3046L38.0435 60.9639L38.2012 60.3753L40.1934 60.9091L39.6535 62.924Z" fill="white"/>
<g filter="url(#filter3_dd)">
<rect x="50.3408" y="21.8398" width="22.05" height="22.0889" rx="1" transform="rotate(16.5056 50.3408 21.8398)" fill="url(#paint7_linear)"/>
<rect x="50.0035" y="21.2184" width="23.05" height="23.0889" rx="1.5" transform="rotate(16.5056 50.0035 21.2184)" stroke="url(#paint8_linear)"/>
</g>
<g filter="url(#filter4_dd)">
<rect x="56.9951" y="27.1025" width="11.025" height="15.7778" rx="1" transform="rotate(16.5056 56.9951 27.1025)" fill="url(#paint9_linear)" fill-opacity="0.3"/>
</g>
<g filter="url(#filter5_dd)">
<rect x="52.4648" y="25.7598" width="4.725" height="15.7778" rx="1" transform="rotate(16.5056 52.4648 25.7598)" fill="url(#paint10_linear)" fill-opacity="0.3"/>
</g>
<rect width="4.725" height="4.73333" rx="1.5" transform="matrix(-0.958792 -0.284108 -0.284108 0.958792 61.832 30.1816)" fill="url(#paint11_linear)"/>
<path d="M60.9613 41.4336C61.7027 38.9316 60.2754 36.3023 57.7734 35.5609C55.2714 34.8195 52.6421 36.2468 51.9007 38.7488L51.0018 41.7823L60.0624 44.4671L60.9613 41.4336Z" fill="url(#paint12_linear)"/>
<g filter="url(#filter6_dd)">
<rect x="59.2363" y="19.5391" width="1.575" height="33.1333" rx="0.787498" transform="rotate(16.5056 59.2363 19.5391)" fill="url(#paint13_linear)"/>
<rect x="58.899" y="18.9176" width="2.575" height="34.1333" rx="1.2875" transform="rotate(16.5056 58.899 18.9176)" stroke="url(#paint14_linear)"/>
</g>
<rect x="59.2363" y="19.5391" width="1.575" height="33.1333" rx="0.787498" transform="rotate(16.5056 59.2363 19.5391)" fill="url(#paint15_linear)"/>
</g>
<defs>
<filter id="filter0_d" x="-2" y="-2" width="108.576" height="113.973" filterUnits="userSpaceOnUse" color-interpolation-filters="sRGB">
<feFlood flood-opacity="0" result="BackgroundImageFix"/>
<feColorMatrix in="SourceAlpha" type="matrix" values="0 0 0 0 0 0 0 0 0 0 0 0 0 0 0 0 0 0 127 0"/>
<feOffset dy="12"/>
<feGaussianBlur stdDeviation="7"/>
<feColorMatrix type="matrix" values="0 0 0 0 0.709804 0 0 0 0 0.741176 0 0 0 0 0.807843 0 0 0 0.496777 0"/>
<feBlend mode="normal" in2="BackgroundImageFix" result="effect1_dropShadow"/>
<feBlend mode="normal" in="SourceGraphic" in2="effect1_dropShadow" result="shape"/>
</filter>
<filter id="filter1_dd" x="15.0107" y="0.760742" width="76.3285" height="90.2421" filterUnits="userSpaceOnUse" color-interpolation-filters="sRGB">
<feFlood flood-opacity="0" result="BackgroundImageFix"/>
<feColorMatrix in="SourceAlpha" type="matrix" values="0 0 0 0 0 0 0 0 0 0 0 0 0 0 0 0 0 0 127 0"/>
<feOffset dy="2"/>
<feGaussianBlur stdDeviation="2"/>
<feColorMatrix type="matrix" values="0 0 0 0 0.671157 0 0 0 0 0.72817 0 0 0 0 0.785183 0 0 0 0.113063 0"/>
<feBlend mode="normal" in2="BackgroundImageFix" result="effect1_dropShadow"/>
<feColorMatrix in="SourceAlpha" type="matrix" values="0 0 0 0 0 0 0 0 0 0 0 0 0 0 0 0 0 0 127 0"/>
<feOffset dy="1"/>
<feGaussianBlur stdDeviation="0.5"/>
<feColorMatrix type="matrix" values="0 0 0 0 0.321569 0 0 0 0 0.380392 0 0 0 0 0.560784 0 0 0 0.0656414 0"/>
<feBlend mode="normal" in2="effect1_dropShadow" result="effect2_dropShadow"/>
<feBlend mode="normal" in="SourceGraphic" in2="effect2_dropShadow" result="shape"/>
</filter>
<filter id="filter2_dd" x="29.9639" y="10.7939" width="35.988" height="47.7182" filterUnits="userSpaceOnUse" color-interpolation-filters="sRGB">
<feFlood flood-opacity="0" result="BackgroundImageFix"/>
<feColorMatrix in="SourceAlpha" type="matrix" values="0 0 0 0 0 0 0 0 0 0 0 0 0 0 0 0 0 0 127 0"/>
<feOffset dy="2"/>
<feGaussianBlur stdDeviation="2"/>
<feColorMatrix type="matrix" values="0 0 0 0 0.671157 0 0 0 0 0.72817 0 0 0 0 0.785183 0 0 0 0.113063 0"/>
<feBlend mode="normal" in2="BackgroundImageFix" result="effect1_dropShadow"/>
<feColorMatrix in="SourceAlpha" type="matrix" values="0 0 0 0 0 0 0 0 0 0 0 0 0 0 0 0 0 0 127 0"/>
<feOffset dy="1"/>
<feGaussianBlur stdDeviation="0.5"/>
<feColorMatrix type="matrix" values="0 0 0 0 0.321569 0 0 0 0 0.380392 0 0 0 0 0.560784 0 0 0 0.0656414 0"/>
<feBlend mode="normal" in2="effect1_dropShadow" result="effect2_dropShadow"/>
<feBlend mode="normal" in="SourceGraphic" in2="effect2_dropShadow" result="shape"/>
</filter>
<filter id="filter3_dd" x="39.3076" y="19.082" width="36.9323" height="36.9585" filterUnits="userSpaceOnUse" color-interpolation-filters="sRGB">
<feFlood flood-opacity="0" result="BackgroundImageFix"/>
<feColorMatrix in="SourceAlpha" type="matrix" values="0 0 0 0 0 0 0 0 0 0 0 0 0 0 0 0 0 0 127 0"/>
<feOffset dy="2"/>
<feGaussianBlur stdDeviation="2"/>
<feColorMatrix type="matrix" values="0 0 0 0 0.671157 0 0 0 0 0.72817 0 0 0 0 0.785183 0 0 0 0.113063 0"/>
<feBlend mode="normal" in2="BackgroundImageFix" result="effect1_dropShadow"/>
<feColorMatrix in="SourceAlpha" type="matrix" values="0 0 0 0 0 0 0 0 0 0 0 0 0 0 0 0 0 0 127 0"/>
<feOffset dy="1"/>
<feGaussianBlur stdDeviation="0.5"/>
<feColorMatrix type="matrix" values="0 0 0 0 0.321569 0 0 0 0 0.380392 0 0 0 0 0.560784 0 0 0 0.0656414 0"/>
<feBlend mode="normal" in2="effect1_dropShadow" result="effect2_dropShadow"/>
<feBlend mode="normal" in="SourceGraphic" in2="effect2_dropShadow" result="shape"/>
</filter>
<filter id="filter4_dd" x="48.7549" y="25.3447" width="22.568" height="25.7746" filterUnits="userSpaceOnUse" color-interpolation-filters="sRGB">
<feFlood flood-opacity="0" result="BackgroundImageFix"/>
<feColorMatrix in="SourceAlpha" type="matrix" values="0 0 0 0 0 0 0 0 0 0 0 0 0 0 0 0 0 0 127 0"/>
<feOffset dy="2"/>
<feGaussianBlur stdDeviation="2"/>
<feColorMatrix type="matrix" values="0 0 0 0 0.671157 0 0 0 0 0.72817 0 0 0 0 0.785183 0 0 0 0.113063 0"/>
<feBlend mode="normal" in2="BackgroundImageFix" result="effect1_dropShadow"/>
<feColorMatrix in="SourceAlpha" type="matrix" values="0 0 0 0 0 0 0 0 0 0 0 0 0 0 0 0 0 0 127 0"/>
<feOffset dy="1"/>
<feGaussianBlur stdDeviation="0.5"/>
<feColorMatrix type="matrix" values="0 0 0 0 0.321569 0 0 0 0 0.380392 0 0 0 0 0.560784 0 0 0 0.0656414 0"/>
<feBlend mode="normal" in2="effect1_dropShadow" result="effect2_dropShadow"/>
<feBlend mode="normal" in="SourceGraphic" in2="effect2_dropShadow" result="shape"/>
</filter>
<filter id="filter5_dd" x="44.2246" y="24.002" width="16.5276" height="23.9847" filterUnits="userSpaceOnUse" color-interpolation-filters="sRGB">
<feFlood flood-opacity="0" result="BackgroundImageFix"/>
<feColorMatrix in="SourceAlpha" type="matrix" values="0 0 0 0 0 0 0 0 0 0 0 0 0 0 0 0 0 0 127 0"/>
<feOffset dy="2"/>
<feGaussianBlur stdDeviation="2"/>
<feColorMatrix type="matrix" values="0 0 0 0 0.671157 0 0 0 0 0.72817 0 0 0 0 0.785183 0 0 0 0.113063 0"/>
<feBlend mode="normal" in2="BackgroundImageFix" result="effect1_dropShadow"/>
<feColorMatrix in="SourceAlpha" type="matrix" values="0 0 0 0 0 0 0 0 0 0 0 0 0 0 0 0 0 0 127 0"/>
<feOffset dy="1"/>
<feGaussianBlur stdDeviation="0.5"/>
<feColorMatrix type="matrix" values="0 0 0 0 0.321569 0 0 0 0 0.380392 0 0 0 0 0.560784 0 0 0 0.0656414 0"/>
<feBlend mode="normal" in2="effect1_dropShadow" result="effect2_dropShadow"/>
<feBlend mode="normal" in="SourceGraphic" in2="effect2_dropShadow" result="shape"/>
</filter>
<filter id="filter6_dd" x="45.0137" y="16.7295" width="20.5419" height="41.8338" filterUnits="userSpaceOnUse" color-interpolation-filters="sRGB">
<feFlood flood-opacity="0" result="BackgroundImageFix"/>
<feColorMatrix in="SourceAlpha" type="matrix" values="0 0 0 0 0 0 0 0 0 0 0 0 0 0 0 0 0 0 127 0"/>
<feOffset dy="2"/>
<feGaussianBlur stdDeviation="2"/>
<feColorMatrix type="matrix" values="0 0 0 0 0.671157 0 0 0 0 0.72817 0 0 0 0 0.785183 0 0 0 0.113063 0"/>
<feBlend mode="normal" in2="BackgroundImageFix" result="effect1_dropShadow"/>
<feColorMatrix in="SourceAlpha" type="matrix" values="0 0 0 0 0 0 0 0 0 0 0 0 0 0 0 0 0 0 127 0"/>
<feOffset dy="1"/>
<feGaussianBlur stdDeviation="0.5"/>
<feColorMatrix type="matrix" values="0 0 0 0 0.321569 0 0 0 0 0.380392 0 0 0 0 0.560784 0 0 0 0.0656414 0"/>
<feBlend mode="normal" in2="effect1_dropShadow" result="effect2_dropShadow"/>
<feBlend mode="normal" in="SourceGraphic" in2="effect2_dropShadow" result="shape"/>
</filter>
<linearGradient id="paint0_linear" x1="38.2119" y1="1.79004" x2="18.0402" y2="69.8643" gradientUnits="userSpaceOnUse">
<stop stop-color="#F6F9FC"/>
<stop offset="1" stop-color="#E3E9EF"/>
</linearGradient>
<linearGradient id="paint1_linear" x1="38.2119" y1="1.79004" x2="18.0402" y2="69.8643" gradientUnits="userSpaceOnUse">
<stop stop-color="#E3E9EF"/>
<stop offset="1" stop-color="#F6F9FC"/>
</linearGradient>
<linearGradient id="paint2_linear" x1="41.3975" y1="7.6709" x2="23.9153" y2="66.6686" gradientUnits="userSpaceOnUse">
<stop stop-color="#E3E9EF"/>
<stop offset="1" stop-color="#F6F9FC"/>
</linearGradient>
<linearGradient id="paint3_linear" x1="41.3975" y1="7.6709" x2="23.9153" y2="66.6686" gradientUnits="userSpaceOnUse">
<stop stop-color="#E3E9EF"/>
<stop offset="1" stop-color="#F6F9FC"/>
</linearGradient>
<linearGradient id="paint4_linear" x1="44.583" y1="13.5518" x2="44.583" y2="48.2629" gradientUnits="userSpaceOnUse">
<stop stop-color="#F6F9FC"/>
<stop offset="1" stop-color="#E3E9EF"/>
</linearGradient>
<linearGradient id="paint5_linear" x1="44.583" y1="13.5518" x2="44.583" y2="48.2629" gradientUnits="userSpaceOnUse">
<stop stop-color="#E3E9EF"/>
<stop offset="1" stop-color="#F6F9FC"/>
</linearGradient>
<linearGradient id="paint6_linear" x1="49.6914" y1="56.0429" x2="47.1755" y2="47.3319" gradientUnits="userSpaceOnUse">
<stop stop-color="#893BFE"/>
<stop offset="1" stop-color="#C961FF"/>
</linearGradient>
<linearGradient id="paint7_linear" x1="50.3408" y1="21.8398" x2="50.3408" y2="43.9287" gradientUnits="userSpaceOnUse">
<stop stop-color="#F6F9FC"/>
<stop offset="1" stop-color="#E3E9EF"/>
</linearGradient>
<linearGradient id="paint8_linear" x1="50.3408" y1="21.8398" x2="50.3408" y2="43.9287" gradientUnits="userSpaceOnUse">
<stop stop-color="#E3E9EF"/>
<stop offset="1" stop-color="#F6F9FC"/>
</linearGradient>
<linearGradient id="paint9_linear" x1="67.1337" y1="36.6459" x2="61.2819" y2="31.4885" gradientUnits="userSpaceOnUse">
<stop stop-color="#893BFE"/>
<stop offset="1" stop-color="#C961FF"/>
</linearGradient>
<linearGradient id="paint10_linear" x1="58.3614" y1="25.9522" x2="53.9369" y2="25.9522" gradientUnits="userSpaceOnUse">
<stop stop-color="#B9B9B9"/>
<stop offset="1" stop-color="#6C6C6C"/>
</linearGradient>
<linearGradient id="paint11_linear" x1="4.34512" y1="2.86301" x2="2.62149" y2="0.692867" gradientUnits="userSpaceOnUse">
<stop stop-color="#893BFE"/>
<stop offset="1" stop-color="#C961FF"/>
</linearGradient>
<linearGradient id="paint12_linear" x1="52.6159" y1="39.0094" x2="56.3841" y2="35.848" gradientUnits="userSpaceOnUse">
<stop stop-color="#893BFE"/>
<stop offset="1" stop-color="#C961FF"/>
</linearGradient>
<linearGradient id="paint13_linear" x1="59.2363" y1="19.5391" x2="59.2363" y2="52.6724" gradientUnits="userSpaceOnUse">
<stop stop-color="#F6F9FC"/>
<stop offset="1" stop-color="#E3E9EF"/>
</linearGradient>
<linearGradient id="paint14_linear" x1="59.2363" y1="19.5391" x2="59.2363" y2="52.6724" gradientUnits="userSpaceOnUse">
<stop stop-color="#E3E9EF"/>
<stop offset="1" stop-color="#F6F9FC"/>
</linearGradient>
<linearGradient id="paint15_linear" x1="61.4549" y1="1.63536" x2="58.7204" y2="1.63536" gradientUnits="userSpaceOnUse">
<stop stop-color="#893BFE"/>
<stop offset="1" stop-color="#C961FF"/>
</linearGradient>
<clipPath id="clip0">
<rect width="63" height="71" fill="white" transform="translate(32.1719) rotate(16.5056)"/>
</clipPath>
</defs>
</svg>
