<svg width="74" height="77" viewBox="0 0 74 77" fill="none" xmlns="http://www.w3.org/2000/svg">
<g clip-path="url(#clip0)" filter="url(#filter0_d)">
<g filter="url(#filter1_dd)">
<path fill-rule="evenodd" clip-rule="evenodd" d="M6.31884 22.412C5.42273 20.3928 6.3332 18.0294 8.35243 17.1333L32.5317 6.40285C33.5014 5.97252 34.6023 5.94502 35.5922 6.32639L51.145 12.318C52.1349 12.6994 52.9328 13.4584 53.3632 14.4281L68.7827 49.1733C69.6788 51.1925 68.7683 53.5559 66.7491 54.452L31.7976 69.963C29.7784 70.8591 27.415 69.9486 26.5189 67.9294L6.31884 22.412Z" fill="url(#paint0_linear)"/>
<path d="M6.77586 22.2092C5.99176 20.4424 6.78842 18.3744 8.55524 17.5903L32.7345 6.85986C33.583 6.48333 34.5463 6.45926 35.4125 6.79296L50.9652 12.7846C51.8314 13.1183 52.5296 13.7824 52.9061 14.6309L68.3256 49.3761C69.1097 51.1429 68.3131 53.2109 66.5463 53.9949L31.5948 69.506C29.828 70.2901 27.76 69.4934 26.9759 67.7266L6.77586 22.2092Z" stroke="url(#paint1_linear)"/>
</g>
<path d="M10.9781 22.3718C10.6246 21.5751 10.9838 20.6427 11.7804 20.2892L33.6463 10.5854C34.0321 10.4141 34.4705 10.4046 34.8635 10.559L48.9225 16.0824C49.3087 16.2341 49.6196 16.5318 49.7879 16.9111L64.1233 49.2135C64.4769 50.0102 64.1176 50.9426 63.321 51.2961L31.7573 65.3037C30.9607 65.6572 30.0283 65.298 29.6747 64.5014L10.9781 22.3718Z" fill="url(#paint2_linear)" stroke="url(#paint3_linear)" stroke-width="0.84375"/>
<rect x="29.082" y="19.8779" width="14.1285" height="10.2753" rx="1" transform="rotate(66.0689 29.082 19.8779)" fill="url(#paint4_linear)" fill-opacity="0.2"/>
<path d="M22.6999 59.3261C22.2519 58.3165 22.7071 57.1348 23.7167 56.6868L41.1925 48.9313C42.2021 48.4832 43.3838 48.9384 43.8318 49.948L46.3773 55.6839C46.8254 56.6935 46.3701 57.8751 45.3605 58.3232L26.0567 66.89L22.6999 59.3261Z" fill="#E3E9EF" style="mix-blend-mode:multiply"/>
<rect x="16.6719" y="58.4072" width="28.257" height="10.2753" rx="2" transform="rotate(-23.9311 16.6719 58.4072)" fill="url(#paint5_linear)"/>
<rect x="18.2559" y="23.9795" width="14.1285" height="2.56882" rx="1" transform="rotate(-23.9311 18.2559 23.9795)" fill="url(#paint6_linear)"/>
<rect x="34.0322" y="31.0303" width="12.8441" height="2.56882" rx="1" transform="rotate(-23.9311 34.0322 31.0303)" fill="url(#paint7_linear)"/>
<rect x="20.8643" y="23.5244" width="23.1194" height="2.56882" rx="1" transform="rotate(66.0689 20.8643 23.5244)" fill="url(#paint8_linear)"/>
<rect x="28.1689" y="20.9854" width="2.56882" height="12.8441" rx="1" transform="rotate(-23.9311 28.1689 20.9854)" fill="url(#paint9_linear)"/>
<g filter="url(#filter2_dd)">
<rect x="16.5605" y="23.3271" width="5.13763" height="5.13763" rx="2" transform="rotate(-23.9311 16.5605 23.3271)" fill="url(#paint10_linear)"/>
<rect x="15.9007" y="23.0729" width="6.13763" height="6.13763" rx="2.5" transform="rotate(-23.9311 15.9007 23.0729)" stroke="url(#paint11_linear)"/>
</g>
<g filter="url(#filter3_dd)">
<rect x="42.9033" y="25.6885" width="5.13763" height="5.13764" rx="2" transform="rotate(-23.9311 42.9033 25.6885)" fill="url(#paint12_linear)"/>
<rect x="42.2435" y="25.4343" width="6.13763" height="6.13764" rx="2.5" transform="rotate(-23.9311 42.2435 25.4343)" stroke="url(#paint13_linear)"/>
</g>
<g filter="url(#filter4_dd)">
<rect x="31.1631" y="30.8984" width="5.13763" height="5.13763" rx="2" transform="rotate(-23.9311 31.1631 30.8984)" fill="url(#paint14_linear)"/>
<rect x="30.5033" y="30.6442" width="6.13763" height="6.13763" rx="2.5" transform="rotate(-23.9311 30.5033 30.6442)" stroke="url(#paint15_linear)"/>
</g>
<g filter="url(#filter5_dd)">
<rect x="25.9531" y="19.1592" width="5.13763" height="5.13763" rx="2" transform="rotate(-23.9311 25.9531 19.1592)" fill="url(#paint16_linear)"/>
<rect x="25.2933" y="18.905" width="6.13763" height="6.13763" rx="2.5" transform="rotate(-23.9311 25.2933 18.905)" stroke="url(#paint17_linear)"/>
</g>
<g filter="url(#filter6_dd)">
<rect x="25.418" y="43.2842" width="5.13763" height="5.13764" rx="2" transform="rotate(-23.9311 25.418 43.2842)" fill="url(#paint18_linear)"/>
<rect x="24.7581" y="43.03" width="6.13763" height="6.13764" rx="2.5" transform="rotate(-23.9311 24.7581 43.03)" stroke="url(#paint19_linear)"/>
</g>
<rect x="27.1133" y="43.9375" width="2.56882" height="2.56882" rx="1" transform="rotate(-23.9311 27.1133 43.9375)" fill="url(#paint20_linear)"/>
<path d="M26.2787 60.0233L27.2106 62.0454L26.5295 62.3593L24.1489 57.194L26.054 56.316C26.6192 56.0555 27.128 55.9959 27.5803 56.1373C28.0349 56.2776 28.3717 56.5854 28.5908 57.0608C28.8219 57.5622 28.8429 58.0214 28.6537 58.4383C28.4657 58.8518 28.0797 59.1932 27.4955 59.4624L26.2787 60.0233ZM26.022 59.4663L27.2459 58.9022C27.6101 58.7343 27.85 58.5206 27.9654 58.2609C28.0798 57.9989 28.0623 57.7058 27.913 57.3818C27.7713 57.0744 27.5609 56.8731 27.282 56.778C27.003 56.6829 26.6928 56.7098 26.3513 56.8585L25.0884 57.4406L26.022 59.4663ZM31.113 60.2469L28.7324 55.0816L30.1905 54.4096C30.6398 54.2025 31.083 54.1187 31.5198 54.1582C31.9567 54.1977 32.353 54.3577 32.7088 54.6382C33.067 54.9176 33.3568 55.2944 33.5782 55.7687L33.7303 56.0986C33.9548 56.5858 34.057 57.0563 34.0367 57.5101C34.0188 57.9628 33.8801 58.368 33.6205 58.7256C33.3633 59.0821 33.0041 59.3696 32.5427 59.5879L31.113 60.2469ZM29.6719 55.3281L31.5374 59.376L32.2541 59.0457C32.7791 58.8037 33.1119 58.4525 33.2524 57.992C33.3952 57.5305 33.3276 56.9982 33.0497 56.3951L32.9107 56.0935C32.6404 55.507 32.2922 55.1155 31.8662 54.919C31.4414 54.7191 30.9749 54.7334 30.4666 54.9619L29.6719 55.3281ZM37.6784 54.4554L35.5108 55.4544L36.5621 57.7355L35.881 58.0494L33.5004 52.8841L36.7003 51.4093L36.9587 51.9698L34.4399 53.1307L35.2541 54.8974L37.4217 53.8984L37.6784 54.4554Z" fill="white"/>
</g>
<defs>
<filter id="filter0_d" x="-4" y="-2" width="78.4049" height="81.6698" filterUnits="userSpaceOnUse" color-interpolation-filters="sRGB">
<feFlood flood-opacity="0" result="BackgroundImageFix"/>
<feColorMatrix in="SourceAlpha" type="matrix" values="0 0 0 0 0 0 0 0 0 0 0 0 0 0 0 0 0 0 127 0"/>
<feOffset dy="2"/>
<feGaussianBlur stdDeviation="2"/>
<feColorMatrix type="matrix" values="0 0 0 0 0.709804 0 0 0 0 0.741176 0 0 0 0 0.807843 0 0 0 0.5 0"/>
<feBlend mode="normal" in2="BackgroundImageFix" result="effect1_dropShadow"/>
<feBlend mode="normal" in="SourceGraphic" in2="effect1_dropShadow" result="shape"/>
</filter>
<filter id="filter1_dd" x="1.97363" y="4.05859" width="71.1536" height="72.2489" filterUnits="userSpaceOnUse" color-interpolation-filters="sRGB">
<feFlood flood-opacity="0" result="BackgroundImageFix"/>
<feColorMatrix in="SourceAlpha" type="matrix" values="0 0 0 0 0 0 0 0 0 0 0 0 0 0 0 0 0 0 127 0"/>
<feOffset dy="2"/>
<feGaussianBlur stdDeviation="2"/>
<feColorMatrix type="matrix" values="0 0 0 0 0.671157 0 0 0 0 0.72817 0 0 0 0 0.785183 0 0 0 0.113063 0"/>
<feBlend mode="normal" in2="BackgroundImageFix" result="effect1_dropShadow"/>
<feColorMatrix in="SourceAlpha" type="matrix" values="0 0 0 0 0 0 0 0 0 0 0 0 0 0 0 0 0 0 127 0"/>
<feOffset dy="1"/>
<feGaussianBlur stdDeviation="0.5"/>
<feColorMatrix type="matrix" values="0 0 0 0 0.321569 0 0 0 0 0.380392 0 0 0 0 0.560784 0 0 0 0.0656414 0"/>
<feBlend mode="normal" in2="effect1_dropShadow" result="effect2_dropShadow"/>
<feBlend mode="normal" in="SourceGraphic" in2="effect2_dropShadow" result="shape"/>
</filter>
<filter id="filter2_dd" x="12.1992" y="18.8818" width="15.5028" height="15.5028" filterUnits="userSpaceOnUse" color-interpolation-filters="sRGB">
<feFlood flood-opacity="0" result="BackgroundImageFix"/>
<feColorMatrix in="SourceAlpha" type="matrix" values="0 0 0 0 0 0 0 0 0 0 0 0 0 0 0 0 0 0 127 0"/>
<feOffset dy="2"/>
<feGaussianBlur stdDeviation="2"/>
<feColorMatrix type="matrix" values="0 0 0 0 0.671157 0 0 0 0 0.72817 0 0 0 0 0.785183 0 0 0 0.113063 0"/>
<feBlend mode="normal" in2="BackgroundImageFix" result="effect1_dropShadow"/>
<feColorMatrix in="SourceAlpha" type="matrix" values="0 0 0 0 0 0 0 0 0 0 0 0 0 0 0 0 0 0 127 0"/>
<feOffset dy="1"/>
<feGaussianBlur stdDeviation="0.5"/>
<feColorMatrix type="matrix" values="0 0 0 0 0.321569 0 0 0 0 0.380392 0 0 0 0 0.560784 0 0 0 0.0656414 0"/>
<feBlend mode="normal" in2="effect1_dropShadow" result="effect2_dropShadow"/>
<feBlend mode="normal" in="SourceGraphic" in2="effect2_dropShadow" result="shape"/>
</filter>
<filter id="filter3_dd" x="38.542" y="21.2432" width="15.5028" height="15.5028" filterUnits="userSpaceOnUse" color-interpolation-filters="sRGB">
<feFlood flood-opacity="0" result="BackgroundImageFix"/>
<feColorMatrix in="SourceAlpha" type="matrix" values="0 0 0 0 0 0 0 0 0 0 0 0 0 0 0 0 0 0 127 0"/>
<feOffset dy="2"/>
<feGaussianBlur stdDeviation="2"/>
<feColorMatrix type="matrix" values="0 0 0 0 0.671157 0 0 0 0 0.72817 0 0 0 0 0.785183 0 0 0 0.113063 0"/>
<feBlend mode="normal" in2="BackgroundImageFix" result="effect1_dropShadow"/>
<feColorMatrix in="SourceAlpha" type="matrix" values="0 0 0 0 0 0 0 0 0 0 0 0 0 0 0 0 0 0 127 0"/>
<feOffset dy="1"/>
<feGaussianBlur stdDeviation="0.5"/>
<feColorMatrix type="matrix" values="0 0 0 0 0.321569 0 0 0 0 0.380392 0 0 0 0 0.560784 0 0 0 0.0656414 0"/>
<feBlend mode="normal" in2="effect1_dropShadow" result="effect2_dropShadow"/>
<feBlend mode="normal" in="SourceGraphic" in2="effect2_dropShadow" result="shape"/>
</filter>
<filter id="filter4_dd" x="26.8018" y="26.4531" width="15.5028" height="15.5028" filterUnits="userSpaceOnUse" color-interpolation-filters="sRGB">
<feFlood flood-opacity="0" result="BackgroundImageFix"/>
<feColorMatrix in="SourceAlpha" type="matrix" values="0 0 0 0 0 0 0 0 0 0 0 0 0 0 0 0 0 0 127 0"/>
<feOffset dy="2"/>
<feGaussianBlur stdDeviation="2"/>
<feColorMatrix type="matrix" values="0 0 0 0 0.671157 0 0 0 0 0.72817 0 0 0 0 0.785183 0 0 0 0.113063 0"/>
<feBlend mode="normal" in2="BackgroundImageFix" result="effect1_dropShadow"/>
<feColorMatrix in="SourceAlpha" type="matrix" values="0 0 0 0 0 0 0 0 0 0 0 0 0 0 0 0 0 0 127 0"/>
<feOffset dy="1"/>
<feGaussianBlur stdDeviation="0.5"/>
<feColorMatrix type="matrix" values="0 0 0 0 0.321569 0 0 0 0 0.380392 0 0 0 0 0.560784 0 0 0 0.0656414 0"/>
<feBlend mode="normal" in2="effect1_dropShadow" result="effect2_dropShadow"/>
<feBlend mode="normal" in="SourceGraphic" in2="effect2_dropShadow" result="shape"/>
</filter>
<filter id="filter5_dd" x="21.5918" y="14.7139" width="15.5028" height="15.5028" filterUnits="userSpaceOnUse" color-interpolation-filters="sRGB">
<feFlood flood-opacity="0" result="BackgroundImageFix"/>
<feColorMatrix in="SourceAlpha" type="matrix" values="0 0 0 0 0 0 0 0 0 0 0 0 0 0 0 0 0 0 127 0"/>
<feOffset dy="2"/>
<feGaussianBlur stdDeviation="2"/>
<feColorMatrix type="matrix" values="0 0 0 0 0.671157 0 0 0 0 0.72817 0 0 0 0 0.785183 0 0 0 0.113063 0"/>
<feBlend mode="normal" in2="BackgroundImageFix" result="effect1_dropShadow"/>
<feColorMatrix in="SourceAlpha" type="matrix" values="0 0 0 0 0 0 0 0 0 0 0 0 0 0 0 0 0 0 127 0"/>
<feOffset dy="1"/>
<feGaussianBlur stdDeviation="0.5"/>
<feColorMatrix type="matrix" values="0 0 0 0 0.321569 0 0 0 0 0.380392 0 0 0 0 0.560784 0 0 0 0.0656414 0"/>
<feBlend mode="normal" in2="effect1_dropShadow" result="effect2_dropShadow"/>
<feBlend mode="normal" in="SourceGraphic" in2="effect2_dropShadow" result="shape"/>
</filter>
<filter id="filter6_dd" x="21.0566" y="38.8389" width="15.5028" height="15.5028" filterUnits="userSpaceOnUse" color-interpolation-filters="sRGB">
<feFlood flood-opacity="0" result="BackgroundImageFix"/>
<feColorMatrix in="SourceAlpha" type="matrix" values="0 0 0 0 0 0 0 0 0 0 0 0 0 0 0 0 0 0 127 0"/>
<feOffset dy="2"/>
<feGaussianBlur stdDeviation="2"/>
<feColorMatrix type="matrix" values="0 0 0 0 0.671157 0 0 0 0 0.72817 0 0 0 0 0.785183 0 0 0 0.113063 0"/>
<feBlend mode="normal" in2="BackgroundImageFix" result="effect1_dropShadow"/>
<feColorMatrix in="SourceAlpha" type="matrix" values="0 0 0 0 0 0 0 0 0 0 0 0 0 0 0 0 0 0 127 0"/>
<feOffset dy="1"/>
<feGaussianBlur stdDeviation="0.5"/>
<feColorMatrix type="matrix" values="0 0 0 0 0.321569 0 0 0 0 0.380392 0 0 0 0 0.560784 0 0 0 0.0656414 0"/>
<feBlend mode="normal" in2="effect1_dropShadow" result="effect2_dropShadow"/>
<feBlend mode="normal" in="SourceGraphic" in2="effect2_dropShadow" result="shape"/>
</filter>
<linearGradient id="paint0_linear" x1="4.69629" y1="18.7559" x2="28.1415" y2="71.5855" gradientUnits="userSpaceOnUse">
<stop stop-color="#F6F9FC"/>
<stop offset="1" stop-color="#E3E9EF"/>
</linearGradient>
<linearGradient id="paint1_linear" x1="4.69629" y1="18.7559" x2="28.1415" y2="71.5855" gradientUnits="userSpaceOnUse">
<stop stop-color="#E3E9EF"/>
<stop offset="1" stop-color="#F6F9FC"/>
</linearGradient>
<linearGradient id="paint2_linear" x1="9.78125" y1="20.7148" x2="30.1004" y2="66.5006" gradientUnits="userSpaceOnUse">
<stop stop-color="#E3E9EF"/>
<stop offset="1" stop-color="#F6F9FC"/>
</linearGradient>
<linearGradient id="paint3_linear" x1="9.78125" y1="20.7148" x2="30.1004" y2="66.5006" gradientUnits="userSpaceOnUse">
<stop stop-color="#E3E9EF"/>
<stop offset="1" stop-color="#F6F9FC"/>
</linearGradient>
<linearGradient id="paint4_linear" x1="28.8563" y1="19.8779" x2="28.8563" y2="31.8308" gradientUnits="userSpaceOnUse">
<stop stop-color="#FF9313"/>
<stop offset="1" stop-color="#FF6600"/>
</linearGradient>
<linearGradient id="paint5_linear" x1="16.3015" y1="62.8238" x2="18.7192" y2="73.7893" gradientUnits="userSpaceOnUse">
<stop stop-color="#FF9313"/>
<stop offset="1" stop-color="#FF6600"/>
</linearGradient>
<linearGradient id="paint6_linear" x1="18.0301" y1="23.9795" x2="18.0301" y2="26.9677" gradientUnits="userSpaceOnUse">
<stop stop-color="#FF9313"/>
<stop offset="1" stop-color="#FF6600"/>
</linearGradient>
<linearGradient id="paint7_linear" x1="33.827" y1="31.0303" x2="33.827" y2="34.0185" gradientUnits="userSpaceOnUse">
<stop stop-color="#FF9313"/>
<stop offset="1" stop-color="#FF6600"/>
</linearGradient>
<linearGradient id="paint8_linear" x1="20.4949" y1="23.5244" x2="20.4949" y2="26.5126" gradientUnits="userSpaceOnUse">
<stop stop-color="#FF9313"/>
<stop offset="1" stop-color="#FF6600"/>
</linearGradient>
<linearGradient id="paint9_linear" x1="28.1689" y1="33.2923" x2="30.7378" y2="33.2923" gradientUnits="userSpaceOnUse">
<stop stop-color="#FF9313"/>
<stop offset="1" stop-color="#FF6600"/>
</linearGradient>
<linearGradient id="paint10_linear" x1="16.5605" y1="23.3271" x2="16.5605" y2="28.4648" gradientUnits="userSpaceOnUse">
<stop stop-color="#F6F9FC"/>
<stop offset="1" stop-color="#E3E9EF"/>
</linearGradient>
<linearGradient id="paint11_linear" x1="16.5605" y1="23.3271" x2="16.5605" y2="28.4648" gradientUnits="userSpaceOnUse">
<stop stop-color="#E3E9EF"/>
<stop offset="1" stop-color="#F6F9FC"/>
</linearGradient>
<linearGradient id="paint12_linear" x1="42.9033" y1="25.6885" x2="42.9033" y2="30.8261" gradientUnits="userSpaceOnUse">
<stop stop-color="#F6F9FC"/>
<stop offset="1" stop-color="#E3E9EF"/>
</linearGradient>
<linearGradient id="paint13_linear" x1="42.9033" y1="25.6885" x2="42.9033" y2="30.8261" gradientUnits="userSpaceOnUse">
<stop stop-color="#E3E9EF"/>
<stop offset="1" stop-color="#F6F9FC"/>
</linearGradient>
<linearGradient id="paint14_linear" x1="31.1631" y1="30.8984" x2="31.1631" y2="36.0361" gradientUnits="userSpaceOnUse">
<stop stop-color="#F6F9FC"/>
<stop offset="1" stop-color="#E3E9EF"/>
</linearGradient>
<linearGradient id="paint15_linear" x1="31.1631" y1="30.8984" x2="31.1631" y2="36.0361" gradientUnits="userSpaceOnUse">
<stop stop-color="#E3E9EF"/>
<stop offset="1" stop-color="#F6F9FC"/>
</linearGradient>
<linearGradient id="paint16_linear" x1="25.9531" y1="19.1592" x2="25.9531" y2="24.2968" gradientUnits="userSpaceOnUse">
<stop stop-color="#F6F9FC"/>
<stop offset="1" stop-color="#E3E9EF"/>
</linearGradient>
<linearGradient id="paint17_linear" x1="25.9531" y1="19.1592" x2="25.9531" y2="24.2968" gradientUnits="userSpaceOnUse">
<stop stop-color="#E3E9EF"/>
<stop offset="1" stop-color="#F6F9FC"/>
</linearGradient>
<linearGradient id="paint18_linear" x1="25.418" y1="43.2842" x2="25.418" y2="48.4218" gradientUnits="userSpaceOnUse">
<stop stop-color="#F6F9FC"/>
<stop offset="1" stop-color="#E3E9EF"/>
</linearGradient>
<linearGradient id="paint19_linear" x1="25.418" y1="43.2842" x2="25.418" y2="48.4218" gradientUnits="userSpaceOnUse">
<stop stop-color="#E3E9EF"/>
<stop offset="1" stop-color="#F6F9FC"/>
</linearGradient>
<linearGradient id="paint20_linear" x1="27.0722" y1="43.9375" x2="27.0722" y2="46.9257" gradientUnits="userSpaceOnUse">
<stop stop-color="#FF9313"/>
<stop offset="1" stop-color="#FF6600"/>
</linearGradient>
<clipPath id="clip0">
<rect width="51.3763" height="57.7984" fill="white" transform="translate(0 20.8398) rotate(-23.9311)"/>
</clipPath>
</defs>
</svg>
