<svg width="75" height="78" viewBox="0 0 75 78" fill="none" xmlns="http://www.w3.org/2000/svg">
<g clip-path="url(#clip0)">
<g filter="url(#filter0_dd)">
<path fill-rule="evenodd" clip-rule="evenodd" d="M6.53906 27.0491C5.43449 25.1359 6.08999 22.6895 8.00316 21.585L31.4721 8.03515C32.3909 7.50472 33.4827 7.36098 34.5074 7.63555L50.9949 12.0534C52.0196 12.3279 52.8933 12.9983 53.4237 13.9171L72.8697 47.5985C73.9743 49.5117 73.3188 51.958 71.4056 53.0626L37.484 72.6472C35.5708 73.7518 33.1245 73.0963 32.0199 71.1831L6.53906 27.0491Z" fill="url(#paint0_linear)"/>
<path d="M6.97207 26.7991C6.00558 25.125 6.57914 22.9845 8.25316 22.018L31.7221 8.46817C32.526 8.00403 33.4814 7.87826 34.378 8.11851L50.8655 12.5363C51.7621 12.7766 52.5266 13.3632 52.9907 14.1671L72.4367 47.8485C73.4032 49.5225 72.8296 51.6631 71.1556 52.6296L37.234 72.2142C35.56 73.1807 33.4194 72.6072 32.4529 70.9331L6.97207 26.7991Z" stroke="url(#paint1_linear)"/>
</g>
<path d="M11.2736 26.5446C10.8378 25.7897 11.0964 24.8246 11.8512 24.3888L33.0349 12.1584C33.4005 11.9473 33.8355 11.8915 34.2425 12.0034L49.132 16.0989C49.532 16.209 49.8727 16.4721 50.0801 16.8315L68.1344 48.1024C68.5702 48.8572 68.3116 49.8224 67.5568 50.2582L36.9794 67.9121C36.2246 68.3479 35.2594 68.0892 34.8236 67.3344L11.2736 26.5446Z" fill="url(#paint2_linear)" stroke="url(#paint3_linear)" stroke-width="0.84375"/>
<rect x="27.2461" y="49.8115" width="3.93078" height="2.62052" rx="1" transform="rotate(-30 27.2461 49.8115)" fill="url(#paint4_linear)"/>
<rect x="31.7852" y="47.1914" width="2.62052" height="2.62051" rx="1" transform="rotate(-30 31.7852 47.1914)" fill="url(#paint5_linear)"/>
<path d="M27.1582 62.7623C26.6059 61.8057 26.9337 60.5826 27.8903 60.0303L44.8511 50.2379C45.8077 49.6857 47.0308 50.0134 47.5831 50.97L50.8241 56.5836C51.3764 57.5402 51.0487 58.7634 50.0921 59.3157L31.3992 70.108L27.1582 62.7623Z" fill="#E3E9EF" style="mix-blend-mode:multiply"/>
<rect x="20.9639" y="62.5156" width="28.8257" height="10.4821" rx="2" transform="rotate(-30 20.9639 62.5156)" fill="url(#paint6_linear)"/>
<g filter="url(#filter1_dd)">
<rect x="30.0762" y="28.5088" width="18.3436" height="18.3436" rx="1" transform="rotate(-30 30.0762 28.5088)" fill="url(#paint7_linear)"/>
<rect x="29.3932" y="28.3258" width="19.3436" height="19.3436" rx="1.5" transform="rotate(-30 29.3932 28.3258)" stroke="url(#paint8_linear)"/>
</g>
<rect x="35.3984" y="19.3838" width="7.86155" height="2.62052" rx="1" transform="rotate(-30 35.3984 19.3838)" fill="url(#paint9_linear)"/>
<rect x="33.6562" y="29.4678" width="13.1026" height="13.1026" rx="1" transform="rotate(-30 33.6562 29.4678)" fill="url(#paint10_linear)" fill-opacity="0.3"/>
<rect width="9.17181" height="9.17181" rx="3.5" transform="matrix(-0.866025 0.5 0.5 0.866025 43.3887 25.3613)" fill="url(#paint11_linear)"/>
<path d="M46.9688 26.3213L45.834 26.9764C41.4472 29.5091 39.9442 35.1185 42.4769 39.5053L50.6886 34.7643C51.1669 34.4882 51.3308 33.8766 51.0547 33.3983L46.9688 26.3213Z" fill="url(#paint12_linear)"/>
<g filter="url(#filter2_dd)">
<rect x="16.5879" y="28.7314" width="18.3436" height="18.3436" rx="1" transform="rotate(-30 16.5879 28.7314)" fill="url(#paint13_linear)"/>
<rect x="15.9049" y="28.5484" width="19.3436" height="19.3436" rx="1.5" transform="rotate(-30 15.9049 28.5484)" stroke="url(#paint14_linear)"/>
</g>
<g filter="url(#filter3_dd)">
<rect x="20.168" y="29.6904" width="13.1026" height="13.1026" rx="1" transform="rotate(-30 20.168 29.6904)" fill="url(#paint15_linear)" fill-opacity="0.3"/>
</g>
<path d="M28.1113 25.1045L21.0343 29.1904C20.556 29.4665 20.3922 30.0781 20.6683 30.5564L24.7542 37.6334C29.141 35.1007 30.6441 29.4913 28.1113 25.1045Z" fill="url(#paint16_linear)"/>
<path d="M32.8252 25.4092C27.8117 28.3037 26.0939 34.7145 28.9885 39.728L37.2002 34.9869C37.6785 34.7108 37.8424 34.0992 37.5662 33.6209L32.8252 25.4092Z" fill="url(#paint17_linear)"/>
<path d="M30.6322 64.0077L31.7591 65.928L31.1122 66.3076L28.2336 61.4024L30.0428 60.3407C30.5796 60.0257 31.08 59.9162 31.544 60.0123C32.0102 60.107 32.3758 60.3801 32.6408 60.8316C32.9202 61.3077 32.9863 61.7626 32.8392 62.1962C32.693 62.6262 32.3425 63.004 31.7877 63.3296L30.6322 64.0077ZM30.3218 63.4788L31.4841 62.7967C31.8299 62.5937 32.0475 62.3573 32.1368 62.0875C32.2247 61.8155 32.1784 61.5256 31.9979 61.2179C31.8265 60.9259 31.5974 60.7464 31.3104 60.6793C31.0234 60.6122 30.7174 60.6695 30.3922 60.8512L29.1929 61.5551L30.3218 63.4788ZM39.2349 61.5409L38.5846 61.9225L33.8969 59.5917L36.1152 63.3717L35.465 63.7533L32.5864 58.848L33.2366 58.4664L37.9409 60.8102L35.7128 57.0133L36.3563 56.6357L39.2349 61.5409ZM43.6277 58.098C43.6012 58.4336 43.4736 58.7485 43.2447 59.0429C43.0168 59.3337 42.7051 59.595 42.3099 59.827C41.9101 60.0616 41.5005 60.1767 41.0812 60.1721C40.6605 60.1653 40.2633 60.0391 39.8897 59.7934C39.5182 59.5464 39.1965 59.1962 38.9244 58.7429L38.6734 58.315C38.2397 57.5761 38.0754 56.9025 38.1805 56.2944C38.2878 55.6849 38.6537 55.1969 39.2781 54.8305C39.7902 54.53 40.2794 54.4195 40.7458 54.4991C41.2109 54.5764 41.6193 54.835 41.971 55.2748L41.3241 55.6543C40.8219 55.0764 40.2452 54.9786 39.5938 55.3608C39.1603 55.6152 38.9209 55.961 38.8756 56.3983C38.8312 56.832 38.9772 57.3381 39.3137 57.9166L39.549 58.3175C39.8719 58.8678 40.2547 59.232 40.6973 59.41C41.1387 59.5858 41.5738 59.5478 42.0028 59.2961C42.2454 59.1537 42.4418 59.0022 42.5921 58.8416C42.7424 58.6809 42.8395 58.5016 42.8834 58.3038L42.2369 57.2021L41.1016 57.8684L40.7932 57.3428L42.572 56.2989L43.6277 58.098Z" fill="white"/>
</g>
<defs>
<filter id="filter0_dd" x="2.00293" y="5.49902" width="75.4038" height="73.6846" filterUnits="userSpaceOnUse" color-interpolation-filters="sRGB">
<feFlood flood-opacity="0" result="BackgroundImageFix"/>
<feColorMatrix in="SourceAlpha" type="matrix" values="0 0 0 0 0 0 0 0 0 0 0 0 0 0 0 0 0 0 127 0"/>
<feOffset dy="2"/>
<feGaussianBlur stdDeviation="2"/>
<feColorMatrix type="matrix" values="0 0 0 0 0.671157 0 0 0 0 0.72817 0 0 0 0 0.785183 0 0 0 0.113063 0"/>
<feBlend mode="normal" in2="BackgroundImageFix" result="effect1_dropShadow"/>
<feColorMatrix in="SourceAlpha" type="matrix" values="0 0 0 0 0 0 0 0 0 0 0 0 0 0 0 0 0 0 127 0"/>
<feOffset dy="1"/>
<feGaussianBlur stdDeviation="0.5"/>
<feColorMatrix type="matrix" values="0 0 0 0 0.321569 0 0 0 0 0.380392 0 0 0 0 0.560784 0 0 0 0.0656414 0"/>
<feBlend mode="normal" in2="effect1_dropShadow" result="effect2_dropShadow"/>
<feBlend mode="normal" in="SourceGraphic" in2="effect2_dropShadow" result="shape"/>
</filter>
<filter id="filter1_dd" x="25.4414" y="16.7031" width="34.3265" height="34.3265" filterUnits="userSpaceOnUse" color-interpolation-filters="sRGB">
<feFlood flood-opacity="0" result="BackgroundImageFix"/>
<feColorMatrix in="SourceAlpha" type="matrix" values="0 0 0 0 0 0 0 0 0 0 0 0 0 0 0 0 0 0 127 0"/>
<feOffset dy="2"/>
<feGaussianBlur stdDeviation="2"/>
<feColorMatrix type="matrix" values="0 0 0 0 0.671157 0 0 0 0 0.72817 0 0 0 0 0.785183 0 0 0 0.113063 0"/>
<feBlend mode="normal" in2="BackgroundImageFix" result="effect1_dropShadow"/>
<feColorMatrix in="SourceAlpha" type="matrix" values="0 0 0 0 0 0 0 0 0 0 0 0 0 0 0 0 0 0 127 0"/>
<feOffset dy="1"/>
<feGaussianBlur stdDeviation="0.5"/>
<feColorMatrix type="matrix" values="0 0 0 0 0.321569 0 0 0 0 0.380392 0 0 0 0 0.560784 0 0 0 0.0656414 0"/>
<feBlend mode="normal" in2="effect1_dropShadow" result="effect2_dropShadow"/>
<feBlend mode="normal" in="SourceGraphic" in2="effect2_dropShadow" result="shape"/>
</filter>
<filter id="filter2_dd" x="11.9531" y="16.9258" width="34.3265" height="34.3265" filterUnits="userSpaceOnUse" color-interpolation-filters="sRGB">
<feFlood flood-opacity="0" result="BackgroundImageFix"/>
<feColorMatrix in="SourceAlpha" type="matrix" values="0 0 0 0 0 0 0 0 0 0 0 0 0 0 0 0 0 0 127 0"/>
<feOffset dy="2"/>
<feGaussianBlur stdDeviation="2"/>
<feColorMatrix type="matrix" values="0 0 0 0 0.671157 0 0 0 0 0.72817 0 0 0 0 0.785183 0 0 0 0.113063 0"/>
<feBlend mode="normal" in2="BackgroundImageFix" result="effect1_dropShadow"/>
<feColorMatrix in="SourceAlpha" type="matrix" values="0 0 0 0 0 0 0 0 0 0 0 0 0 0 0 0 0 0 127 0"/>
<feOffset dy="1"/>
<feGaussianBlur stdDeviation="0.5"/>
<feColorMatrix type="matrix" values="0 0 0 0 0.321569 0 0 0 0 0.380392 0 0 0 0 0.560784 0 0 0 0.0656414 0"/>
<feBlend mode="normal" in2="effect1_dropShadow" result="effect2_dropShadow"/>
<feBlend mode="normal" in="SourceGraphic" in2="effect2_dropShadow" result="shape"/>
</filter>
<filter id="filter3_dd" x="16.5342" y="21.5049" width="25.1668" height="25.1668" filterUnits="userSpaceOnUse" color-interpolation-filters="sRGB">
<feFlood flood-opacity="0" result="BackgroundImageFix"/>
<feColorMatrix in="SourceAlpha" type="matrix" values="0 0 0 0 0 0 0 0 0 0 0 0 0 0 0 0 0 0 127 0"/>
<feOffset dy="2"/>
<feGaussianBlur stdDeviation="2"/>
<feColorMatrix type="matrix" values="0 0 0 0 0.671157 0 0 0 0 0.72817 0 0 0 0 0.785183 0 0 0 0.113063 0"/>
<feBlend mode="normal" in2="BackgroundImageFix" result="effect1_dropShadow"/>
<feColorMatrix in="SourceAlpha" type="matrix" values="0 0 0 0 0 0 0 0 0 0 0 0 0 0 0 0 0 0 127 0"/>
<feOffset dy="1"/>
<feGaussianBlur stdDeviation="0.5"/>
<feColorMatrix type="matrix" values="0 0 0 0 0.321569 0 0 0 0 0.380392 0 0 0 0 0.560784 0 0 0 0.0656414 0"/>
<feBlend mode="normal" in2="effect1_dropShadow" result="effect2_dropShadow"/>
<feBlend mode="normal" in="SourceGraphic" in2="effect2_dropShadow" result="shape"/>
</filter>
<linearGradient id="paint0_linear" x1="4.53906" y1="23.585" x2="34.0199" y2="74.6472" gradientUnits="userSpaceOnUse">
<stop stop-color="#F6F9FC"/>
<stop offset="1" stop-color="#E3E9EF"/>
</linearGradient>
<linearGradient id="paint1_linear" x1="4.53906" y1="23.585" x2="34.0199" y2="74.6472" gradientUnits="userSpaceOnUse">
<stop stop-color="#E3E9EF"/>
<stop offset="1" stop-color="#F6F9FC"/>
</linearGradient>
<linearGradient id="paint2_linear" x1="9.9082" y1="25.0234" x2="35.4583" y2="69.2774" gradientUnits="userSpaceOnUse">
<stop stop-color="#E3E9EF"/>
<stop offset="1" stop-color="#F6F9FC"/>
</linearGradient>
<linearGradient id="paint3_linear" x1="9.9082" y1="25.0234" x2="35.4583" y2="69.2774" gradientUnits="userSpaceOnUse">
<stop stop-color="#E3E9EF"/>
<stop offset="1" stop-color="#F6F9FC"/>
</linearGradient>
<linearGradient id="paint4_linear" x1="27.2461" y1="49.8115" x2="27.2461" y2="52.432" gradientUnits="userSpaceOnUse">
<stop stop-color="#7351FF"/>
<stop offset="1" stop-color="#7F98FF"/>
</linearGradient>
<linearGradient id="paint5_linear" x1="31.7852" y1="47.1914" x2="31.7852" y2="49.8119" gradientUnits="userSpaceOnUse">
<stop stop-color="#7351FF"/>
<stop offset="1" stop-color="#7F98FF"/>
</linearGradient>
<linearGradient id="paint6_linear" x1="53.3844" y1="70.5735" x2="50.9398" y2="60.8027" gradientUnits="userSpaceOnUse">
<stop stop-color="#7351FF"/>
<stop offset="1" stop-color="#7F98FF"/>
</linearGradient>
<linearGradient id="paint7_linear" x1="30.0762" y1="28.5088" x2="30.0762" y2="46.8524" gradientUnits="userSpaceOnUse">
<stop stop-color="#F6F9FC"/>
<stop offset="1" stop-color="#E3E9EF"/>
</linearGradient>
<linearGradient id="paint8_linear" x1="30.0762" y1="28.5088" x2="30.0762" y2="46.8524" gradientUnits="userSpaceOnUse">
<stop stop-color="#E3E9EF"/>
<stop offset="1" stop-color="#F6F9FC"/>
</linearGradient>
<linearGradient id="paint9_linear" x1="43.6262" y1="22.0043" x2="43.6262" y2="19.1397" gradientUnits="userSpaceOnUse">
<stop stop-color="#6C6C6C"/>
<stop offset="1" stop-color="#B9B9B9"/>
</linearGradient>
<linearGradient id="paint10_linear" x1="49.6728" y1="36.1652" x2="39.8765" y2="26.0137" gradientUnits="userSpaceOnUse">
<stop stop-color="#B9B9B9"/>
<stop offset="1" stop-color="#6C6C6C"/>
</linearGradient>
<linearGradient id="paint11_linear" x1="11.2116" y1="4.68822" x2="4.35418" y2="-2.41786" gradientUnits="userSpaceOnUse">
<stop stop-color="#6C6C6C"/>
<stop offset="1" stop-color="#B9B9B9"/>
</linearGradient>
<linearGradient id="paint12_linear" x1="38.2163" y1="36.788" x2="40.069" y2="26.4675" gradientUnits="userSpaceOnUse">
<stop stop-color="#B9B9B9"/>
<stop offset="1" stop-color="#6C6C6C"/>
</linearGradient>
<linearGradient id="paint13_linear" x1="16.5879" y1="28.7314" x2="16.5879" y2="47.0751" gradientUnits="userSpaceOnUse">
<stop stop-color="#F6F9FC"/>
<stop offset="1" stop-color="#E3E9EF"/>
</linearGradient>
<linearGradient id="paint14_linear" x1="16.5879" y1="28.7314" x2="16.5879" y2="47.0751" gradientUnits="userSpaceOnUse">
<stop stop-color="#E3E9EF"/>
<stop offset="1" stop-color="#F6F9FC"/>
</linearGradient>
<linearGradient id="paint15_linear" x1="34.9046" y1="39.7628" x2="28.8441" y2="30.9546" gradientUnits="userSpaceOnUse">
<stop stop-color="#7351FF"/>
<stop offset="1" stop-color="#7F98FF"/>
</linearGradient>
<linearGradient id="paint16_linear" x1="22.703" y1="36.3683" x2="23.2942" y2="28.9075" gradientUnits="userSpaceOnUse">
<stop stop-color="#7F98FF"/>
<stop offset="1" stop-color="#7351FF"/>
</linearGradient>
<linearGradient id="paint17_linear" x1="26.6443" y1="38.2822" x2="27.3199" y2="29.7555" gradientUnits="userSpaceOnUse">
<stop stop-color="#7351FF"/>
<stop offset="1" stop-color="#7F98FF"/>
</linearGradient>
<clipPath id="clip0">
<rect width="52.4104" height="58.9616" fill="white" transform="translate(0 26.2051) rotate(-30)"/>
</clipPath>
</defs>
</svg>
