<svg width="18" height="18" viewBox="0 0 18 18" fill="none" xmlns="http://www.w3.org/2000/svg">
<path d="M9.15697 0C9.58897 0.1388 9.89697 0.4452 10.2078 0.7568C12.4502 3.0052 14.6986 5.248 16.9398 7.498C17.0938 7.6524 17.247 7.8324 17.3286 8.03C17.7858 9.1384 17.1026 10.2668 15.9154 10.3148C15.8246 10.3184 15.7338 10.3152 15.6142 10.3152C15.6142 10.3892 15.6142 10.4544 15.6142 10.5196C15.6142 12.1928 15.617 13.866 15.613 15.5392C15.6106 16.4544 15.029 17.1936 14.1538 17.3992C14.0006 17.4352 13.8386 17.4484 13.6806 17.4492C12.7926 17.454 11.905 17.452 11.017 17.4512C10.6314 17.4512 10.4266 17.2476 10.4266 16.862C10.4254 15.5472 10.4266 14.2328 10.4258 12.918C10.4258 12.31 10.0806 11.9632 9.47617 11.962C8.98657 11.9608 8.49737 11.9608 8.00777 11.962C7.41337 11.9636 7.06737 12.3116 7.06697 12.9092C7.06617 14.2124 7.06697 15.5156 7.06657 16.8192C7.06657 17.2632 6.87737 17.4516 6.43297 17.4516C5.56777 17.4516 4.70297 17.4528 3.83777 17.4516C2.69177 17.45 1.88137 16.6428 1.87977 15.4972C1.87777 13.8468 1.87937 12.1964 1.87937 10.546C1.87937 10.4784 1.87937 10.4108 1.87937 10.3348C1.68417 10.318 1.49657 10.3192 1.31577 10.2836C0.706573 10.1648 0.289773 9.804 0.0921727 9.2196C-0.103427 8.6408 0.0165726 8.1092 0.411373 7.642C0.462573 7.5812 0.520573 7.526 0.576973 7.4696C2.80217 5.244 5.02897 3.0196 7.25217 0.792C7.57377 0.47 7.88577 0.1408 8.33777 0.000400009H9.15737L9.15697 0ZM11.4506 16.4272H11.6606C12.2922 16.4272 12.9254 16.4036 13.5554 16.434C14.1942 16.4648 14.6058 16.0504 14.5974 15.4024C14.5738 13.576 14.589 11.7488 14.589 9.9224C14.589 9.4812 14.7798 9.2928 15.2254 9.2924C15.4474 9.2924 15.6694 9.2956 15.8914 9.2908C16.1294 9.2856 16.3034 9.1696 16.4054 8.9564C16.511 8.7344 16.4766 8.5244 16.325 8.334C16.279 8.2764 16.2246 8.2256 16.1722 8.1732C13.8702 5.8712 11.5682 3.5692 9.26617 1.2672C8.89297 0.894 8.60177 0.8928 8.23097 1.264C6.17057 3.3244 4.10977 5.3848 2.04937 7.4456C1.76377 7.7312 1.47457 8.014 1.19377 8.3044C1.01937 8.4848 0.976973 8.7044 1.07577 8.9356C1.17417 9.1652 1.35777 9.2872 1.61057 9.2912C1.82697 9.2948 2.04297 9.2924 2.25937 9.2924C2.71497 9.2924 2.90297 9.4796 2.90297 9.9332C2.90297 11.7944 2.90217 13.6556 2.90337 15.5164C2.90337 16.0664 3.26297 16.4256 3.81057 16.4268C4.49937 16.4284 5.18777 16.4272 5.87657 16.4268C5.92617 16.4268 5.97537 16.4212 6.04137 16.4172C6.04137 16.3408 6.04137 16.2736 6.04137 16.2068C6.04137 15.0912 6.03657 13.9756 6.04297 12.8604C6.04897 11.804 6.77657 11.012 7.83017 10.9504C8.43697 10.9152 9.04737 10.942 9.65617 10.9456C9.75777 10.946 9.86097 10.9624 9.96017 10.9848C10.855 11.1856 11.4438 11.92 11.4486 12.8552C11.4542 13.9708 11.4502 15.0864 11.4502 16.2016C11.4502 16.2688 11.4502 16.3364 11.4502 16.4276L11.4506 16.4272Z" fill="white"/>
</svg>
