<svg width="32" height="32" viewBox="0 0 32 32" fill="none" xmlns="http://www.w3.org/2000/svg">
<mask id="mask0" mask-type="alpha" maskUnits="userSpaceOnUse" x="0" y="0" width="32" height="32">
<rect width="32" height="32" rx="16" fill="#C4C4C4"/>
</mask>
<g mask="url(#mask0)">
<path d="M16 32C24.8366 32 32 25.0604 32 16.5C32 7.93959 24.8366 1 16 1C7.16344 1 0 7.93959 0 16.5C0 25.0604 7.16344 32 16 32Z" fill="#FC5C42"/>
<path d="M16.0917 11.2395C19.1953 11.2395 21.7114 8.72342 21.7114 5.61973C21.7114 2.51604 19.1953 0 16.0917 0C12.988 0 10.4719 2.51604 10.4719 5.61973C10.4719 8.72342 12.988 11.2395 16.0917 11.2395Z" fill="#333333"/>
<path d="M9.76182 16.9231C12.8655 16.9231 15.3815 14.407 15.3815 11.3033C15.3815 8.19963 12.8655 5.68359 9.76182 5.68359C6.65813 5.68359 4.14209 8.19963 4.14209 11.3033C4.14209 14.407 6.65813 16.9231 9.76182 16.9231Z" fill="#333333"/>
<path d="M21.6927 16.9231C24.7964 16.9231 27.3124 14.407 27.3124 11.3033C27.3124 8.19963 24.7964 5.68359 21.6927 5.68359C18.589 5.68359 16.073 8.19963 16.073 11.3033C16.073 14.407 18.589 16.9231 21.6927 16.9231Z" fill="#333333"/>
<path d="M16.0215 9.00195H16.0209C11.9732 9.00195 8.69189 12.2833 8.69189 16.331V34.6983C8.69189 38.746 11.9732 42.0273 16.0209 42.0273H16.0215C20.0692 42.0273 23.3505 38.746 23.3505 34.6983V16.331C23.3505 12.2833 20.0692 9.00195 16.0215 9.00195Z" fill="white"/>
<path d="M13.7236 13.1695L12.6329 13.5717C12.5054 13.618 12.3648 13.6121 12.2417 13.5553C12.1186 13.4984 12.0229 13.3952 11.9755 13.2682C11.9523 13.2048 11.9417 13.1374 11.9445 13.07C11.9473 13.0025 11.9634 12.9363 11.9918 12.8751C12.0203 12.8138 12.0605 12.7588 12.1102 12.7131C12.1599 12.6674 12.2182 12.632 12.2816 12.6089L13.3723 12.2067C13.4998 12.1604 13.6404 12.1663 13.7635 12.2231C13.8866 12.28 13.9823 12.3832 14.0297 12.5102C14.0529 12.5736 14.0635 12.641 14.0606 12.7084C14.0578 12.7759 14.0418 12.8421 14.0133 12.9034C13.9849 12.9646 13.9447 13.0196 13.895 13.0653C13.8452 13.111 13.787 13.1464 13.7236 13.1695Z" fill="#333333"/>
<path d="M18.3191 13.1695L19.4092 13.5717C19.5365 13.618 19.677 13.612 19.8001 13.5552C19.9231 13.4983 20.0186 13.3951 20.0659 13.2681C20.1132 13.1406 20.108 12.9995 20.0513 12.8759C19.9946 12.7523 19.8911 12.6562 19.7636 12.6089L18.6723 12.2067C18.5449 12.1604 18.4044 12.1663 18.2814 12.2232C18.1584 12.28 18.0628 12.3832 18.0155 12.5102C17.9921 12.5734 17.9814 12.6406 17.984 12.708C17.9866 12.7754 18.0025 12.8415 18.0307 12.9028C18.0588 12.964 18.0988 13.0191 18.1483 13.0648C18.1978 13.1106 18.2558 13.1462 18.3191 13.1695Z" fill="#333333"/>
<path d="M14.9267 16.1994C15.2985 16.1994 15.6 15.7774 15.6 15.2569C15.6 14.7364 15.2985 14.3145 14.9267 14.3145C14.5549 14.3145 14.2534 14.7364 14.2534 15.2569C14.2534 15.7774 14.5549 16.1994 14.9267 16.1994Z" fill="#333333"/>
<path d="M17.1164 16.1994C17.4882 16.1994 17.7897 15.7774 17.7897 15.2569C17.7897 14.7364 17.4882 14.3145 17.1164 14.3145C16.7445 14.3145 16.4431 14.7364 16.4431 15.2569C16.4431 15.7774 16.7445 16.1994 17.1164 16.1994Z" fill="#333333"/>
<path d="M9.67634 17.7876C10.0657 16.8666 9.63484 15.8044 8.7139 15.415C7.79295 15.0256 6.73071 15.4565 6.3413 16.3774C5.9519 17.2983 6.3828 18.3606 7.30375 18.75C8.22469 19.1394 9.28694 18.7085 9.67634 17.7876Z" fill="white"/>
<path d="M25.0191 17.7875C25.4085 16.8666 24.9776 15.8044 24.0567 15.415C23.1357 15.0256 22.0735 15.4565 21.6841 16.3774C21.2947 17.2983 21.7256 18.3606 22.6465 18.75C23.5675 19.1394 24.6297 18.7085 25.0191 17.7875Z" fill="white"/>
<path d="M13.9416 17.2506C13.812 17.2511 13.6844 17.2829 13.5698 17.3434C13.4552 17.4039 13.3569 17.4913 13.2835 17.5981C13.2101 17.7049 13.1636 17.8279 13.1481 17.9565C13.1326 18.0852 13.1485 18.2157 13.1945 18.3369C13.4165 18.9253 13.8125 19.4322 14.3298 19.7899C14.847 20.1476 15.461 20.3392 16.0899 20.3392C16.7189 20.3392 17.3329 20.1476 17.8501 19.7899C18.3674 19.4322 18.7634 18.9253 18.9854 18.3369C19.0315 18.2157 19.0475 18.0851 19.0321 17.9564C19.0166 17.8276 18.9702 17.7045 18.8967 17.5976C18.8233 17.4908 18.725 17.4033 18.6103 17.3427C18.4956 17.2822 18.368 17.2504 18.2383 17.25L13.9416 17.2506Z" fill="#F2F2F2"/>
<path d="M23.3423 24.1367H8.69189V35.0344H23.3423V24.1367Z" fill="#333333"/>
<path d="M23.3423 26.5098H8.69189V28.0708H23.3423V26.5098Z" fill="#333333"/>
<path d="M23.3423 28.9316H8.69189V30.4926H23.3423V28.9316Z" fill="#333333"/>
<path d="M7.05343 40.3182C6.61931 40.317 6.20329 40.1441 5.89626 39.8372C5.58923 39.5302 5.41614 39.1143 5.41479 38.6802V25.7747C5.41614 25.3406 5.58923 24.9246 5.89626 24.6177C6.20329 24.3108 6.61931 24.1379 7.05343 24.1367H8.69207V38.6802C8.69072 39.1143 8.51763 39.5302 8.2106 39.8372C7.90357 40.1441 7.48755 40.317 7.05343 40.3182Z" fill="white"/>
<path d="M24.981 40.3164C24.5464 40.3164 24.1296 40.1438 23.8223 39.8365C23.515 39.5292 23.3424 39.1124 23.3424 38.6778V24.135H24.981C25.4156 24.135 25.8324 24.3076 26.1397 24.6149C26.447 24.9222 26.6196 25.339 26.6196 25.7736L26.6196 38.6784C26.6195 39.1129 26.4467 39.5295 26.1395 39.8367C25.8322 40.1439 25.4155 40.3164 24.981 40.3164Z" fill="white"/>
</g>
</svg>
