<?xml version="1.0" encoding="utf-8"?>
<!-- Generator: Adobe Illustrator 22.1.0, SVG Export Plug-In . SVG Version: 6.00 Build 0)  -->
<svg version="1.1" xmlns="http://www.w3.org/2000/svg" xmlns:xlink="http://www.w3.org/1999/xlink" x="0px" y="0px"
	 viewBox="0 0 566.9 566.9" style="enable-background:new 0 0 566.9 566.9;" xml:space="preserve">
<style type="text/css">
	.st0{display:none;}
	.st1{display:inline;fill:#FF6633;}
	.st2{display:inline;}
	.st3{fill:#FFFFFF;}
	.st4{fill:#FF6633;}
	.st5{clip-path:url(#SVGID_2_);}
	.st6{clip-path:url(#SVGID_4_);fill:#FFFFFF;}
	
		.st7{clip-path:url(#SVGID_4_);fill:none;stroke:#FF3100;stroke-width:3.713;stroke-linecap:round;stroke-linejoin:round;stroke-miterlimit:10;}
</style>
<g id="how_it_works" class="st0">
	<circle class="st1" cx="292" cy="288" r="229"/>
	<g class="st2">
		<path class="st3" d="M300.8,181.4c2.3,1.3,4.3,2.9,5.7,5.1c2,2.9,2.9,5.8,2.2,9.5c-2.8,14.3-5.4,28.7-8.1,43c-0.2,0-0.4,0.1-0.5,0
			c-6.7-6.3-13-12.9-18.2-20.6c-3.1-4.6-3.1-9.9-4.2-15c-0.2-1.1-0.3-2.3-0.6-3.4c-1.4-6.1,0.2-11.4,4.4-16
			c-0.7-0.7-1.2-0.1-1.7,0.2c-6.2,3.2-11.3,7.6-14.5,14c-0.5,1,0,1.4,0.4,2.1c2,3.2,2.8,6.7,2.3,10.5c-0.5,3.9-1.9,7.1-5.5,9.5
			c-11.4,7.6-22.6,15.5-33.9,23.2c-0.7,0.5-1.3,1.3-2.5,1.3c-0.3-6,0-11.9,0.4-17.8c0.2-2.4,0.5-4.8,0.9-7.2c0.6-4,1.8-7.7,4.4-11
			c2.3-2.9,4.3-6.1,6.5-9.1c4-5.5,9.4-7.8,16-6.8c2.2,0.3,3.2-0.2,4.1-2c0.5-1,1.3-1.9,2-2.9c-7.7-0.3-14.2-3.9-21.2-6.2
			c-0.7-0.2-1.4-0.7-2.1-1.2c-8.3-6.5-13.9-15.3-19.9-23.9c1.2-0.8,2.2-0.5,3.1-0.5c13.6,0,27.3,0.1,40.9-0.1
			c6.2-0.1,9.5,3.7,12.1,8.5c0.9,1.7,1.4,3.7,1.5,5.6c0.2,2.8,2.5,4.4,5.1,3.5c20.7-7.5,41.2-0.1,54,16.5
			c14.1,18.3,17.3,38.3,8.1,59.7c-3.7,8.7-9.5,16.3-15.6,23.5c-8.4,10.1-16.6,20.5-21.9,32.7c-5.7,13.2-8.1,27-8.6,41.3
			c0,0.2,0.1,0.5,0.2,0.8c2.8-1.9,4-4.3,4.4-7.7c4.2-32.6,28.8-60.1,60.7-68.2c6-1.5,12-2.3,18.2-2.7c1.8-0.1,2.2,0.5,2.1,2.2
			c-0.7,37.2-29.1,71-65.7,78c-1.5,0.3-3,0.8-4.5,0.7c-4-0.1-6.7,1.9-9,4.7c-0.8,0.9-1.9,1.6-2.6,2.7c-2.6,3.8-6.4,3.3-10,2.6
			c-2.3-0.5-3.3-2.2-3.3-4.6c-0.7-29.9,6.7-57.2,26.2-80.6c6.9-8.3,13.8-16.5,19.1-26c9.4-16.6,7.6-37.1-4.9-53
			c-6.4-8.1-14.3-13.8-24.7-15.5c-0.8-0.4-1.7,0-2.5-0.2c-0.1,0-0.3-0.1-0.4-0.1c-0.2,0-0.2,0.1,0,0.1
			C300.1,180.9,300.5,181.1,300.8,181.4z"/>
		<path class="st3" d="M290,371.4c6.3,0,12.7-0.2,19,0c9.6,0.3,16.7,4.8,20.8,13.4c4.1,8.7,3.3,17.5-3.1,24.7
			c-7.2,8.1-13.3,16.9-20,25.4c-1.2,1.5-2.3,2.1-4.2,2.1c-8.1-0.1-16.2-0.1-24.3,0c-1.6,0-2.6-0.5-3.6-1.8c-5-6.4-10.1-12.7-15.1-19
			c-1-1.2-2.1-2.4-3.3-3.5c-7.8-7.1-10.3-17.2-6.7-26.4c3.6-9.2,12.2-14.8,22.6-14.8C278.1,371.4,284,371.4,290,371.4z"/>
		<path class="st4" d="M299.6,180.4c0.9,0.1,2-0.1,2.8,0.5c-0.5,0.3-1.2-0.1-1.7,0.5c-0.5-0.2-1-0.3-1.5-0.5
			C298.9,180.4,299.1,180.3,299.6,180.4z"/>
		<path class="st4" d="M319.9,339.3c7.7-7.8,15.3-15.7,22.9-23.5c0.6-0.6,1.3-1.2,1.8-1.9c1.6-1.9,1.4-4.6-0.3-6.3
			c-1.8-1.7-4.3-1.9-6.3-0.2c-0.6,0.4-1,1-1.5,1.5c-7.5,7.4-14.9,14.8-22.4,22.2c-0.6,0.6-1.3,1.2-2.3,2.2c4-14.3,11.2-26,21.8-35.4
			c10.4-9.3,22.5-15.1,36.2-17.6c1.4-0.3,2.1-0.4,1.7,1.5c-5.8,28.5-22.4,47.6-49.8,57.2C321,339.2,320.4,339.5,319.9,339.3z"/>
		<path class="st4" d="M235.5,165.5c9.2,0,17.8-0.1,26.4,0c2.9,0,4.7,4.4,3.1,6.8c-0.4,0.6-1,1.4-1,2.1c0,3.2-2.3,3.6-4.6,3.9
			c-1.1,0.1-2.3-0.1-3.4-0.5c-2.8-1.1-5.6-2.2-8.5-3C242.3,173.5,239,170,235.5,165.5z"/>
		<path class="st4" d="M236,227.2c0.5-5.6,1.2-10.4,4.6-14.5c2-2.4,3.7-5,5.4-7.6c1.1-1.5,2.5-2.5,4.2-3c1.5-0.4,2.7-0.5,3.4,1.3
			c0.4,1.1,1.6,1.9,2.7,2c1.5,0.2,2.3,0.8,2.4,2.2c0.2,1.7,0.4,3.5-1.2,4.6C250.6,217.2,243.5,222,236,227.2z"/>
		<path class="st4" d="M294.6,219.9c-3.1-3.8-6-7.1-6.7-11.8c-0.5-3.3-1.1-6.7-1.7-10c-0.3-1.6-0.5-3.2,0.2-4.7
			c0.8-1.8,1.6-3.7,4.2-2.7c0.9,0.3,2,0.1,2.8-0.5c1.3-1.1,2.4-0.8,3.5,0.1c1.4,1.1,2.8,2.3,2.4,4.4
			C297.9,202.9,296.3,211.1,294.6,219.9z"/>
		<path class="st4" d="M289.8,404.1c-8.9,0-17.8-0.1-26.7,0.1c-2,0-3.1-0.7-4-2.4c-5.4-9.5,1.3-20.9,12.4-21c11.1-0.1,22.3,0,33.4,0
			c1.7,0,3.4-0.1,5.1,0.1c10.2,0.9,16,11.9,11,20.8c-1,1.7-2.1,2.5-4.2,2.5C307.8,404.1,298.8,404.1,289.8,404.1z"/>
		<path class="st4" d="M307.5,418.4c-2.3,3-4.4,5.7-6.4,8.5c-0.5,0.7-1.2,0.7-1.9,0.7c-5.7,0-11.4,0-17.1,0c-0.8,0-1.5,0-2.1-0.8
			c-2.1-2.7-4.3-5.4-6.6-8.4C284.8,418.4,295.9,418.4,307.5,418.4z"/>
	</g>
</g>
<g id="patricia_brands">
	<circle class="st4" cx="292" cy="288" r="229"/>
	<g>
		<path class="st4" d="M299.6,163.8c1.1,0.2,2.2-0.2,3.2,0.6c-0.6,0.3-1.4-0.1-1.9,0.6c-0.6-0.2-1.2-0.4-1.7-0.6
			C298.8,163.8,299.1,163.7,299.6,163.8z"/>
		<path class="st4" d="M322.8,345.4c8.7-9,17.5-17.9,26.2-26.9c0.7-0.7,1.5-1.4,2.1-2.2c1.8-2.2,1.6-5.3-0.3-7.2
			c-2-2-4.9-2.1-7.2-0.3c-0.6,0.5-1.2,1.1-1.8,1.7c-8.5,8.5-17.1,16.9-25.6,25.4c-0.7,0.7-1.4,1.4-2.7,2.6
			c4.6-16.3,12.8-29.7,24.9-40.5c11.9-10.6,25.7-17.3,41.4-20.1c1.6-0.3,2.4-0.5,1.9,1.7c-6.6,32.6-25.6,54.4-56.9,65.4
			C324.1,345.3,323.4,345.7,322.8,345.4z"/>
		<path class="st4" d="M226.3,146.7c10.5,0,20.3-0.1,30.2,0.1c3.3,0.1,5.4,5.1,3.5,7.8c-0.5,0.7-1.1,1.6-1.1,2.5
			c0,3.7-2.6,4.1-5.3,4.5c-1.3,0.2-2.6-0.1-3.9-0.6c-3.2-1.2-6.4-2.5-9.7-3.4C234,155.9,230.3,151.8,226.3,146.7z"/>
		<path class="st4" d="M226.8,217.3c0.5-6.4,1.4-11.9,5.3-16.5c2.3-2.7,4.2-5.8,6.2-8.7c1.2-1.8,2.8-2.9,4.9-3.4
			c1.7-0.5,3.1-0.5,3.9,1.5c0.5,1.3,1.8,2.1,3.1,2.3c1.7,0.2,2.6,0.9,2.8,2.5c0.2,1.9,0.5,4-1.4,5.3
			C243.5,205.8,235.4,211.4,226.8,217.3z"/>
		<path class="st4" d="M293.9,208.9c-3.6-4.3-6.8-8.1-7.6-13.4c-0.6-3.8-1.3-7.6-1.9-11.4c-0.3-1.8-0.5-3.7,0.3-5.4
			c0.9-2,1.8-4.2,4.8-3.1c1,0.4,2.3,0.2,3.2-0.6c1.5-1.3,2.8-0.9,4,0.1c1.6,1.3,3.2,2.6,2.7,5.1
			C297.6,189.5,295.8,198.9,293.9,208.9z"/>
		<path class="st4" d="M288.4,419.6c-10.2,0-20.4-0.1-30.5,0.1c-2.3,0-3.5-0.8-4.6-2.7c-6.2-10.8,1.5-23.9,14.2-24
			c12.7-0.1,25.4,0,38.2,0c1.9,0,3.9-0.1,5.8,0.1c11.6,1,18.3,13.6,12.6,23.8c-1.1,2-2.4,2.9-4.8,2.8
			C308.9,419.5,298.6,419.6,288.4,419.6z"/>
		<path class="st4" d="M308.6,435.9c-2.6,3.5-5,6.6-7.3,9.7c-0.6,0.8-1.3,0.8-2.2,0.8c-6.5,0-13,0-19.6,0c-0.9,0-1.7,0-2.4-0.9
			c-2.4-3.1-4.9-6.2-7.6-9.6C282.7,435.9,295.4,435.9,308.6,435.9z"/>
	</g>
	<g>
		<path class="st3" d="M406.3,325.5c0.2,3.4-1.6,4.6-3.8,5.5c-10.5,4.4-21,8.8-31.5,13.2c-25.5,10.7-50.9,21.3-76.4,32
			c-4.7,2-6.1,1.4-8.1-3.4c-19.5-46.7-39-93.5-58.4-140.2c-2.2-5.3-4.4-10.6-6.6-15.9c-1.5-3.8-0.6-5.7,3.2-7.3
			c36-15.1,71.9-30.1,107.9-45.2c4.7-2,6.1-1.4,8.1,3.4c17.1,40.9,34.2,81.9,51.2,122.8c4.5,10.8,9,21.7,13.5,32.5
			C405.8,324,406.2,325.1,406.3,325.5z M362.9,244.5c-9.9-23.7-19.8-47.3-29.7-71.1c-34.2,14.3-68,28.5-102.1,42.7
			c9.9,23.8,19.8,47.4,29.7,71.1C294.9,273,328.8,258.8,362.9,244.5z M264.4,295.8c10,23.9,19.8,47.4,29.7,71.1
			c34.1-14.3,68.1-28.5,102.1-42.7c-10-23.9-19.8-47.4-29.7-71.1C332.3,267.4,298.5,281.5,264.4,295.8z"/>
		<path class="st3" d="M304.2,393.4c11.5,13.3,7.3,29.6-2.6,37.3c-10.6,8.3-26,6.8-34.8-3.5c-7.6-8.9-9.8-24.8,4.7-36.7
			c-28.1-67.4-56.2-134.8-84.5-202.6c-0.9,0.5-1.8,0.9-2.6,1.4c-9.2,5.2-18.5,10.4-27.7,15.6c-0.6,0.3-1.2,0.7-1.9,1
			c-2.4,0.9-5.1,0.1-6.1-1.8c-1.1-2.2-0.3-5.1,2-6.4c12.2-7,24.4-13.9,36.6-20.8c2.3-1.3,4.8,0,6.1,2.9c3.5,8.3,6.9,16.6,10.4,24.9
			c24.9,59.8,49.8,119.5,74.7,179.3c0.3,0.8,0.7,1.6,0.8,1.7c5.2,0.5,10,0.9,14.8,1.3c0.8,0.1,1.7-0.3,2.5-0.7
			c43.5-18.8,87-37.5,130.4-56.3c0.9-0.4,1.8-0.8,2.7-1.2c2.6-0.9,4.9-0.1,5.9,2c1,2.1,0.2,5-1.9,6.3c-1.4,0.9-3,1.5-4.5,2.1
			c-40.8,17.7-81.6,35.4-122.3,53.1C306,392.5,305.1,393,304.2,393.4z M286.1,426.6c8.9,0,16.2-7.3,16.1-16.2
			c0-8.9-7.3-16.2-16.2-16.2c-9.1,0-16.3,7.2-16.2,16.3C269.9,419.6,277,426.7,286.1,426.6z"/>
		<path class="st4" d="M362.9,244.5c-34.1,14.3-68,28.4-102.1,42.7c-9.9-23.7-19.7-47.3-29.7-71.1c34.1-14.3,67.9-28.4,102.1-42.7
			C343.1,197.2,353,220.8,362.9,244.5z"/>
		<path class="st4" d="M264.4,295.8c34.1-14.3,67.9-28.4,102.1-42.7c9.9,23.6,19.7,47.2,29.7,71.1c-34,14.2-68,28.4-102.1,42.7
			C284.2,343.2,274.4,319.7,264.4,295.8z"/>
		<path class="st4" d="M286.1,426.6c-9,0-16.1-7-16.2-16c-0.1-9.1,7.1-16.4,16.2-16.3c8.9,0,16.1,7.3,16.2,16.2
			C302.2,419.4,295,426.6,286.1,426.6z"/>
	</g>
</g>
<g id="meet_patricia_skins" class="st0">
	<path class="st1" d="M63,295c0,130.3,105.7,230,236,230s236-99.7,236-230S429.3,53,299,53S63,164.7,63,295z"/>
	<g class="st2">
		<path class="st4" d="M306.9,167c1.1,0.2,2.3-0.2,3.3,0.6c-0.6,0.4-1.4-0.1-2,0.6c-0.6-0.2-1.2-0.4-1.8-0.6
			C306,167,306.3,166.9,306.9,167z"/>
		<path class="st4" d="M330.7,354.2c9-9.2,18-18.5,27-27.7c0.7-0.8,1.5-1.5,2.2-2.3c1.8-2.3,1.7-5.4-0.3-7.4c-2.1-2.1-5-2.2-7.4-0.3
			c-0.7,0.5-1.2,1.2-1.8,1.7c-8.8,8.7-17.6,17.4-26.4,26.1c-0.7,0.7-1.5,1.4-2.8,2.6c4.8-16.8,13.2-30.6,25.6-41.8
			c12.2-11,26.5-17.8,42.7-20.7c1.7-0.3,2.5-0.5,2,1.8c-6.8,33.6-26.3,56-58.7,67.4C332.1,354,331.3,354.4,330.7,354.2z"/>
		<path class="st4" d="M231.3,149.4c10.8,0,21-0.1,31.1,0.1c3.4,0.1,5.5,5.2,3.6,8c-0.5,0.8-1.1,1.7-1.1,2.5c0,3.8-2.7,4.2-5.5,4.6
			c-1.4,0.2-2.7-0.1-4-0.6c-3.3-1.2-6.6-2.6-10-3.5C239.3,158.9,235.4,154.6,231.3,149.4z"/>
		<path class="st4" d="M231.8,222.1c0.5-6.6,1.4-12.3,5.5-17c2.4-2.8,4.3-5.9,6.4-8.9c1.2-1.8,2.9-3,5-3.6c1.7-0.5,3.2-0.6,4.1,1.6
			c0.5,1.3,1.8,2.2,3.2,2.3c1.8,0.2,2.7,0.9,2.9,2.6c0.2,2,0.5,4.1-1.4,5.5C249.1,210.3,240.7,216,231.8,222.1z"/>
		<path class="st4" d="M301,213.5c-3.7-4.4-7-8.4-7.8-13.9c-0.6-3.9-1.3-7.8-2-11.8c-0.3-1.9-0.6-3.8,0.3-5.6c0.9-2.1,1.8-4.3,5-3.2
			c1.1,0.4,2.4,0.2,3.3-0.6c1.5-1.3,2.9-1,4.2,0.1c1.6,1.4,3.3,2.7,2.8,5.2C304.8,193.5,303,203.1,301,213.5z"/>
		<path class="st4" d="M295.2,430.6c-10.5,0-21-0.1-31.5,0.1c-2.4,0-3.6-0.9-4.7-2.8c-6.4-11.2,1.5-24.6,14.6-24.7
			c13.1-0.1,26.2,0,39.3,0c2,0,4-0.1,6,0.1c12,1,18.8,14,13,24.5c-1.1,2-2.4,3-4.9,2.9C316.4,430.5,305.8,430.6,295.2,430.6z"/>
		<path class="st4" d="M316.1,447.4c-2.7,3.6-5.1,6.8-7.6,10c-0.6,0.8-1.4,0.8-2.2,0.8c-6.7,0-13.4,0-20.2,0c-1,0-1.8,0-2.5-0.9
			c-2.5-3.2-5-6.4-7.8-9.9C289.4,447.4,302.5,447.4,316.1,447.4z"/>
	</g>
	<g class="st2">
		<path class="st4" d="M381.7,249.2c-38.3,16-76.3,32-114.7,48c-11.1-26.6-22.2-53.1-33.4-79.8c38.3-16,76.3-31.9,114.7-48
			C359.5,196.1,370.6,222.5,381.7,249.2z"/>
		<path class="st4" d="M271.1,306.8c38.3-16,76.3-31.9,114.7-48c11.1,26.5,22.1,53,33.4,79.8c-38.2,16-76.3,32-114.7,48
			C293.3,360.1,282.3,333.7,271.1,306.8z"/>
		<path class="st4" d="M295.4,453.8c-10.1,0-18.1-7.9-18.2-18c-0.1-10.2,8-18.4,18.2-18.3c10,0,18.1,8.2,18.2,18.2
			C313.5,445.7,305.4,453.8,295.4,453.8z"/>
	</g>
	<g class="st2">
		<path class="st3" d="M206.1,280.1c0-23.8,0-47.6,0-71.4c0-4.1,1.3-5.3,5.4-5.3c31.4,0,62.9,0,94.3,0c4.2,0,5.5,1.2,5.5,5.5
			c0,27,0,53.9,0,80.9c0,2.1,0.5,2.8,2.6,2.7c3.6-0.2,7.2-0.1,10.9,0c1.6,0,1.8-0.5,1.5-1.9c-0.9-4.1-1.6-8.1-2.5-12.2
			c-0.9-4.3,0.5-6.2,4.9-6.1c1.8,0,2-0.4,1.6-2.1c-0.9-3.9-1.6-7.8-2.4-11.7c-0.3-1.2-0.1-1.9,1.3-1.9c0.7,0,1.4-0.3,2-0.4
			c4.3-0.8,4.4-0.8,5.2,3.6c0.7,3.6,1.5,7.2,2.1,10.9c0.2,1.3,0.8,1.8,2.1,1.7c2.5-0.2,5.7,0.8,7.4-0.4c1.8-1.2,1.3-4.7,1.8-7.1
			c0.6-2.7,1.1-5.4,1.7-8.1c0.2-1,0.4-1.6,1.6-1.1c0.8,0.3,1.8,0.4,2.7,0.6c4,0.8,4,0.8,3.1,4.8c-0.7,3.2-1.3,6.5-2,9.7
			c-0.3,1.4,0.1,1.7,1.5,1.7c4.8,0.1,6,1.7,5.1,6.3c-0.8,3.9-1.5,7.8-2.4,11.8c-0.3,1.5-0.1,2.2,1.7,2.1c5.5-0.1,10.9-0.1,16.4,0
			c3.5,0,4.9,1.4,4.9,4.9c0,18.3,0,36.7,0,55c0,3.3-1.4,4.8-4.8,4.8c-2,0.1-4,0.1-6,0c-1,0-1.4,0.3-1.3,1.3c0,0.4,0,0.8,0,1.2
			c-0.1,1.8,0.8,4.7-0.3,5.2c-2,0.9-4.6,0.3-7,0.4c-0.6,0-0.8-0.3-0.8-0.9c0-0.4,0-0.8,0-1.2c-0.1-2,0.9-4.6-0.4-5.7
			c-1.1-1-3.7-0.3-5.6-0.3c-9.4,0-18.8,0-28.2,0c-1.7,0-2.3,0.4-2.2,2.1c0.1,1.9,0.9,4.4-0.3,5.6c-1.3,1.2-3.8,0.2-5.8,0.4
			c-1.6,0.2-2.2-0.3-2-2c0.2-1.6,0-3.2,0.1-4.8c0-1-0.4-1.3-1.3-1.3c-7.2,0-14.3,0-21.5,0c-1.3,0-1.5,0.6-1.5,1.7
			c0.1,1.5-0.1,3.1,0,4.6c0.1,1.4-0.2,2-1.7,1.8c-2-0.2-4.7,0.6-6-0.4c-1.2-1-0.4-3.8-0.3-5.7c0.1-1.6-0.5-2-2-2
			c-17.5,0.1-35,0.1-52.5,0c-1.7,0-2.4,0.3-2.2,2.1c0.1,1.9,0.7,4.5-0.3,5.6c-1.1,1.3-3.8,0.2-5.7,0.4c-1.6,0.2-2.1-0.3-2.1-2
			c0.1-2,0.9-4.7-0.3-5.8c-1.2-1-3.8-0.3-5.8-0.4c-1.7,0-3.4,0-5.1,0c-3.6-0.1-5-1.5-5-5.1C206.1,328,206.1,304.1,206.1,280.1z"/>
		<path class="st3" d="M295.2,179.1c35.8,0,71.7,0,107.5,0c4.6,0,5.7,1.1,5.7,5.7c0,57.9,0,115.9,0.1,173.8c0,2.1-0.6,2.7-2.6,2.4
			c-1.8-0.2-4.2,0.8-5.3-0.4c-0.9-1-0.3-3.4-0.3-5.1c0-55.3,0-110.6,0-166c0-2-0.5-2.5-2.5-2.5c-68.5,0.1-137,0.1-205.5,0
			c-2.1,0-2.5,0.5-2.5,2.5c0.1,61.7,0.1,123.4,0,185.2c0,2.2,0.7,2.6,2.7,2.5c9.6-0.1,19.1-0.1,28.7,0c3.7,0,5.2,1.5,5.2,5.2
			c0,9.8,0,19.6,0,29.4c0,1.4,0.2,1.9,1.8,1.9c56.8,0,113.6,0,170.4,0c1.4,0,1.8-0.3,1.8-1.8c-0.1-2.9,0-5.9-0.1-8.8
			c0-1.1,0.1-1.7,1.5-1.6c2.1,0.2,4.9-0.6,6.3,0.4c1.3,1,0.3,3.9,0.4,6c0.1,3,0,6,0,9c0,3.3-1.5,4.7-4.8,4.8c-0.5,0-1.1,0-1.6,0
			c-59.1,0-118.2,0-177.3,0c-2.8,0-4.9-0.8-6.9-2.9c-11.2-11.4-22.5-22.6-33.8-33.9c-1.5-1.5-2.1-3-2.1-5.1c0-65.2,0-130.4,0-195.6
			c0-4.1,1.3-5.4,5.4-5.4C223.2,179.1,259.2,179.1,295.2,179.1z"/>
		<path class="st3" d="M332.4,373.3c16.5-0.8,33.1-1.7,49.6-2.5c10-0.5,20-1.1,30-1.4c6.7-0.2,12.1,4.9,12.4,11.4
			c0.3,6.9-4.6,12.4-11.5,12.8c-4.9,0.3-9.8,0.6-14.8,0.8c-23.5,1.2-47.1,2.4-70.6,3.6c-19.7,1-39.4,2-59.1,2.9
			c-5.4,0.3-10.8,0.5-16.1,0.9c-1.8,0.1-3.3-0.4-4.6-1.6c-2.3-2.2-4.7-4.2-7-6.4c-2.7-2.5-2.9-4.4-0.5-7.1c2.1-2.4,4.3-4.6,6.3-7.1
			c1.2-1.5,2.7-2.1,4.6-2.2c10.2-0.5,20.5-1,30.7-1.5C298.7,375,315.6,374.1,332.4,373.3z"/>
		<path class="st3" d="M353.9,203.4c8.3,0,16.6,0,25,0c4,0,5.3,1.3,5.3,5.2c0,10,0,20,0,30c0,3.8-1.3,5.2-5.1,5.2
			c-16.8,0-33.6,0-50.4,0c-3.9,0-5.2-1.3-5.2-5.1c0-10.1,0-20.2,0-30.3c0-3.8,1.3-5.1,5.2-5.1C337.1,203.4,345.5,203.4,353.9,203.4z
			"/>
		<path class="st4" d="M214.2,280.4c0-22.2,0-44.4,0-66.5c0-2,0.6-2.4,2.4-2.4c12,0.1,24,0.1,36,0c1.6,0,2.1,0.3,2.1,2
			c0,44.6,0,89.2,0,133.8c0,1.6-0.5,1.9-1.9,1.9c-12.2-0.1-24.3-0.1-36.5,0c-1.8,0-2.1-0.5-2.1-2.2
			C214.3,324.7,214.2,302.5,214.2,280.4z"/>
		<path class="st4" d="M303.2,280.3c0,22.1,0,44.2,0,66.3c0,1.8-0.3,2.4-2.3,2.4c-12-0.1-24-0.1-36,0c-1.6,0-2.2-0.2-2.2-2.1
			c0.1-44.4,0.1-88.9,0-133.3c0-1.9,0.7-2.2,2.4-2.2c12,0.1,24,0.1,36,0c1.7,0,2.1,0.4,2.1,2.1C303.2,235.8,303.2,258.1,303.2,280.3
			z"/>
		<path class="st4" d="M339.7,332.9c0,4.8-0.1,9.6,0,14.3c0,1.5-0.4,1.8-1.8,1.8c-8.3-0.1-16.6-0.1-25,0c-1.3,0-1.7-0.3-1.7-1.7
			c0.1-9.7,0.1-19.4,0-29.1c0-1.3,0.3-1.7,1.7-1.7c8.3,0.1,16.6,0.1,25,0c1.4,0,1.8,0.3,1.8,1.8
			C339.6,323.2,339.7,328.1,339.7,332.9z"/>
		<path class="st4" d="M347.7,332.7c0-4.8,0.1-9.6,0-14.3c0-1.5,0.4-1.8,1.8-1.8c8.3,0.1,16.6,0.1,25,0c1.3,0,1.7,0.3,1.7,1.7
			c-0.1,9.7-0.1,19.4,0,29.1c0,1.3-0.4,1.7-1.7,1.6c-8.3-0.1-16.6-0.1-25,0c-1.4,0-1.8-0.3-1.8-1.8
			C347.7,342.4,347.7,337.6,347.7,332.7z"/>
		<path class="st4" d="M343.7,308.6c-10.1,0-20.2,0-30.3,0c-1.5,0-2.3-0.3-2.1-2c0.2-2-0.6-4.6,0.4-5.8c1.1-1.2,3.8-0.4,5.8-0.4
			c18.8,0,37.6,0,56.4-0.1c1.8,0,2.3,0.5,2.2,2.3c-0.1,5.9,0,5.9-5.8,5.9C361.4,308.6,352.5,308.6,343.7,308.6z"/>
		<path class="st4" d="M343.7,280.2c3.2,0,6.3,0.1,9.5,0c1.3,0,1.8,0.2,1.4,1.6c-0.7,3.1-1.3,6.2-1.9,9.3c-0.2,1.1-0.6,1.4-1.7,1.4
			c-5,0-10,0-15,0c-0.9,0-1.3-0.3-1.5-1.3c-0.5-3.2-1.1-6.4-1.9-9.5c-0.4-1.5,0.3-1.5,1.3-1.5C337.3,280.2,340.5,280.2,343.7,280.2z
			"/>
		<path class="st4" d="M196.2,385.4c7,0,13.9,0,20.8,0c0.6,0,1.2,0,1.2,0.9c0,7,0,14.1,0,21.2C210.9,400.1,203.6,392.8,196.2,385.4z
			"/>
		<path class="st4" d="M342,389c-16.8,0.9-33.5,1.7-50.3,2.5c-6.2,0.3-12.5,0.6-18.7,1c-1.6,0.1-1.9-0.4-2-1.9
			c-0.5-6.3-0.5-6.2,5.7-6.5c23.5-1.2,47.1-2.4,70.6-3.6c19.8-1,39.5-2,59.3-3c1.6-0.1,3.2-0.2,4.8-0.3c2.9-0.1,4.9,1.4,5,3.9
			c0.1,2.3-1.7,4.1-4.5,4.2c-9.8,0.5-19.7,1-29.5,1.5C368.9,387.6,355.4,388.3,342,389z"/>
		<path class="st4" d="M256.8,393.3c-2.7,0.7-5.4-0.1-7.5-2.8c-0.3-0.3-0.8-0.5-0.6-1.1c0.3-1,3.7-3.9,4.7-4
			c2.5-0.2,5.1-0.2,7.6-0.4c1.4-0.1,1.8,0.4,1.7,1.6c0,0.2,0,0.3,0,0.5C263.3,393,263.3,393,256.8,393.3z"/>
		<path class="st4" d="M353.7,235.7c-6.8,0-13.6,0-20.3,0c-1.5,0-1.9-0.4-1.9-1.9c0.1-6.9,0.1-13.7,0-20.6c0-1.4,0.4-1.8,1.8-1.8
			c13.6,0.1,27.3,0.1,40.9,0c1.6,0,1.9,0.5,1.9,2c-0.1,6.9-0.1,13.7,0,20.6c0,1.5-0.4,1.8-1.8,1.8
			C367.4,235.7,360.6,235.7,353.7,235.7z"/>
		<path class="st3" d="M242.5,284.3c-4,0-4,0-4-4c0-4.1,0-4.1,4-4.1c4.1,0,4.1,0,4.1,4.1C246.6,284.3,246.6,284.3,242.5,284.3z"/>
		<path class="st3" d="M274.6,284.3c-3.7,0-3.7,0-3.7-3.9c0-4.3,0-4.3,4.3-4.3c3.8,0,3.8,0,3.8,3.9C279,284.3,279,284.3,274.6,284.3
			z"/>
		<path class="st3" d="M331.5,332.9c0,4,0,4-4.1,4c-3.9,0-3.9,0-3.9-3.8c0-4.4,0-4.4,4.5-4.4C331.5,328.7,331.5,328.7,331.5,332.9z"
			/>
		<path class="st3" d="M355.8,332.8c0-4.1,0-4.1,4.1-4.1c3.9,0,3.9,0,3.9,4c0,4.2,0,4.2-4.2,4.2
			C355.8,336.9,355.8,336.9,355.8,332.8z"/>
	</g>
</g>
<g id="more_inspiration" class="st0">
	<path class="st1" d="M63,295c0,130.3,105.7,230,236,230s236-99.7,236-230S429.3,53,299,53S63,164.7,63,295z"/>
	<g class="st2">
		<path class="st3" d="M389.9,305.2c11.3,3.7,22.1,7.3,32.9,10.8c0.6,0.2,1.2,0.4,1.8,0.6c2.1,0.7,3.5,2,3.7,4.3c0.2,2.4-0.9,4-3,5
			c-8.5,4.2-17,8.4-25.5,12.7c-16.4,8.2-32.8,16.3-49.2,24.5c-2.5,1.3-4.8,1.5-7.6,0.6c-12.9-4.4-25.9-8.6-38.9-13
			c-1.6-0.5-2.9-0.5-4.5,0c-13.1,4.4-26.2,8.6-39.2,13c-2.5,0.8-4.7,0.7-7.1-0.5c-24.6-12.3-49.3-24.6-74-36.8
			c-2.3-1.1-4.1-2.4-3.9-5.3c0.2-2.9,2.1-3.9,4.6-4.7c10.5-3.4,21-6.9,31.4-10.3c0.9-0.3,1.7-0.7,2.8-1.1
			c-7.2-4.8-14.2-9.5-21.1-14.1c-4.9-3.3-9.7-6.5-14.6-9.8c-1.8-1.2-2.9-2.7-2.7-5c0.2-2.3,1.7-3.5,3.8-4.2
			c19.6-7.2,39.1-14.5,58.7-21.8c2.5-0.9,4.7-0.8,6.4,1.4c1.3,1.8,1.2,3.8-0.1,5.6c-0.8,1.2-2.1,1.6-3.4,2.1
			c-16,5.9-31.9,11.9-47.9,17.8c-0.6,0.2-1.2,0.5-2.2,0.8c1.9,1.3,3.6,2.4,5.3,3.6c9,6.1,18.1,12.1,27.1,18.2c1.5,1,2.6,1.1,4.2,0.3
			c9.2-4.7,18.4-9.2,27.6-13.8c1.9-1,3.8-1.5,5.7-0.3c1.5,0.9,2.3,2.3,2.3,4.1c0,2.2-1.2,3.6-3.1,4.5c-6.8,3.4-13.6,6.7-20.3,10.1
			c-1.2,0.6-2.4,1.2-3.9,2c7.1,3.6,13.9,7,20.7,10.5c14.3,7.2,28.7,14.4,43,21.6c1.2,0.6,2.1,1,3.5,0.3c21-10.5,42.1-21,63.2-31.5
			c0.3-0.2,0.6-0.4,1.2-0.8c-6.2-3.1-12.2-6.1-18.2-9.1c-1.9-0.9-3.8-1.9-5.6-2.8c-3.5-1.7-4.6-4.2-3.2-7c1.4-2.7,4-3.3,7.6-1.5
			c9.4,4.6,18.8,9.3,28.2,14c1.2,0.6,2.1,0.9,3.4,0c10.5-7.1,21.1-14.1,31.7-21.2c0.4-0.2,0.9-0.4,0.9-1.2c-10-3.7-20-7.5-30-11.2
			c-6.8-2.6-13.7-5.1-20.5-7.7c-3.3-1.2-4.6-3.5-3.7-6.2c1-2.9,3.5-4,6.9-2.7c19.7,7.3,39.5,14.7,59.2,22c2,0.8,3.5,1.9,3.8,4.1
			c0.3,2.4-0.9,4-2.8,5.2c-11,7.3-22.1,14.7-33.1,22C391.7,303.9,391,304.4,389.9,305.2z"/>
		<path class="st3" d="M290.6,281.8c-3.4,0-6.8,0-10.2,0c-4.1,0-6-1.8-5.9-5.8c0.1-4-1.5-6.9-4.5-9.5c-16-14-21.9-31.7-16.1-52.1
			c5.8-20.6,20.4-32.7,41.6-36c21.8-3.3,43.1,8.9,52.2,29.1c9,20.3,3.6,44.4-13.3,58.5c-3.6,3-5.3,6.3-5,10.9c0.2,4.5,0.1,9,0,13.4
			c-0.1,6.1-3.6,10.7-9.5,12c-1.4,0.3-2.3,0.9-2.9,2.3c-2.9,6.3-8,9.7-14.9,9.7c-7,0-12-3.3-15-9.6c-0.8-1.6-1.5-2.2-3.2-2
			c-1.5,0.2-3.1,0.1-4.7,0c-2.6-0.2-4.5-2.2-4.6-4.6c-0.1-2.5,1.6-4.7,4.2-4.8c4-0.2,8-0.2,12.1,0c2.8,0.2,3.9,2.2,4.2,4.9
			c0.7,5.2,5,7.9,9.4,6.2c2.5-1,3.9-2.9,4.4-5.5c0.9-4.8,1.9-5.7,6.7-5.7c4,0,4.3-0.4,4.3-4.4c0-4.3,0.1-8.6,0-12.9
			c-0.1-6.8,2.4-12.2,7.7-16.5c7.7-6.2,12.3-14.3,14.3-24c4.4-21.7-11.5-44.3-33.5-47.3c-24.3-3.3-45.3,13.6-46.6,38
			c-0.7,12.6,3.8,23.3,13.2,31.8c4.2,3.7,8,7.5,9,13.3c0.2,0.9,0.6,1,1.3,1c3.6,0,7.1,0,10.7,0c1.1,0,1.4-0.4,1.4-1.5
			c0-7.2-0.1-14.5,0-21.7c0-1.8-1.4-1.7-2.3-2.1c-8.3-3.4-12.9-11.2-12.1-20.4c0.7-7.9,7.1-14.9,15.3-16.6
			c9.8-2.1,19.7,3.8,22.6,13.3c2.9,9.7-2,19.9-11.4,23.5c-1.9,0.7-2.4,1.6-2.4,3.5c0.1,8,0,16.1,0,24.1c0,6.1-1.3,7.3-7.5,7.3
			C296.4,281.8,293.5,281.8,290.6,281.8z"/>
		<path class="st3" d="M297.1,413.1c0-10.2,0-20.3,0-30.5c0-4.7,0-9.3,0-14c0-3.8,1.9-6,5-5.9c2.9,0.1,4.7,2.3,4.7,5.9
			c0,14.4,0,28.7,0,43.1c0,0.5,0,0.9,0.1,1.3c0.9,0.5,1.5-0.2,2-0.5c21-10.4,42-20.8,63-31.2c1.6-0.8,2.3-1.6,2.2-3.5
			c-0.2-3.6-0.1-7.1,0-10.7c0.1-3.6,2-5.6,5-5.6c2.9,0.1,4.6,2.2,4.7,5.6c0,5,0,10.1,0,15.1c0,2.6-1,4.4-3.3,5.5
			c-25.2,12.5-50.4,25-75.7,37.6c-2,1-3.8,0.9-5.7-0.1c-25-12.6-50-25.1-75.1-37.6c-2.3-1.2-3.4-2.8-3.3-5.4c0.1-5,0-10.1,0-15.1
			c0-3.4,1.9-5.5,4.8-5.4c2.9,0,4.7,2.1,4.7,5.6c0,3.7,0,7.3,0,11c0,1.2,0.3,2,1.5,2.5c21.6,10.8,43.2,21.6,64.8,32.4
			C296.5,413.2,296.6,413.1,297.1,413.1z"/>
		<path class="st3" d="M297.2,158.2c0-1.3-0.1-2.6,0-3.8c0.3-2.6,2.3-4.4,4.8-4.4c2.5,0,4.6,1.7,4.8,4.4c0.2,2.6,0.2,5.3,0,7.9
			c-0.2,2.6-2.3,4.4-4.7,4.4c-2.5,0-4.6-1.9-4.8-4.6C297.1,160.8,297.2,159.5,297.2,158.2C297.2,158.2,297.2,158.2,297.2,158.2z"/>
		<path class="st3" d="M245.9,202.2c0.1,3-2.6,5.4-5.6,4.8c-3-0.7-5.9-2-8.5-3.5c-2.1-1.3-2.7-3.4-1.7-5.7c0.9-2.2,3.3-3.5,5.6-2.8
			c2.7,0.9,5.2,2.1,7.8,3.3C245,198.9,245.7,200.5,245.9,202.2z"/>
		<path class="st3" d="M374.3,199.5c-0.1,1.9-1,3.4-2.8,4.3c-2.2,1-4.5,2.1-6.8,2.9c-2.8,1-5.3-0.2-6.3-2.7c-0.9-2.5,0-4.8,2.7-6.1
			c2.2-1,4.5-2.1,6.8-2.9C371,194,374.3,196.2,374.3,199.5z"/>
		<path class="st3" d="M276.1,171.9c-1.9,0-3.4-1-4.2-2.6c-1.1-2.3-2.1-4.7-2.9-7.1c-0.9-2.6,0.2-5.1,2.7-6.1c2.3-0.9,4.9-0.1,6,2.3
			c1.2,2.4,2.2,4.8,3,7.3C281.8,168.9,279.4,171.9,276.1,171.9z"/>
		<path class="st3" d="M260,181.1c-0.1,2-0.8,3.5-2.5,4.4c-1.7,0.9-3.5,1-4.9-0.2c-2.3-2-4.4-4.1-6.4-6.4c-1.4-1.7-1.2-3.8,0.2-5.6
			c1.5-1.9,3.7-2.5,5.6-1.4c3.1,1.8,5.4,4.5,7.5,7.4C259.9,179.8,259.9,180.6,260,181.1z"/>
		<path class="st3" d="M353.6,171.5c4,0.1,6.3,4,4.3,7.1c-1.8,2.7-4.1,4.9-6.7,6.8c-1.8,1.3-3.8,1-5.5-0.4c-1.8-1.6-2.4-3.7-1.1-5.7
			c1.9-2.9,4.5-5.3,7.3-7.3C352.4,171.5,353.2,171.6,353.6,171.5z"/>
		<path class="st3" d="M335.4,160.9c-1.2,3.1-2,6.9-4.5,9.7c-1.5,1.7-3.6,1.7-5.5,0.6c-2-1.2-2.9-3.1-2.1-5.4
			c0.9-2.6,1.9-5.1,3.2-7.6c1.1-2.1,3-2.9,5.3-2.4C334,156.5,335.1,158.2,335.4,160.9z"/>
		<path class="st3" d="M232.1,232.7c-1.3,0-2.6,0.1-3.8,0c-2.6-0.2-4.3-2.2-4.3-4.7c0-2.4,1.7-4.5,4.1-4.6c2.8-0.2,5.7-0.2,8.5,0
			c2.4,0.2,4,2.3,4,4.7c0,2.5-1.6,4.4-4.1,4.6C235,232.8,233.5,232.7,232.1,232.7C232.1,232.7,232.1,232.7,232.1,232.7z"/>
		<path class="st3" d="M371.6,232.8c-1.3,0-2.6,0.1-3.8,0c-2.7-0.2-4.4-2.1-4.4-4.6c0-2.6,1.8-4.7,4.6-4.8c2.5-0.1,5.1-0.1,7.7,0
			c2.6,0.1,4.4,2.1,4.4,4.7c0,2.6-1.7,4.5-4.3,4.7C374.3,232.8,373,232.7,371.6,232.8C371.6,232.7,371.6,232.8,371.6,232.8z"/>
		<path class="st4" d="M193.1,322.2c10.6-3.5,20.8-6.8,31-10.3c1-0.3,1.6,0,2.3,0.4c20.6,10.3,41.2,20.7,61.8,31
			c0.2,0.1,0.4,0.3,1,0.7c-4.2,1.4-8.2,2.7-12.1,4c-5.8,1.9-11.6,3.9-17.4,5.8c-1.2,0.4-2.3,0.6-3.6-0.1
			c-20.6-10.3-41.3-20.6-61.9-30.8C193.9,322.7,193.6,322.6,193.1,322.2z"/>
		<path class="st4" d="M314.8,343.9c21.2-10.5,42.1-20.9,63-31.3c1-0.5,1.8-0.7,2.8-0.3c9.8,3.2,19.5,6.5,29.3,9.7
			c0.2,0.1,0.4,0.2,0.9,0.5c-11,5.5-21.8,10.8-32.7,16.2c-10,5-20.1,10-30.1,15c-1.1,0.5-2,0.8-3.3,0.4c-9.5-3.2-19-6.3-28.5-9.5
			C315.8,344.4,315.5,344.2,314.8,343.9z"/>
		<path class="st4" d="M302.1,219.2c5.4,0.1,9.8,4.5,9.7,9.8c0,5.5-4.5,9.8-10.1,9.7c-5.4-0.1-9.7-4.6-9.6-9.9
			C292.3,223.5,296.7,219.1,302.1,219.2z"/>
	</g>
</g>
<g id="meet_patricia" class="st0">
	<path class="st1" d="M63,295c0,130.3,105.7,230,236,230s236-99.7,236-230S429.3,53,299,53S63,164.7,63,295z"/>
	<g class="st2">
		<g>
			<defs>
				<rect id="SVGID_1_" x="204.9" y="-234.4" width="622.4" height="880.2"/>
			</defs>
			<clipPath id="SVGID_2_">
				<use xlink:href="#SVGID_1_"  style="overflow:visible;"/>
			</clipPath>
			<g class="st5">
				<defs>
					<rect id="SVGID_3_" x="204.9" y="-234.4" width="622.4" height="880.2"/>
				</defs>
				<clipPath id="SVGID_4_">
					<use xlink:href="#SVGID_3_"  style="overflow:visible;"/>
				</clipPath>
				<path class="st6" d="M225.3,157h91.9v188.6h-91.9V157z M225.3,442.3h91.9v-91.9h-91.9V442.3z M413.9,248.9
					c-0.3-12.3-3-23.9-8-34.8c-5-11-11.7-20.6-20.1-29c-8.4-8.4-18.1-15.1-29-20.1c-11-5-22.6-7.7-34.8-8v91.9H413.9z M322,253.7
					v91.9c12.3-0.3,23.9-3,34.8-8c11-5,20.6-11.7,29-20.1c8.4-8.4,15.1-18.1,20.1-29c5-11,7.7-22.6,8-34.8H322z"/>
				<path class="st7" d="M329,160.6c0.8,2,3.2,3.9,4.4,5.7c1.7,2.4,3.3,4.8,4.7,7.4c3.5,6.5,6,13.4,7.5,20.6c1.1,4.9,1.5,9.9,2.1,15
					c0.4,3.4,1.2,8.9-2.6,10.8c-1.4,0.7-3.9,0.5-3.5-1.7c0.1-0.8,0.8-1.5,1.6-1.6c1.6-0.3,1.6,1.2,0.2,1.7c-0.9,0.3-1.9,0.6-2.8,0.2
					c-0.8-0.4-1.2-1.2-1.7-1.8c-1-1-2.5-1.5-3.9-1.7c-6.3-1.1-13.1,0.4-18.4,4.1c0.7-1.6,2.1-2.7,3.6-3.6c2.4-1.4,5.1-2.4,7.8-3.3
					c3.4-1,6.9-1.8,10.4-1.2c0.6,0.1,1.3,0.3,1.7,0.7c0.8,0.7,0.9,1.9,0.7,3c-0.6,3.3-1.4,6.5-2.4,9.7c-0.9,2.9-1.9,6.2-4.3,8.2
					c-1.5,1.2-3.7,1.8-5.5,0.9c-0.6-0.3-1.2-1-1-1.6c0.2-0.6,0.8-0.8,1.4-1c3.1-0.9,6.6-0.5,9.5,1c0.3,0.1,0.5,0.3,0.6,0.6
					c0.1,0.4-0.3,0.7-0.7,0.9c-3.5,1.8-7.5,2.5-11.4,1.9c-1.1-0.2-2.4-0.6-2.7-1.7c-0.4-1.2,0.6-2.3,1.5-3.1
					c3.9-3.1,11.6-5.9,15.3-1c1.6,2.1,1.1,5.2-0.5,7.3c-1.6,2.1-4.1,3.2-6.6,4c-8.9,2.6-24.5,5.5-33,9.1c-5.9,2.5-10.9,6.5-15.4,11
					c-6.7,6.7-12.4,14.6-15,23.6c-2.6,9.1-1.8,19.4,3.7,27.1c1.3,1.9,2.9,3.5,4.7,4.8c5.2,3.7,12.4,3.8,18.3,1.4
					c8.5-3.4,14.8-12.3,14.1-21.4c-0.5-6.1-3.8-11.6-7.4-16.6c-4.6-6.3-10.4-12.7-18.1-13.8c-4-0.6-8.1,0.4-11.9,1.9
					c-7.3,2.9-13.7,8-18.3,14.4c-3.8,5.5-6.3,12.6-3.9,18.8c0.6,1.6,1.6,3.2,1.2,4.9c-0.5,1.8-2.5,2.8-4.4,2.6
					c-1.8-0.3-3.4-1.5-4.5-3c-3.1-4.1-3.4-9.9-1.8-14.9c1.6-4.9,4.8-9.2,8.1-13.2c9.8-11.7,21.3-22,34-30.4c3.1-2.1,6.3-4,8.8-6.7
					c2.6-2.6,4.6-6.1,4.6-9.8c-2.6,1.3-5.2,2.7-7.8,4c-3.2,1.6-6.5,3.3-10.1,3.7c-3.6,0.4-7.6-0.8-9.5-3.9c7-2.4,13.8-5.9,18.5-11.5
					c2.5-2.9,4.3-6.4,6.8-9.2c4.1-4.7,10.2-7.8,12.6-13.6c1.3-2.9,0.6-5.3,1-8.5c0.4-3.7,1.8-7.3,3.2-10.8c0.9-2.2,1.8-4.5,3.2-6.4
					c1.4-1.8,3.2-3.1,4.6-4.9C323.1,166.6,328,159.1,329,160.6"/>
				<path class="st7" d="M341.6,219.3c1.1,4.9,5.5,8.5,8.7,12.1c3.7,4.2,7.2,8.4,11.4,12.1c0.3,0.2,0.5,0.5,0.8,0.7
					c2,1.7,4.2,3.3,6,5.4c1.7,2.1,3,4.7,2.7,7.4c-0.4,4.5-5,7.8-9.3,8.8c-0.9,0.2-1.8,0.2-2.6,0c-4.7-1-4.8-7.2-7.6-10.8
					c-1.3-0.3-2.5,1-2.7,2.3c-0.2,1.3,0.4,2.6,0.9,3.8c1.1,2.6,3,5.6,5.8,5.5c3.7-0.2,5.4-5.7,9.1-6c1.2,0.3,1.3,2.1,0.4,3
					c-0.9,0.9-2.2,1.1-3.3,1.5c-1.1,0.5-2.3,1.5-2.1,2.7c0.1,0.7,0.6,1.2,1.1,1.7c2.3,2.4,4.5,5.4,4,8.6c-0.5,3.5-3.7,5.8-6.7,7.7
					c-3.1,2-4.1,3.5-7.4,5.1c2.8-3.2,5.2-5.7,7.2-9.4c0.4-0.9,0.9-1.8,1.5-2.5c1.7-2.1,5-2.6,7.3-1.2c0.3,0.2,0.6,0.4,0.7,0.8
					c0.1,0.3-0.1,0.6-0.2,0.9c-1.6,3.1-5.4,4.3-8,6.6c-0.2,0.2-0.4,0.4-0.5,0.6c-0.1,0.5,0.2,0.9,0.6,1.3c0.9,0.7,2,1.1,2.8,1.8
					c1.6,1.3,2,3.6,2.3,5.6c0.1,0.8,0.2,1.5,0,2.3c-0.4,1.6-2.3,2.5-4,2.3c-1.7-0.2-3.1-1.1-4.5-2.1c-2.3-1.6-2.8-3.6-4.7-5.6
					c2.1,0.1,2.9-2.1,6.7-4.9c0.3,1.9,2.3,2.9,3.3,4.5c0.8,1.4,0.8,3.2,0.7,4.8c-0.2,3.3-2.3,3.1-3.4,5.6c-1,2.3-0.2,5.6,0.8,7.6
					c1.1,2.3,2.7,4.4,3.3,6.8c0.6,2.5,0,5.2-1.4,7.2c-2.9,4.1-8.6,5-13.7,5.5c-12,1.2-23.9,2.4-35.9,3.6
					c-12.1,1.2-23.8,2.1-34.8-4.4c-4.8-2.8-8.9-6.6-13.3-9.9c-1.9-1.4-3.8-2.7-5.5-4.3c-0.9-0.9-1.8-2-2.1-3.2
					c-0.3-1.3,0.2-2.8,1.4-3.3c1.2-0.5,2.7,0.3,3.4,1.4c0.7,1.2,0.7,2.6,0.6,3.9s-0.4,2.7-0.2,4c0.3,2.2,1.6,4.1,3.1,5.8
					c3.3,3.8,7.1,7,11.2,10c3.6,2.7,7.5,5.2,11.8,6.7c4.7,1.6,10.1,1.7,14.5-0.8c1.9-1.1,2.6-3.1,0.8-4.7c-2.9-2.7-8.7-2.8-11.5,0
					c-4.1,4.1,0.8,8.8,2.7,12.6c3.8,7.6-0.3,15.6-3.8,22.3c-3.7,7.1-6.7,13.8-8.5,21.7c0,0-2.9,12.9-0.6,25.8c0,0,0.6,17.3,8.7,25.3
					"/>
			</g>
		</g>
	</g>
</g>
</svg>
