<svg width="63" height="71" viewBox="0 0 63 71" fill="none" xmlns="http://www.w3.org/2000/svg">
<g clip-path="url(#clip0)">
<g filter="url(#filter0_dd)">
<path fill-rule="evenodd" clip-rule="evenodd" d="M6.29999 4C6.29999 1.79086 8.09085 0 10.3 0L44.0161 0C45.0782 0 46.0966 0.422395 46.847 1.17407L61.8309 16.1844C62.5795 16.9344 63 17.9507 63 19.0103L63 67C63 69.2091 61.2091 71 59 71H10.3C8.09085 71 6.29999 69.2091 6.29999 67L6.29999 4Z" fill="url(#paint0_linear)"/>
<path d="M10.3 0.5L44.0161 0.5C44.9454 0.5 45.8366 0.869596 46.4931 1.52731L61.477 16.5377C62.1321 17.1939 62.5 18.0832 62.5 19.0103L62.5 67C62.5 68.933 60.933 70.5 59 70.5H10.3C8.36699 70.5 6.79999 68.933 6.79999 67L6.79999 4C6.79999 2.067 8.36699 0.5 10.3 0.5Z" stroke="url(#paint1_linear)"/>
</g>
<path d="M13.0251 5.15527L43.0004 5.15527C43.423 5.15527 43.828 5.32481 44.1246 5.6259L57.3993 19.1014C57.6902 19.3966 57.8532 19.7944 57.8532 20.2089V64.2667C57.8532 65.1383 57.1467 65.8449 56.2751 65.8449H13.0251C12.1535 65.8449 11.447 65.1383 11.447 64.2667L11.447 6.7334C11.447 5.86182 12.1535 5.15527 13.0251 5.15527Z" fill="url(#paint2_linear)" stroke="url(#paint3_linear)" stroke-width="0.84375"/>
<rect x="14.175" y="41.0225" width="4.725" height="3.15555" rx="1" fill="url(#paint4_linear)"/>
<rect x="20.475" y="41.0225" width="3.15" height="3.15555" rx="1" fill="url(#paint5_linear)"/>
<path d="M6.29996 54.0664C6.29996 52.9618 7.19539 52.0664 8.29996 52.0664H32.65C33.7545 52.0664 34.65 52.9618 34.65 54.0664V62.6886C34.65 63.7932 33.7545 64.6886 32.65 64.6886H6.29996L6.29996 54.0664Z" fill="#E3E9EF" style="mix-blend-mode:multiply"/>
<rect y="50.4893" width="34.65" height="12.6222" rx="2" fill="url(#paint6_linear)"/>
<g filter="url(#filter1_dd)">
<rect x="29.9249" y="20.5107" width="22.05" height="22.0889" rx="1" fill="url(#paint7_linear)"/>
<rect x="29.4249" y="20.0107" width="23.05" height="23.0889" rx="1.5" stroke="url(#paint8_linear)"/>
</g>
<rect x="40.95" y="14.2002" width="9.45" height="3.15555" rx="1" fill="url(#paint9_linear)"/>
<rect x="33.075" y="23.667" width="15.75" height="15.7778" rx="1" fill="url(#paint10_linear)" fill-opacity="0.3"/>
<rect width="11.025" height="11.0444" rx="3.5" transform="matrix(-1 0 0 1 45.675 25.2441)" fill="url(#paint11_linear)"/>
<path d="M48.8249 28.4004H47.2694C41.1697 28.4004 36.2249 33.3452 36.2249 39.4448V39.4448H47.8249C48.3772 39.4448 48.8249 38.9971 48.8249 38.4448V28.4004Z" fill="url(#paint12_linear)"/>
<g filter="url(#filter2_dd)">
<rect x="15.7501" y="12.6221" width="22.05" height="22.0889" rx="1" fill="url(#paint13_linear)"/>
<rect x="15.2501" y="12.1221" width="23.05" height="23.0889" rx="1.5" stroke="url(#paint14_linear)"/>
</g>
<g filter="url(#filter3_dd)">
<rect x="18.9" y="15.7773" width="15.75" height="15.7778" rx="1" fill="url(#paint15_linear)" fill-opacity="0.3"/>
</g>
<path d="M29.925 15.7773H19.9C19.3477 15.7773 18.9 16.2251 18.9 16.7773V26.8218V26.8218C24.989 26.8218 29.925 21.8663 29.925 15.7773V15.7773Z" fill="url(#paint16_linear)"/>
<path d="M34.65 18.9336V18.9336C27.6912 18.9336 22.05 24.597 22.05 31.5558V31.5558H33.65C34.2022 31.5558 34.65 31.1081 34.65 30.5558V18.9336Z" fill="url(#paint17_linear)"/>
<path d="M8.88304 55.056L8.902 57.2824L8.15202 57.2869L8.10357 51.5996L10.2012 51.5872C10.8236 51.5835 11.3119 51.7395 11.6662 52.0551C12.023 52.3708 12.2037 52.7903 12.2082 53.3137C12.2129 53.8657 12.0433 54.2925 11.6995 54.594C11.3583 54.8929 10.8661 55.0443 10.2229 55.0481L8.88304 55.056ZM8.87782 54.4427L10.2254 54.4348C10.6265 54.4324 10.933 54.3368 11.1449 54.1481C11.3568 53.9567 11.4613 53.6827 11.4582 53.3259C11.4553 52.9874 11.3463 52.7172 11.131 52.5153C10.9157 52.3135 10.6219 52.2097 10.2494 52.2041L8.85882 52.2123L8.87782 54.4427ZM17.5698 57.2314L16.8159 57.2358L13.9154 52.87L13.9527 57.2527L13.1988 57.2571L13.1504 51.5698L13.9043 51.5654L16.8128 55.9506L16.7753 51.5485L17.5214 51.5441L17.5698 57.2314ZM23.0946 56.4527C22.9043 56.7299 22.6365 56.9385 22.2913 57.0785C21.9487 57.216 21.5483 57.286 21.09 57.2887C20.6264 57.2915 20.2141 57.1858 19.8528 56.9718C19.4916 56.7552 19.2103 56.4469 19.009 56.0471C18.8103 55.6472 18.7061 55.183 18.6963 54.6544L18.6921 54.1583C18.6848 53.3016 18.8784 52.6363 19.2728 52.1627C19.6698 51.689 20.2303 51.45 20.9542 51.4457C21.548 51.4422 22.0271 51.5917 22.3917 51.8943C22.7563 52.1942 22.9813 52.6226 23.0667 53.1794L22.3168 53.1838C22.1697 52.432 21.7186 52.0584 20.9634 52.0628C20.4608 52.0658 20.0808 52.2451 19.8234 52.6008C19.5686 52.9539 19.4428 53.4651 19.4458 54.1343L19.4498 54.5991C19.4552 55.2371 19.6054 55.7441 19.9003 56.1199C20.1951 56.4932 20.5913 56.6784 21.0886 56.6754C21.3699 56.6738 21.6157 56.6411 21.8261 56.5773C22.0365 56.5136 22.2101 56.4071 22.3468 56.2579L22.336 54.9806L21.0196 54.9883L21.0144 54.379L23.0769 54.3668L23.0946 56.4527Z" fill="white"/>
</g>
<defs>
<filter id="filter0_dd" x="2.29999" y="-2" width="64.7" height="79" filterUnits="userSpaceOnUse" color-interpolation-filters="sRGB">
<feFlood flood-opacity="0" result="BackgroundImageFix"/>
<feColorMatrix in="SourceAlpha" type="matrix" values="0 0 0 0 0 0 0 0 0 0 0 0 0 0 0 0 0 0 127 0"/>
<feOffset dy="2"/>
<feGaussianBlur stdDeviation="2"/>
<feColorMatrix type="matrix" values="0 0 0 0 0.671157 0 0 0 0 0.72817 0 0 0 0 0.785183 0 0 0 0.113063 0"/>
<feBlend mode="normal" in2="BackgroundImageFix" result="effect1_dropShadow"/>
<feColorMatrix in="SourceAlpha" type="matrix" values="0 0 0 0 0 0 0 0 0 0 0 0 0 0 0 0 0 0 127 0"/>
<feOffset dy="1"/>
<feGaussianBlur stdDeviation="0.5"/>
<feColorMatrix type="matrix" values="0 0 0 0 0.321569 0 0 0 0 0.380392 0 0 0 0 0.560784 0 0 0 0.0656414 0"/>
<feBlend mode="normal" in2="effect1_dropShadow" result="effect2_dropShadow"/>
<feBlend mode="normal" in="SourceGraphic" in2="effect2_dropShadow" result="shape"/>
</filter>
<filter id="filter1_dd" x="24.9249" y="17.5107" width="32.05" height="32.0889" filterUnits="userSpaceOnUse" color-interpolation-filters="sRGB">
<feFlood flood-opacity="0" result="BackgroundImageFix"/>
<feColorMatrix in="SourceAlpha" type="matrix" values="0 0 0 0 0 0 0 0 0 0 0 0 0 0 0 0 0 0 127 0"/>
<feOffset dy="2"/>
<feGaussianBlur stdDeviation="2"/>
<feColorMatrix type="matrix" values="0 0 0 0 0.671157 0 0 0 0 0.72817 0 0 0 0 0.785183 0 0 0 0.113063 0"/>
<feBlend mode="normal" in2="BackgroundImageFix" result="effect1_dropShadow"/>
<feColorMatrix in="SourceAlpha" type="matrix" values="0 0 0 0 0 0 0 0 0 0 0 0 0 0 0 0 0 0 127 0"/>
<feOffset dy="1"/>
<feGaussianBlur stdDeviation="0.5"/>
<feColorMatrix type="matrix" values="0 0 0 0 0.321569 0 0 0 0 0.380392 0 0 0 0 0.560784 0 0 0 0.0656414 0"/>
<feBlend mode="normal" in2="effect1_dropShadow" result="effect2_dropShadow"/>
<feBlend mode="normal" in="SourceGraphic" in2="effect2_dropShadow" result="shape"/>
</filter>
<filter id="filter2_dd" x="10.7501" y="9.62207" width="32.05" height="32.0889" filterUnits="userSpaceOnUse" color-interpolation-filters="sRGB">
<feFlood flood-opacity="0" result="BackgroundImageFix"/>
<feColorMatrix in="SourceAlpha" type="matrix" values="0 0 0 0 0 0 0 0 0 0 0 0 0 0 0 0 0 0 127 0"/>
<feOffset dy="2"/>
<feGaussianBlur stdDeviation="2"/>
<feColorMatrix type="matrix" values="0 0 0 0 0.671157 0 0 0 0 0.72817 0 0 0 0 0.785183 0 0 0 0.113063 0"/>
<feBlend mode="normal" in2="BackgroundImageFix" result="effect1_dropShadow"/>
<feColorMatrix in="SourceAlpha" type="matrix" values="0 0 0 0 0 0 0 0 0 0 0 0 0 0 0 0 0 0 127 0"/>
<feOffset dy="1"/>
<feGaussianBlur stdDeviation="0.5"/>
<feColorMatrix type="matrix" values="0 0 0 0 0.321569 0 0 0 0 0.380392 0 0 0 0 0.560784 0 0 0 0.0656414 0"/>
<feBlend mode="normal" in2="effect1_dropShadow" result="effect2_dropShadow"/>
<feBlend mode="normal" in="SourceGraphic" in2="effect2_dropShadow" result="shape"/>
</filter>
<filter id="filter3_dd" x="14.9" y="13.7773" width="23.75" height="23.7778" filterUnits="userSpaceOnUse" color-interpolation-filters="sRGB">
<feFlood flood-opacity="0" result="BackgroundImageFix"/>
<feColorMatrix in="SourceAlpha" type="matrix" values="0 0 0 0 0 0 0 0 0 0 0 0 0 0 0 0 0 0 127 0"/>
<feOffset dy="2"/>
<feGaussianBlur stdDeviation="2"/>
<feColorMatrix type="matrix" values="0 0 0 0 0.671157 0 0 0 0 0.72817 0 0 0 0 0.785183 0 0 0 0.113063 0"/>
<feBlend mode="normal" in2="BackgroundImageFix" result="effect1_dropShadow"/>
<feColorMatrix in="SourceAlpha" type="matrix" values="0 0 0 0 0 0 0 0 0 0 0 0 0 0 0 0 0 0 127 0"/>
<feOffset dy="1"/>
<feGaussianBlur stdDeviation="0.5"/>
<feColorMatrix type="matrix" values="0 0 0 0 0.321569 0 0 0 0 0.380392 0 0 0 0 0.560784 0 0 0 0.0656414 0"/>
<feBlend mode="normal" in2="effect1_dropShadow" result="effect2_dropShadow"/>
<feBlend mode="normal" in="SourceGraphic" in2="effect2_dropShadow" result="shape"/>
</filter>
<linearGradient id="paint0_linear" x1="6.29999" y1="0" x2="6.29999" y2="71" gradientUnits="userSpaceOnUse">
<stop stop-color="#F6F9FC"/>
<stop offset="1" stop-color="#E3E9EF"/>
</linearGradient>
<linearGradient id="paint1_linear" x1="6.29999" y1="0" x2="6.29999" y2="71" gradientUnits="userSpaceOnUse">
<stop stop-color="#E3E9EF"/>
<stop offset="1" stop-color="#F6F9FC"/>
</linearGradient>
<linearGradient id="paint2_linear" x1="11.0251" y1="4.7334" x2="11.0251" y2="66.2667" gradientUnits="userSpaceOnUse">
<stop stop-color="#E3E9EF"/>
<stop offset="1" stop-color="#F6F9FC"/>
</linearGradient>
<linearGradient id="paint3_linear" x1="11.0251" y1="4.7334" x2="11.0251" y2="66.2667" gradientUnits="userSpaceOnUse">
<stop stop-color="#E3E9EF"/>
<stop offset="1" stop-color="#F6F9FC"/>
</linearGradient>
<linearGradient id="paint4_linear" x1="14.175" y1="41.0225" x2="14.175" y2="44.178" gradientUnits="userSpaceOnUse">
<stop stop-color="#7351FF"/>
<stop offset="1" stop-color="#7F98FF"/>
</linearGradient>
<linearGradient id="paint5_linear" x1="20.475" y1="41.0225" x2="20.475" y2="44.178" gradientUnits="userSpaceOnUse">
<stop stop-color="#7351FF"/>
<stop offset="1" stop-color="#7F98FF"/>
</linearGradient>
<linearGradient id="paint6_linear" x1="38.9712" y1="60.1923" x2="36.0228" y2="48.4291" gradientUnits="userSpaceOnUse">
<stop stop-color="#7351FF"/>
<stop offset="1" stop-color="#7F98FF"/>
</linearGradient>
<linearGradient id="paint7_linear" x1="29.9249" y1="20.5107" x2="29.9249" y2="42.5996" gradientUnits="userSpaceOnUse">
<stop stop-color="#F6F9FC"/>
<stop offset="1" stop-color="#E3E9EF"/>
</linearGradient>
<linearGradient id="paint8_linear" x1="29.9249" y1="20.5107" x2="29.9249" y2="42.5996" gradientUnits="userSpaceOnUse">
<stop stop-color="#E3E9EF"/>
<stop offset="1" stop-color="#F6F9FC"/>
</linearGradient>
<linearGradient id="paint9_linear" x1="50.8402" y1="17.3557" x2="50.8402" y2="13.9062" gradientUnits="userSpaceOnUse">
<stop stop-color="#6C6C6C"/>
<stop offset="1" stop-color="#B9B9B9"/>
</linearGradient>
<linearGradient id="paint10_linear" x1="52.3278" y1="31.7319" x2="40.5306" y2="19.5284" gradientUnits="userSpaceOnUse">
<stop stop-color="#B9B9B9"/>
<stop offset="1" stop-color="#6C6C6C"/>
</linearGradient>
<linearGradient id="paint11_linear" x1="13.4769" y1="5.64542" x2="5.21891" y2="-2.89699" gradientUnits="userSpaceOnUse">
<stop stop-color="#6C6C6C"/>
<stop offset="1" stop-color="#B9B9B9"/>
</linearGradient>
<linearGradient id="paint12_linear" x1="33.4227" y1="34.0458" x2="41.5711" y2="24.4127" gradientUnits="userSpaceOnUse">
<stop stop-color="#B9B9B9"/>
<stop offset="1" stop-color="#6C6C6C"/>
</linearGradient>
<linearGradient id="paint13_linear" x1="15.7501" y1="12.6221" x2="15.7501" y2="34.711" gradientUnits="userSpaceOnUse">
<stop stop-color="#F6F9FC"/>
<stop offset="1" stop-color="#E3E9EF"/>
</linearGradient>
<linearGradient id="paint14_linear" x1="15.7501" y1="12.6221" x2="15.7501" y2="34.711" gradientUnits="userSpaceOnUse">
<stop stop-color="#E3E9EF"/>
<stop offset="1" stop-color="#F6F9FC"/>
</linearGradient>
<linearGradient id="paint15_linear" x1="36.6142" y1="27.9062" x2="29.3118" y2="17.3117" gradientUnits="userSpaceOnUse">
<stop stop-color="#7351FF"/>
<stop offset="1" stop-color="#7F98FF"/>
</linearGradient>
<linearGradient id="paint16_linear" x1="17.5251" y1="24.2675" x2="22.6368" y2="16.8514" gradientUnits="userSpaceOnUse">
<stop stop-color="#7F98FF"/>
<stop offset="1" stop-color="#7351FF"/>
</linearGradient>
<linearGradient id="paint17_linear" x1="20.4786" y1="28.6367" x2="26.3206" y2="20.1611" gradientUnits="userSpaceOnUse">
<stop stop-color="#7351FF"/>
<stop offset="1" stop-color="#7F98FF"/>
</linearGradient>
<clipPath id="clip0">
<rect width="63" height="71" fill="white"/>
</clipPath>
</defs>
</svg>
